<svg class="icon" width="45" height="45" viewBox="0 0 45 45" fill="none" xmlns="http://www.w3.org/2000/svg">
<path fill-rule="evenodd" clip-rule="evenodd" d="M28.5792 15.1697C29.2264 14.8985 29.9662 14.9051 30.5753 15.2535C31.8984 16.0103 33.1721 16.7698 34.2289 17.4562C34.8932 17.8877 35.4626 18.2842 35.9013 18.6283C36.3581 18.9866 36.6142 19.2432 36.7129 19.3912C37.3751 20.3845 37.925 21.6053 38.3131 22.5971C38.394 22.8038 38.465 22.9925 38.527 23.1612C38.751 23.7709 38.5896 24.4774 38.011 24.7724C37.5332 25.016 36.9922 25.1535 36.419 25.1535H31.9575C31.5836 25.1535 31.2745 25.4456 31.2599 25.8192C31.222 26.793 31.2009 28.1222 31.3213 28.8449C31.5265 30.0754 32.456 32.0286 32.8076 32.7317C33.1591 33.4348 34.038 35.0168 34.0381 35.72C34.0381 36.4231 34.038 36.599 33.3349 37.4778C32.6318 38.3567 31.6406 39.479 30.9375 40.0781C30.2344 40.6772 29.0676 41.3086 28.3008 41.4844C27.534 41.6601 25.8835 41.6553 25.0732 41.1692C24.2629 40.683 23.8427 39.0598 24.7216 38.0051C25.6005 36.9506 26.7356 37.1779 27.5341 36.5989C28.3937 35.9756 28.7582 35.2902 28.9404 35.0168C29.2916 34.4893 27.4932 32.0088 27.1026 30.2512C26.8547 29.1355 26.8512 27.1701 26.8815 25.8831C26.8909 25.4844 26.5721 25.1535 26.1732 25.1535H19.1035C18.7518 25.1535 18.4542 25.4121 18.4086 25.7609C18.2401 27.0502 17.8662 30.0204 17.8662 30.9739C17.8662 32.2042 17.9459 34.1574 17.6904 34.4895C17.4348 34.8213 17.2786 34.9741 16.7315 35.1731C16.1844 35.372 15.4051 35.0169 14.3506 35.0168C13.2959 35.0168 11.6179 35.3683 10.8349 35.3684C10.052 35.3684 9.78007 35.5444 8.46978 35.3488C7.23931 34.9973 6.88878 33.8722 6.88878 33.3449C6.88878 32.8175 6.96776 31.677 8.54977 31.1497C10.1319 30.6224 13.3893 31.1104 13.6941 30.427C13.9609 29.8287 14.2635 27.7345 14.4388 25.9116C14.4781 25.5032 14.1545 25.1535 13.7442 25.1535H8.294C7.72088 25.1535 7.17985 25.0162 6.70201 24.7728C6.12297 24.4778 5.96151 23.7709 6.18565 23.1609C6.24766 22.9922 6.31909 22.8036 6.39989 22.5971C6.78801 21.6053 7.33794 20.3845 8.00011 19.3912C8.09888 19.2432 8.35502 18.9865 8.81173 18.6283C9.25042 18.2843 9.81986 17.8876 10.4841 17.4562C11.5408 16.7699 12.8141 16.0102 14.137 15.2535C14.7461 14.9051 15.4859 14.8985 16.1331 15.1697C20.1135 16.8379 24.5988 16.8378 28.5792 15.1697ZM26.7703 18.6005C26.6019 18.5253 26.3721 18.4674 26.109 18.5123C25.8757 18.5521 25.6867 18.6608 25.5425 18.7887L25.4835 18.8446C25.3705 18.9585 25.2752 19.0884 25.2181 19.1663C25.1475 19.2627 25.1064 19.3201 25.0619 19.3727C25.0568 19.3787 25.0511 19.3836 25.0468 19.3885C25.0215 19.3899 24.9976 19.392 24.9747 19.3929C24.9278 19.3949 24.892 19.3947 24.8645 19.3939C24.8406 19.3777 24.8118 19.3567 24.7759 19.3294C24.7192 19.2862 24.5732 19.1699 24.4745 19.0983C24.3688 19.0218 24.1894 18.8981 23.9735 18.8254C23.7504 18.7503 23.3893 18.7014 23.037 18.9102L22.9666 18.9555C22.8946 19.0057 22.8284 19.062 22.7826 19.1021C22.7345 19.1441 22.6772 19.1964 22.627 19.2415C22.5203 19.3375 22.3954 19.4478 22.2398 19.5701C21.9752 19.778 21.7849 19.901 21.6438 19.9663C21.5573 20.0062 21.5153 20.0122 21.5044 20.013C21.0928 19.9399 20.5665 19.899 20.2945 19.899C19.8091 19.899 19.4156 20.2925 19.4156 20.7779C19.4157 21.2632 19.8091 21.6568 20.2945 21.6568C20.4629 21.6568 20.8907 21.6888 21.2026 21.7447C21.6439 21.8238 22.0476 21.7164 22.3816 21.562C22.4731 21.5197 22.5637 21.4711 22.6535 21.4189C22.8195 21.7696 23.104 21.9879 23.3367 22.1175C23.6025 22.2656 23.9698 22.3825 24.0992 22.4313C24.8251 22.7055 25.5172 22.4946 25.9267 22.3359L26.0719 22.2796L26.189 22.1769C26.485 21.9171 26.7381 21.6895 26.9587 21.4693L26.989 21.4388L27.0164 21.4055C27.0514 21.363 27.0861 21.3171 27.1204 21.2699C27.3663 21.3831 27.6062 21.4191 27.7886 21.4364C27.911 21.4479 28.0386 21.4531 28.1408 21.4577C28.2507 21.4625 28.3491 21.4675 28.4508 21.4769L28.469 21.4786L28.4869 21.4793C28.6933 21.4898 29.0167 21.4931 29.2882 21.4532C29.4449 21.4302 29.6242 21.3873 29.8121 21.2877C29.9914 21.1927 30.1313 21.0707 30.2461 20.9568C30.5903 20.6146 30.5922 20.0582 30.2502 19.7139C29.9081 19.3696 29.3517 19.3678 29.0073 19.7098C29.0047 19.7125 29.0015 19.7147 28.9991 19.717C28.8918 19.7284 28.7235 19.7314 28.5765 19.7239C28.4427 19.7124 28.3196 19.706 28.2187 19.7016C28.1012 19.6963 28.0232 19.693 27.954 19.6865C27.913 19.6826 27.886 19.6779 27.8696 19.6748C27.849 19.6538 27.8075 19.6093 27.7395 19.5254C27.6651 19.4337 27.5133 19.2351 27.3944 19.0987C27.2813 18.9689 27.0657 18.7326 26.7703 18.6005Z" fill="currentColor"/>
<path d="M5.03415 7.01407C5.03415 6.64093 5.53882 6.52469 5.70191 6.86026L6.95916 9.09701C7.19243 9.4469 7.60643 9.82052 8.0729 10.1864C8.5576 10.5665 9.16541 10.9885 9.84719 11.4313C10.5549 11.8909 11.3526 12.3797 12.1924 12.876C12.8963 13.2919 12.8963 14.3174 12.1924 14.7333C11.3526 15.2296 10.5549 15.7184 9.84719 16.178C9.16543 16.6208 8.55759 17.0428 8.0729 17.4229C7.60647 17.7888 7.19244 18.1624 6.95916 18.5123L5.70191 20.7487C5.53887 21.0843 5.03422 20.9683 5.03415 20.5952V7.01407Z" fill="currentColor"/>
<path d="M39.3678 6.86026C39.5309 6.52467 40.0359 6.64092 40.0359 7.01407V20.5952C40.0358 20.9683 39.5308 21.0843 39.3678 20.7487L38.1109 18.5123C37.8776 18.1624 37.4636 17.7888 36.9972 17.4229C36.5125 17.0428 35.9046 16.6208 35.2229 16.178C34.5151 15.7184 33.7171 15.2296 32.8773 14.7333C32.1735 14.3174 32.1735 13.2919 32.8773 12.876C33.7171 12.3797 34.5151 11.8909 35.2229 11.4313C35.9046 10.9885 36.5125 10.5665 36.9972 10.1864C37.4636 9.82053 37.8776 9.44688 38.1109 9.09701L39.3678 6.86026Z" fill="currentColor"/>
<path fill-rule="evenodd" clip-rule="evenodd" d="M36.5347 2.6731C37.1079 2.67312 37.6488 2.81067 38.1267 3.05418C38.7054 3.34912 38.867 4.05537 38.643 4.66505C38.581 4.83397 38.5098 5.02263 38.4288 5.22948C38.0407 6.22135 37.4908 7.44206 36.8286 8.43543C36.7299 8.58344 36.4738 8.83995 36.017 9.19829C35.5783 9.54237 35.0089 9.93897 34.3446 10.3704C33.0172 11.2325 31.3479 12.2102 29.6679 13.1527C25.1956 15.6618 19.7488 15.6617 15.2765 13.1527C13.5965 12.2102 11.9272 11.2325 10.5998 10.3704C9.93548 9.93896 9.36615 9.54238 8.92743 9.19829C8.47052 8.83993 8.21452 8.58346 8.11581 8.43543C7.45356 7.44205 6.90373 6.22138 6.51559 5.22948C6.4347 5.02277 6.3634 4.83423 6.30135 4.6654C6.07722 4.05544 6.23865 3.34876 6.81771 3.05384C7.29558 2.81047 7.83661 2.6731 8.4097 2.6731H36.5347ZM16.0232 5.05232C15.5158 4.83868 14.861 4.6679 14.1387 4.96993C13.9975 5.02898 13.8598 5.08151 13.7113 5.13884C13.5685 5.19397 13.4119 5.2548 13.2612 5.32183C12.9649 5.45358 12.6104 5.64235 12.3232 5.96419C11.9628 6.36812 11.6712 6.83046 11.5511 7.03021C11.301 7.4462 11.4355 7.98617 11.8515 8.2363C12.2675 8.48638 12.8075 8.35214 13.0576 7.93623C13.1587 7.76817 13.3837 7.41599 13.6347 7.13458C13.6745 7.09005 13.7595 7.02402 13.9756 6.92789C14.009 6.91305 14.044 6.89868 14.0804 6.88361C13.9831 7.18647 13.9286 7.49353 13.9187 7.78105C13.9071 8.11717 13.9517 8.56408 14.2012 8.92672C14.2124 8.94305 14.3334 9.137 14.4742 9.28412C14.641 9.45843 14.914 9.66367 15.3091 9.70847C15.7733 9.76106 16.2568 9.69191 16.6464 9.45818C16.7251 9.41097 17.5735 9.01575 17.7515 8.07906C17.7997 7.82544 17.8305 7.56163 17.8202 7.30967C17.8103 7.06856 17.7597 6.75198 17.5665 6.46819C17.1785 5.89842 16.6269 5.30658 16.0232 5.05232ZM32.2133 4.96615C31.9104 4.85705 31.52 4.77181 31.0484 4.84702C30.8484 4.87891 30.7494 4.88173 30.497 4.91465C30.288 4.94193 30.0311 4.9861 29.7613 5.09283C28.9805 5.4017 28.488 5.77655 28.1188 6.27833C27.9382 6.52393 27.7789 6.80246 27.6632 7.01682C27.6039 7.12678 27.5523 7.22705 27.5129 7.30383C27.4926 7.34336 27.477 7.37391 27.4638 7.39928C27.4507 7.42446 27.4453 7.43415 27.4449 7.43498C27.2035 7.85608 27.3493 8.39315 27.7704 8.63455C28.1915 8.87592 28.7285 8.73017 28.9699 8.30908C29.0015 8.25396 29.0446 8.16907 29.0767 8.10652C29.1153 8.03131 29.16 7.94454 29.2103 7.85143C29.3137 7.6596 29.4272 7.46616 29.5347 7.31997C29.6626 7.14617 29.8439 6.96904 30.29 6.77683C30.2773 6.82038 30.2667 6.86232 30.2581 6.90146C30.1971 7.1781 30.1881 7.49811 30.2502 7.83804C30.2994 8.1076 30.4039 8.70222 30.9251 9.04929C31.0593 9.1386 31.2809 9.27498 31.5497 9.35725C31.8264 9.44194 32.2235 9.48887 32.6325 9.29476C32.8445 9.19414 33.1568 9.05543 33.3978 8.88861C33.6715 8.69904 33.9926 8.38228 34.0679 7.8686C34.1216 7.50231 34.1198 7.09921 34.0569 6.73426C34.0023 6.417 33.8689 5.92951 33.4942 5.60507C33.2323 5.37834 32.959 5.26802 32.765 5.19995C32.7248 5.18584 32.6761 5.16398 32.5738 5.11721C32.4841 5.07623 32.3561 5.0176 32.2133 4.96615Z" fill="currentColor"/>
</svg>
