<svg class="icon" width="45" height="45" viewBox="0 0 45 45" fill="none" xmlns="http://www.w3.org/2000/svg">
<path d="M4.66504 24.1816C5.548 22.8176 7.13536 21.3313 9.00781 21.9355C10.88 22.5398 10.8611 23.6136 12.7676 24.2383C14.6742 24.8629 15.1721 23.3041 17.0391 23.3984C18.906 23.4929 19.3716 23.9737 20.2988 25.1475C21.2923 26.4052 21.1659 28.8899 20.9189 30.2861C20.6719 31.6825 19.8004 34.281 17.7783 35.9395C15.756 37.598 13.7848 38.2379 10.6318 37.8672C7.47896 37.4963 5.29944 35.3077 4.16699 33.3135C3.03455 31.3193 3.12296 30.2661 3.21191 28.5098C3.30087 26.7535 3.7822 25.5456 4.66504 24.1816ZM35.9922 21.9355C37.8647 21.3313 39.452 22.8176 40.335 24.1816C41.2178 25.5456 41.6991 26.7536 41.7881 28.5098C41.877 30.266 41.9662 31.3195 40.834 33.3135C39.7015 35.3077 37.5211 37.4964 34.3682 37.8672C31.2152 38.2379 29.2439 37.598 27.2217 35.9395C25.1996 34.281 24.3281 31.6824 24.0811 30.2861C23.8341 28.8899 23.7076 26.4052 24.7012 25.1475C25.6284 23.9737 26.094 23.4929 27.9609 23.3984C29.8279 23.3041 30.3258 24.8629 32.2324 24.2383C34.1389 23.6136 34.12 22.5398 35.9922 21.9355ZM31.6406 5.27344C32.223 5.27353 32.5195 5.62501 32.6953 6.32812L33.0469 8.08594C33.0469 8.66837 32.5746 9.14053 31.9922 9.14062H26.8467C26.534 9.14062 26.3754 9.51884 26.5908 9.74512C27.456 10.651 28.5274 12.2246 29.8428 14.0625C31.6227 16.5496 32.2925 18.982 32.8857 20.3096C33.1812 20.9713 33.1277 21.7081 32.2383 22.1475C31.3484 22.5867 30.5408 22.027 30.2803 21.4443C29.7609 20.2819 28.5966 17.4012 27.3506 15.6436C26.1047 13.8861 24.6618 11.7998 23.7285 10.8711C23.0411 10.1872 21.9589 10.1872 21.2715 10.8711C20.3381 11.7999 18.8954 13.8861 17.6494 15.6436C16.4035 17.401 15.2402 20.2817 14.7207 21.4443C14.4602 22.027 13.6516 22.5867 12.7617 22.1475C11.8722 21.708 11.8196 20.9713 12.1152 20.3096C12.7084 18.982 13.3774 16.5495 15.1572 14.0625C16.4726 12.2247 17.5441 10.651 18.4092 9.74512C18.6245 9.51881 18.4659 9.14062 18.1533 9.14062H13.0078C12.4254 9.14054 11.9531 8.66837 11.9531 8.08594L12.3047 6.32812C12.4804 5.62503 12.777 5.27351 13.3594 5.27344H31.6406Z" fill="currentColor"/>
</svg>
