<svg class="icon" width="45" height="45" viewBox="0 0 45 45" fill="none" xmlns="http://www.w3.org/2000/svg">
<path d="M4.66507 24.5332C5.54803 23.1692 7.13539 21.6828 9.00784 22.2871C10.88 22.8914 10.8611 23.9652 12.7676 24.5898C14.6742 25.2145 15.1721 23.6556 17.0391 23.75C18.906 23.8444 19.3716 24.3253 20.2989 25.499C21.2924 26.7568 21.1659 29.2415 20.919 30.6377C20.672 32.034 19.8005 34.6326 17.7784 36.291C15.7561 37.9496 13.7848 38.5895 10.6319 38.2188C7.47899 37.8479 5.29947 35.6592 4.16702 33.665C3.03458 31.6708 3.12299 30.6177 3.21194 28.8613C3.3009 27.1051 3.78223 25.8971 4.66507 24.5332ZM35.9922 22.2871C37.8647 21.6828 39.452 23.1692 40.335 24.5332C41.2178 25.8971 41.6992 27.1051 41.7881 28.8613C41.8771 30.6176 41.9662 31.6711 40.834 33.665C39.7016 35.6593 37.5211 37.8479 34.3682 38.2188C31.2153 38.5895 29.244 37.9495 27.2217 36.291C25.1997 34.6325 24.3281 32.034 24.0811 30.6377C23.8342 29.2415 23.7076 26.7567 24.7012 25.499C25.6285 24.3252 26.094 23.8444 27.961 23.75C29.8279 23.6556 30.3259 25.2145 32.2325 24.5898C34.1389 23.9652 34.1201 22.8914 35.9922 22.2871ZM31.6407 5.625C32.2231 5.62509 32.5195 5.97658 32.6953 6.67969L33.0469 8.4375C33.0469 9.01993 32.5746 9.49209 31.9922 9.49219H26.8467C26.5341 9.49219 26.3754 9.8704 26.5909 10.0967C27.456 11.0026 28.5274 12.5762 29.8428 14.4141C31.6227 16.9011 32.2926 19.3336 32.8858 20.6611C33.1812 21.3228 33.1277 22.0597 32.2383 22.499C31.3484 22.9383 30.5408 22.3786 30.2803 21.7959C29.7609 20.6335 28.5966 17.7527 27.3506 15.9951C26.1047 14.2377 24.6619 12.1514 23.7285 11.2227C23.0412 10.5388 21.9589 10.5388 21.2715 11.2227C20.3382 12.1514 18.8954 14.2376 17.6494 15.9951C16.4035 17.7526 15.2402 20.6333 14.7207 21.7959C14.4603 22.3786 13.6517 22.9382 12.7617 22.499C11.8723 22.0596 11.8196 21.3229 12.1153 20.6611C12.7084 19.3336 13.3774 16.9011 15.1573 14.4141C16.4726 12.5763 17.5441 11.0026 18.4092 10.0967C18.6245 9.87038 18.4659 9.49219 18.1534 9.49219H13.0078C12.4254 9.4921 11.9532 9.01993 11.9532 8.4375L12.3047 6.67969C12.4804 5.9766 12.777 5.62508 13.3594 5.625H31.6407Z" fill="currentColor"/>
</svg>
