<svg class="icon" width="45" height="45" viewBox="0 0 45 45" fill="none" xmlns="http://www.w3.org/2000/svg">
<path d="M4.66516 24.5332C5.54812 23.1692 7.13548 21.6828 9.00793 22.2871C10.88 22.8914 10.8612 23.9652 12.7677 24.5898C14.6743 25.2145 15.1722 23.6556 17.0392 23.75C18.9059 23.8444 19.3709 24.3255 20.298 25.499C21.2915 26.7567 21.166 29.2415 20.9191 30.6377C20.6721 32.034 19.8005 34.6326 17.7784 36.291C15.7562 37.9496 13.7849 38.5895 10.632 38.2188C7.47905 37.848 5.29959 35.6592 4.16711 33.665C3.03467 31.6708 3.12308 30.6177 3.21204 28.8613C3.301 27.1051 3.7823 25.8971 4.66516 24.5332ZM35.9923 22.2871C37.8648 21.6828 39.4521 23.1692 40.3351 24.5332C41.2179 25.8971 41.6993 27.1051 41.7882 28.8613C41.8772 30.6177 41.9655 31.6709 40.8331 33.665C39.7007 35.6592 37.5211 37.8479 34.3683 38.2188C31.2154 38.5895 29.244 37.9495 27.2218 36.291C25.1998 34.6325 24.3282 32.034 24.0812 30.6377C23.8343 29.2415 23.7077 26.7567 24.7013 25.499C25.6285 24.3253 26.0941 23.8444 27.9611 23.75C29.828 23.6557 30.3259 25.2145 32.2325 24.5898C34.139 23.9652 34.1201 22.8914 35.9923 22.2871ZM31.6407 5.625C32.2231 5.62511 32.5196 5.97658 32.6954 6.67969L33.047 8.4375C33.047 9.01991 32.5747 9.49207 31.9923 9.49219H26.8458C26.5334 9.49249 26.3755 9.87049 26.5909 10.0967C27.4561 11.0026 28.5275 12.5762 29.8429 14.4141C31.6228 16.9011 32.2927 19.3336 32.8859 20.6611C33.1813 21.3228 33.1278 22.0597 32.2384 22.499C31.3485 22.9383 30.5409 22.3786 30.2804 21.7959C29.761 20.6335 28.5967 17.7528 27.3507 15.9951C26.1048 14.2376 24.662 12.1514 23.7286 11.2227C23.0413 10.5387 21.959 10.5388 21.2716 11.2227C20.3383 12.1514 18.8955 14.2376 17.6495 15.9951C16.4036 17.7526 15.2403 20.6332 14.7208 21.7959C14.4604 22.3786 13.6518 22.9382 12.7618 22.499C11.8722 22.0596 11.8197 21.3229 12.1154 20.6611C12.7085 19.3336 13.3775 16.9011 15.1573 14.4141C16.4727 12.5763 17.5433 11.0026 18.4083 10.0967C18.6243 9.87043 18.4662 9.49219 18.1534 9.49219H13.0079C12.4255 9.49214 11.9532 9.01996 11.9532 8.4375L12.3048 6.67969C12.4805 5.97657 12.7771 5.62504 13.3595 5.625H31.6407Z" fill="currentColor"/>
</svg>
