<svg class="icon" width="45" height="45" viewBox="0 0 45 45" fill="none" xmlns="http://www.w3.org/2000/svg">
<path fill-rule="evenodd" clip-rule="evenodd" d="M40.3353 24.5328C39.4524 23.1688 37.8651 21.6829 35.9926 22.2871C34.1202 22.8914 34.1392 23.9655 32.2326 24.5902C30.3259 25.2148 29.828 23.6553 27.9609 23.7497C26.094 23.8441 25.629 24.3255 24.7018 25.4993C23.7082 26.757 23.8338 29.2412 24.0807 30.6374C24.3276 32.0337 25.1998 34.632 27.2221 36.2906C29.2444 37.9492 31.2151 38.5891 34.368 38.2183C37.521 37.8476 39.701 35.6594 40.8335 33.6652C41.9659 31.671 41.8769 30.6178 41.7879 28.8614C41.699 27.1051 41.2182 25.8968 40.3353 24.5328ZM27.2015 26.7895C27.4523 26.6483 27.8216 26.5791 28.1855 26.7459L28.2579 26.7826C28.5251 26.9292 28.7366 27.1635 28.904 27.4366C28.9874 27.3631 29.0746 27.2909 29.1653 27.2252C29.328 27.1074 29.58 26.9492 29.8925 26.8818L29.956 26.8698L29.9999 26.8626C30.1506 26.8416 30.6138 26.8099 30.9877 27.1912C31.3929 27.6045 31.3255 28.1077 31.2726 28.3269L31.2524 28.4024C31.0456 29.101 30.7041 29.7327 30.4191 30.1341C30.1845 30.4646 29.9345 30.7382 29.7167 30.9382C29.643 31.0059 29.5664 31.0702 29.4901 31.1287C29.2113 31.4322 28.7677 31.5563 28.3558 31.4079C28.3429 31.4032 28.3267 31.3966 28.3077 31.3897C28.2943 31.3849 28.281 31.3799 28.2679 31.3746C28.204 31.3503 28.121 31.3176 28.0368 31.2746C27.9079 31.2088 27.7961 31.1323 27.7446 31.0978L27.6842 31.057L27.63 31.0086C27.2296 30.651 26.9896 30.1767 26.8489 29.7252C26.7645 29.4544 26.6653 29.1189 26.6058 28.7787C26.5485 28.4505 26.5092 28.0211 26.6189 27.5922C26.6476 27.48 26.7042 27.3118 26.8153 27.1479C26.8656 27.0736 26.9865 26.9106 27.2015 26.7895Z" fill="currentColor"/>
<path fill-rule="evenodd" clip-rule="evenodd" d="M9.0078 22.2871C7.13533 21.6829 5.54773 23.1688 4.66476 24.5328C3.78187 25.8968 3.30111 27.1051 3.21217 28.8614C3.12321 30.6178 3.03421 31.671 4.1666 33.6652C5.29906 35.6594 7.4791 37.8476 10.6321 38.2183C13.7851 38.5891 15.756 37.9492 17.7783 36.2906C19.8005 34.632 20.6724 32.0337 20.9194 30.6374C21.1663 29.2412 21.2922 26.757 20.2987 25.4993C19.3714 24.3255 18.9061 23.8441 17.0391 23.7497C15.1722 23.6553 14.6742 25.2148 12.7675 24.5902C10.861 23.9655 10.8801 22.8914 9.0078 22.2871ZM7.68154 25.5607C7.92873 25.5262 8.41952 25.5606 8.74069 25.9923L8.80249 26.0839C8.87895 26.2092 8.92245 26.3298 8.94188 26.3854C8.96057 26.4388 8.98637 26.5207 8.99544 26.5485C9.0091 26.5903 9.02295 26.6299 9.0387 26.6697C9.27915 26.59 9.55583 26.544 9.85889 26.5783L9.9461 26.5903C10.0408 26.6057 10.2506 26.6458 10.4597 26.7778C10.5738 26.8498 10.7295 26.9754 10.8459 27.1802C10.9716 27.4012 11.0143 27.6502 10.9816 27.8874C10.9369 28.2109 10.7602 28.4377 10.7162 28.4951C10.6394 28.5951 10.5562 28.68 10.4882 28.7426C10.1475 29.0565 9.7041 29.3898 9.37103 29.6421C9.2635 29.7236 9.15357 29.8011 9.04659 29.8718C8.90433 30.0364 8.71096 30.1594 8.48251 30.211C8.43722 30.2213 8.40951 30.2297 8.37849 30.2399C8.36798 30.2433 8.3259 30.2575 8.2954 30.267C8.2566 30.2791 8.20423 30.2942 8.14228 30.3078C8.0282 30.3329 7.49906 30.4426 7.04914 30.0119C6.73639 29.7124 6.65564 29.3119 6.62136 29.1042L6.61346 29.0557L6.61003 29.0067C6.57413 28.4999 6.52456 27.939 6.52042 27.4943C6.51833 27.2688 6.52633 27.0194 6.56746 26.785C6.60103 26.5938 6.68069 26.2589 6.92898 25.9734L6.98082 25.9171L7.05086 25.8508C7.22098 25.702 7.43845 25.5947 7.68154 25.5607Z" fill="currentColor"/>
<path d="M13.3594 5.625C12.777 5.62509 12.4806 5.97656 12.3047 6.67969L11.9532 8.4375C11.9532 9.01993 12.4254 9.49209 13.0079 9.49219H18.1539C18.4667 9.49219 18.625 9.87088 18.409 10.0971C17.5438 11.003 16.4725 12.5758 15.1571 14.4137C13.3771 16.9008 12.7077 19.3332 12.1145 20.6608C11.8189 21.3226 11.8722 22.0596 12.7617 22.499C13.6516 22.9383 14.4595 22.3789 14.72 21.7962C15.2393 20.6339 16.4032 17.7531 17.6492 15.9954C18.8952 14.2379 20.3379 12.1513 21.2713 11.2225C21.9587 10.5386 23.041 10.5386 23.7284 11.2225C24.6618 12.1512 26.1045 14.2378 27.3505 15.9954C28.5966 17.7531 29.7603 20.6338 30.2797 21.7962C30.5402 22.3789 31.3481 22.9382 32.238 22.499C33.1279 22.0595 33.1809 21.3227 32.8852 20.6608C32.292 19.3332 31.6227 16.9008 29.8427 14.4137C28.5273 12.5759 27.4565 11.003 26.5914 10.0971C26.3754 9.87087 26.5337 9.49219 26.8465 9.49219H31.9922C32.5747 9.49214 33.0469 9.01996 33.0469 8.4375L32.6954 6.67969C32.5197 5.97656 32.2231 5.62505 31.6407 5.625H13.3594Z" fill="currentColor"/>
</svg>
