<svg class="icon" width="45" height="45" viewBox="0 0 45 45" fill="none" xmlns="http://www.w3.org/2000/svg">
<path fill-rule="evenodd" clip-rule="evenodd" d="M28.4669 17.0669C29.1141 16.7956 29.8539 16.8024 30.463 17.1507C31.7861 17.9075 33.0599 18.6671 34.1167 19.3534C34.7809 19.7848 35.3503 20.1815 35.789 20.5256C36.2458 20.8838 36.5019 21.1403 36.6006 21.2884C37.2628 22.2817 37.8127 23.5026 38.2008 24.4944C38.2817 24.701 38.3527 24.8896 38.4147 25.0584C38.6387 25.6681 38.4773 26.7262 37.8987 27.0212C37.4209 27.2648 36.8799 27.4023 36.3067 27.4023H31.8452C31.4713 27.4023 31.1622 27.6944 31.1476 28.068C31.1097 29.0418 31.0887 28.6132 31.2091 29.3359C31.4143 30.5664 32.3437 32.5195 32.6953 33.2227C33.0468 33.9258 33.9257 35.5078 33.9258 36.2109C33.9258 36.914 33.9257 37.09 33.2227 37.9688C32.5196 38.8477 31.5283 39.9699 30.8252 40.5691C30.1221 41.1682 28.9553 41.7995 28.1885 41.9753C27.4217 42.1511 25.7712 42.1463 24.9609 41.6602C24.1506 41.174 23.7305 39.5508 24.6094 38.4961C25.4883 37.4415 26.6234 37.6689 27.4219 37.0898C28.2815 36.4666 28.6459 35.7812 28.8281 35.5078C29.1793 34.9803 27.3809 32.4997 26.9903 30.7422C26.7424 29.6266 26.7389 29.0673 26.7692 28.1319C26.7786 27.7331 26.4598 27.4023 26.0609 27.4023H19.0702C18.7185 27.4023 18.4209 27.6608 18.3753 28.0096C18.2068 28.9475 17.8329 31.2146 17.8329 32.168C17.8329 33.3984 17.9126 35.3515 17.6571 35.6836C17.4015 36.0153 17.2453 36.1683 16.6982 36.3672C16.1511 36.566 15.3717 36.2109 14.3172 36.2109C13.2626 36.211 11.5846 36.5624 10.8016 36.5625C10.0187 36.5625 9.74676 36.7385 8.43647 36.5429C7.20603 36.1913 6.85549 35.0664 6.85547 34.539C6.85547 34.0116 6.93446 32.8712 8.51646 32.3438C10.0986 31.8166 13.3559 32.3045 13.6608 31.6211C13.9276 31.0229 14.2302 29.6317 14.4055 28.1604C14.4448 27.7521 14.1212 27.4023 13.7109 27.4023H8.18172C7.60861 27.4023 7.06757 27.2651 6.58974 27.0216C6.01071 26.7266 5.84927 25.6681 6.07338 25.0581C6.13539 24.8895 6.20682 24.7009 6.28761 24.4944C6.67573 23.5026 7.22567 22.2817 7.88784 21.2884C7.98662 21.1403 8.24277 20.8837 8.69946 20.5256C9.13814 20.1815 9.70756 19.7848 10.3718 19.3534C11.4285 18.6672 12.7018 17.9075 14.0247 17.1507C14.6338 16.8023 15.3736 16.7957 16.0208 17.0669C20.0012 18.7351 24.4865 18.735 28.4669 17.0669ZM26.5787 20.427C26.4103 20.3517 26.1805 20.294 25.9174 20.3388C25.6842 20.3787 25.4951 20.4874 25.351 20.6152L25.2919 20.6711C25.1789 20.785 25.0836 20.9148 25.0265 20.9928C24.9559 21.0891 24.9148 21.1467 24.8703 21.1992C24.8652 21.2051 24.8595 21.2101 24.8552 21.2149C24.8299 21.2164 24.806 21.2184 24.7831 21.2194C24.7362 21.2213 24.7004 21.2211 24.6729 21.2204C24.649 21.2041 24.6202 21.1833 24.5843 21.1559C24.5276 21.1127 24.3816 20.9964 24.2829 20.9248C24.1773 20.8482 23.9977 20.7246 23.782 20.6519C23.5588 20.5768 23.1977 20.528 22.8454 20.7367L22.775 20.782C22.703 20.8322 22.6368 20.8884 22.591 20.9286C22.5429 20.9706 22.4856 21.0229 22.4355 21.068C22.3288 21.1639 22.2038 21.2743 22.0482 21.3966C21.7836 21.6045 21.5933 21.7275 21.4522 21.7928C21.3657 21.8328 21.3237 21.8387 21.3128 21.8394C20.9012 21.7664 20.3749 21.7255 20.1029 21.7255C19.6175 21.7255 19.224 22.119 19.224 22.6044C19.2241 23.0898 19.6175 23.4833 20.1029 23.4833C20.2713 23.4834 20.6991 23.5153 21.011 23.5712C21.4524 23.6504 21.856 23.5429 22.19 23.3885C22.2815 23.3461 22.3721 23.2976 22.4619 23.2454C22.6279 23.596 22.9124 23.8143 23.1451 23.944C23.4109 24.0921 23.7782 24.2089 23.9076 24.2578C24.6336 24.5319 25.3256 24.3211 25.7351 24.1624L25.8804 24.1061L25.9974 24.0034C26.2934 23.7435 26.5467 23.516 26.7672 23.2958L26.7974 23.2653L26.8248 23.232C26.8598 23.1895 26.8945 23.1436 26.9289 23.0964C27.1747 23.2096 27.4146 23.2457 27.597 23.2629C27.7194 23.2745 27.847 23.2797 27.9492 23.2842C28.0591 23.2891 28.1575 23.294 28.2592 23.3034L28.2774 23.3051L28.2953 23.3058C28.5017 23.3164 28.8251 23.3196 29.0966 23.2797C29.2533 23.2567 29.4326 23.2137 29.6205 23.1142C29.7998 23.0191 29.9397 22.8972 30.0545 22.7832C30.3987 22.4411 30.4006 21.8847 30.0586 21.5404C29.7165 21.1961 29.1601 21.1944 28.8158 21.5363C28.8131 21.539 28.8099 21.5411 28.8075 21.5435C28.7003 21.5549 28.5319 21.5579 28.3849 21.5504C28.2511 21.539 28.128 21.5326 28.0272 21.5281C27.9097 21.5229 27.8316 21.5194 27.7625 21.5129C27.7215 21.509 27.6944 21.5045 27.678 21.5013C27.6574 21.4803 27.6159 21.4358 27.5479 21.3519C27.4735 21.2601 27.3217 21.0616 27.2028 20.9252C27.0897 20.7955 26.8741 20.559 26.5787 20.427Z" fill="currentColor"/>
<path d="M4.92188 8.91129C4.92188 8.53815 5.42655 8.42192 5.58964 8.75748L6.84689 10.9942C7.08016 11.3441 7.49416 11.7178 7.96062 12.0836C8.44532 12.4638 9.05315 12.8857 9.73492 13.3285C10.4426 13.7882 11.2404 14.277 12.0802 14.7732C12.784 15.1891 12.784 16.2147 12.0802 16.6306C11.2404 17.1268 10.4426 17.6157 9.73492 18.0753C9.05316 18.5181 8.44531 18.94 7.96062 19.3201C7.49421 19.6859 7.08017 20.0596 6.84689 20.4095L5.58964 22.6459C5.4266 22.9815 4.92195 22.8655 4.92188 22.4924V8.91129Z" fill="currentColor"/>
<path d="M39.2555 8.75748C39.4186 8.4219 39.9236 8.53815 39.9236 8.91129V22.4924C39.9235 22.8655 39.4185 22.9815 39.2555 22.6459L37.9986 20.4095C37.7653 20.0596 37.3513 19.6859 36.8849 19.3201C36.4002 18.94 35.7923 18.518 35.1106 18.0753C34.4028 17.6156 33.6048 17.1269 32.765 16.6306C32.0612 16.2147 32.0612 15.1891 32.765 14.7732C33.6048 14.277 34.4028 13.7882 35.1106 13.3285C35.7923 12.8857 36.4002 12.4638 36.8849 12.0836C37.3513 11.7178 37.7653 11.3441 37.9986 10.9942L39.2555 8.75748Z" fill="currentColor"/>
<path fill-rule="evenodd" clip-rule="evenodd" d="M36.4224 4.57031C36.9956 4.57033 37.5365 4.70788 38.0144 4.9514C38.5931 5.24633 38.7548 5.95258 38.5308 6.56227C38.4688 6.73118 38.3975 6.91984 38.3165 7.12669C37.9284 8.11856 37.3785 9.33928 36.7163 10.3326C36.6176 10.4807 36.3615 10.7372 35.9047 11.0955C35.466 11.4396 34.8966 11.8361 34.2324 12.2676C32.905 13.1297 31.2356 14.1074 29.5556 15.0499C25.0833 17.559 19.6365 17.559 15.1642 15.0499C13.4842 14.1074 11.8149 13.1297 10.4875 12.2676C9.82318 11.8361 9.25386 11.4396 8.81516 11.0955C8.35825 10.7372 8.10225 10.4807 8.00354 10.3326C7.34129 9.33927 6.79145 8.1186 6.40331 7.12669C6.32242 6.92 6.25113 6.73144 6.18908 6.56261C5.96495 5.95267 6.12638 5.24599 6.70544 4.95106C7.18331 4.70769 7.72434 4.57031 8.29742 4.57031H36.4224ZM15.9109 6.94954C15.4036 6.73589 14.7487 6.56512 14.0265 6.86714C13.8853 6.92619 13.7475 6.97873 13.599 7.03606C13.4562 7.09119 13.2996 7.15202 13.1489 7.21905C12.8526 7.3508 12.4982 7.53958 12.211 7.8614C11.8506 8.26533 11.5589 8.72767 11.4388 8.92742C11.1887 9.34341 11.3232 9.88339 11.7392 10.1335C12.1552 10.3836 12.6952 10.2493 12.9453 9.83345C13.0464 9.66538 13.2715 9.3132 13.5225 9.03179C13.5623 8.98726 13.6473 8.92123 13.8634 8.82511C13.8968 8.81027 13.9317 8.79588 13.9681 8.78082C13.8708 9.08368 13.8163 9.39077 13.8064 9.67827C13.7948 10.0144 13.8394 10.4613 14.0889 10.8239C14.1002 10.8404 14.2211 11.0343 14.3619 11.1813C14.5287 11.3556 14.8017 11.5609 15.1968 11.6057C15.661 11.6583 16.1445 11.5891 16.5341 11.3554C16.6128 11.3082 17.4612 10.913 17.6392 9.97627C17.6874 9.72266 17.7182 9.45884 17.7079 9.20689C17.698 8.96578 17.6474 8.64919 17.4542 8.3654C17.0662 7.79565 16.5146 7.20379 15.9109 6.94954ZM31.7831 6.82251C31.4801 6.71341 31.0898 6.62817 30.6182 6.70338C30.4182 6.73527 30.3191 6.73809 30.0668 6.77101C29.8577 6.79828 29.6009 6.84247 29.3311 6.9492C28.5503 7.25806 28.0578 7.63292 27.6886 8.13469C27.5079 8.38029 27.3486 8.65883 27.233 8.87318C27.1738 8.98314 27.1221 9.08342 27.0827 9.16019C27.0625 9.19972 27.0467 9.23028 27.0336 9.25564C27.0205 9.2808 27.0147 9.29134 27.0147 9.29134C26.7733 9.71244 26.9192 10.2495 27.3402 10.4909C27.7613 10.7323 28.2983 10.5865 28.5397 10.1654C28.5713 10.1103 28.6144 10.0254 28.6465 9.96288C28.6851 9.88766 28.7299 9.8009 28.7801 9.70779C28.8836 9.51597 28.9969 9.32252 29.1045 9.17633C29.2323 9.00252 29.4137 8.8254 29.8598 8.63319C29.8471 8.67673 29.8365 8.71869 29.8279 8.75782C29.7669 9.03445 29.7579 9.35448 29.82 9.69441C29.8692 9.96396 29.9738 10.5586 30.495 10.9056C30.6292 10.995 30.8508 11.1313 31.1195 11.2136C31.3963 11.2983 31.7933 11.3452 32.2023 11.1511C32.4143 11.0505 32.7267 10.9118 32.9676 10.745C33.2414 10.5554 33.5623 10.2386 33.6377 9.72496C33.6914 9.35867 33.6896 8.95556 33.6267 8.59062C33.5721 8.27336 33.4387 7.78586 33.064 7.46143C32.8021 7.23469 32.5288 7.12437 32.3348 7.05631C32.2946 7.0422 32.2459 7.02034 32.1436 6.97357C32.0539 6.93259 31.9259 6.87396 31.7831 6.82251Z" fill="currentColor"/>
</svg>
