<svg class="icon" width="45" height="45" viewBox="0 0 45 45" fill="none" xmlns="http://www.w3.org/2000/svg">
<path fill-rule="evenodd" clip-rule="evenodd" d="M28.5792 15.5213C29.2264 15.25 29.9662 15.2567 30.5753 15.605C31.8984 16.3618 33.1721 17.1214 34.2289 17.8078C34.8932 18.2392 35.4626 18.6358 35.9013 18.9799C36.3581 19.3382 36.6142 19.5947 36.7129 19.7428C37.3751 20.7361 37.925 21.9569 38.3131 22.9487C38.394 23.1553 38.465 23.344 38.527 23.5128C38.751 24.1225 38.5896 24.829 38.011 25.124C37.5332 25.3676 36.9922 25.5051 36.419 25.5051H31.9575C31.5836 25.5051 31.2745 25.7972 31.2599 26.1708C31.222 27.1446 31.2009 28.4738 31.3213 29.1965C31.5265 30.427 32.456 32.3802 32.8076 33.0833C33.1591 33.7864 34.038 35.3684 34.0381 36.0715C34.0381 36.7746 34.038 36.9505 33.3349 37.8293C32.6318 38.7083 31.6406 39.8305 30.9375 40.4297C30.2344 41.0288 29.0676 41.6601 28.3008 41.8359C27.534 42.0117 25.8835 42.0069 25.0732 41.5208C24.2629 41.0346 23.8427 39.4114 24.7216 38.3567C25.6005 37.3021 26.7356 37.5295 27.5341 36.9504C28.3937 36.3271 28.7582 35.6418 28.9404 35.3684C29.2916 34.8409 27.4932 32.3603 27.1026 30.6027C26.8547 29.4871 26.8512 27.5217 26.8815 26.2347C26.8909 25.8359 26.5721 25.5051 26.1732 25.5051H19.1035C18.7518 25.5051 18.4542 25.7636 18.4086 26.1124C18.2401 27.4018 17.8662 30.372 17.8662 31.3254C17.8662 32.5558 17.9459 34.509 17.6904 34.8411C17.4348 35.1728 17.2786 35.3257 16.7315 35.5246C16.1844 35.7235 15.4051 35.3684 14.3506 35.3684C13.2959 35.3684 11.6179 35.7199 10.8349 35.72C10.052 35.72 9.78007 35.896 8.46978 35.7004C7.23931 35.3488 6.88878 34.2238 6.88878 33.6964C6.88878 33.169 6.96776 32.0286 8.54977 31.5012C10.1319 30.974 13.3893 31.462 13.6941 30.7785C13.9609 30.1803 14.2635 28.086 14.4388 26.2631C14.4781 25.8548 14.1545 25.5051 13.7442 25.5051H8.294C7.72088 25.5051 7.17985 25.3678 6.70201 25.1243C6.12297 24.8293 5.96151 24.1224 6.18565 23.5124C6.24766 23.3438 6.31909 23.1552 6.39989 22.9487C6.78801 21.9569 7.33794 20.7361 8.00011 19.7428C8.09888 19.5947 8.35502 19.3381 8.81173 18.9799C9.25042 18.6358 9.81986 18.2392 10.4841 17.8078C11.5408 17.1215 12.8141 16.3618 14.137 15.605C14.7461 15.2566 15.4859 15.2501 16.1331 15.5213C20.1135 17.1895 24.5988 17.1894 28.5792 15.5213ZM26.7703 18.9521C26.6019 18.8769 26.3721 18.819 26.109 18.8639C25.8757 18.9037 25.6867 19.0124 25.5425 19.1402L25.4835 19.1962C25.3705 19.3101 25.2752 19.4399 25.2181 19.5179C25.1475 19.6142 25.1064 19.6717 25.0619 19.7242C25.0568 19.7302 25.0511 19.7351 25.0468 19.74C25.0215 19.7415 24.9976 19.7435 24.9747 19.7445C24.9278 19.7464 24.892 19.7462 24.8645 19.7455C24.8406 19.7292 24.8118 19.7083 24.7759 19.681C24.7192 19.6377 24.5732 19.5215 24.4745 19.4499C24.3688 19.3734 24.1894 19.2496 23.9735 19.177C23.7504 19.1019 23.3893 19.053 23.037 19.2618L22.9666 19.3071C22.8946 19.3573 22.8284 19.4136 22.7826 19.4537C22.7345 19.4957 22.6772 19.548 22.627 19.5931C22.5203 19.6891 22.3954 19.7993 22.2398 19.9216C21.9752 20.1295 21.7849 20.2526 21.6438 20.3178C21.5573 20.3578 21.5153 20.3638 21.5044 20.3645C21.0928 20.2915 20.5665 20.2506 20.2945 20.2505C19.8091 20.2505 19.4156 20.6441 19.4156 21.1294C19.4157 21.6148 19.8091 22.0083 20.2945 22.0083C20.4629 22.0084 20.8907 22.0403 21.2026 22.0962C21.6439 22.1754 22.0476 22.068 22.3816 21.9136C22.4731 21.8712 22.5637 21.8226 22.6535 21.7704C22.8195 22.1211 23.104 22.3394 23.3367 22.4691C23.6025 22.6172 23.9698 22.734 24.0992 22.7829C24.8251 23.057 25.5172 22.8461 25.9267 22.6874L26.0719 22.6311L26.189 22.5285C26.485 22.2686 26.7381 22.0411 26.9587 21.8209L26.989 21.7903L27.0164 21.757C27.0514 21.7146 27.0861 21.6687 27.1204 21.6214C27.3663 21.7347 27.6062 21.7707 27.7886 21.7879C27.911 21.7995 28.0386 21.8047 28.1408 21.8092C28.2507 21.8141 28.3491 21.8191 28.4508 21.8284L28.469 21.8302L28.4869 21.8309C28.6933 21.8414 29.0167 21.8446 29.2882 21.8048C29.4449 21.7817 29.6242 21.7389 29.8121 21.6393C29.9914 21.5442 30.1313 21.4223 30.2461 21.3083C30.5903 20.9662 30.5922 20.4098 30.2502 20.0655C29.9081 19.7212 29.3517 19.7194 29.0073 20.0614C29.0047 20.064 29.0015 20.0662 28.9991 20.0686C28.8918 20.08 28.7235 20.0829 28.5765 20.0754C28.4427 20.064 28.3196 20.0576 28.2187 20.0531C28.1012 20.0479 28.0232 20.0446 27.954 20.038C27.913 20.0341 27.886 20.0295 27.8696 20.0263C27.849 20.0054 27.8075 19.9609 27.7395 19.877C27.6651 19.7852 27.5133 19.5867 27.3944 19.4503C27.2813 19.3205 27.0657 19.0841 26.7703 18.9521Z" fill="currentColor"/>
<path d="M5.03415 7.36563C5.03415 6.99249 5.53882 6.87626 5.70191 7.21182L6.95916 9.44857C7.19243 9.79846 7.60643 10.1721 8.0729 10.5379C8.5576 10.9181 9.16541 11.34 9.84719 11.7828C10.5549 12.2425 11.3526 12.7313 12.1924 13.2275C12.8963 13.6434 12.8963 14.669 12.1924 15.0849C11.3526 15.5811 10.5549 16.07 9.84719 16.5296C9.16543 16.9724 8.55759 17.3944 8.0729 17.7745C7.60647 18.1403 7.19244 18.514 6.95916 18.8639L5.70191 21.1003C5.53887 21.4359 5.03422 21.3199 5.03415 20.9468V7.36563Z" fill="currentColor"/>
<path d="M39.3678 7.21182C39.5309 6.87624 40.0359 6.99249 40.0359 7.36563V20.9468C40.0358 21.3199 39.5308 21.4359 39.3678 21.1003L38.1109 18.8639C37.8776 18.514 37.4636 18.1403 36.9972 17.7745C36.5125 17.3943 35.9046 16.9724 35.2229 16.5296C34.5151 16.0699 33.7171 15.5812 32.8773 15.0849C32.1735 14.669 32.1735 13.6434 32.8773 13.2275C33.7171 12.7313 34.5151 12.2425 35.2229 11.7828C35.9046 11.34 36.5125 10.9181 36.9972 10.5379C37.4636 10.1721 37.8776 9.79844 38.1109 9.44857L39.3678 7.21182Z" fill="currentColor"/>
<path fill-rule="evenodd" clip-rule="evenodd" d="M36.5347 3.02466C37.1079 3.02468 37.6488 3.16223 38.1267 3.40575C38.7054 3.70068 38.867 4.40693 38.643 5.01662C38.581 5.18553 38.5098 5.37419 38.4288 5.58104C38.0407 6.57291 37.4908 7.79363 36.8286 8.78699C36.7299 8.93501 36.4738 9.19152 36.017 9.54985C35.5783 9.89393 35.0089 10.2905 34.3446 10.722C33.0172 11.5841 31.3479 12.5617 29.6679 13.5042C25.1956 16.0133 19.7488 16.0133 15.2765 13.5042C13.5965 12.5617 11.9272 11.5841 10.5998 10.722C9.93548 10.2905 9.36615 9.89394 8.92743 9.54985C8.47052 9.19149 8.21452 8.93502 8.11581 8.78699C7.45356 7.79361 6.90373 6.57295 6.51559 5.58104C6.4347 5.37434 6.3634 5.18579 6.30135 5.01696C6.07722 4.40701 6.23865 3.70033 6.81771 3.4054C7.29558 3.16203 7.83661 3.02466 8.4097 3.02466H36.5347ZM16.0232 5.40389C15.5158 5.19024 14.861 5.01946 14.1387 5.32149C13.9975 5.38054 13.8598 5.43307 13.7113 5.4904C13.5685 5.54553 13.4119 5.60636 13.2612 5.67339C12.9649 5.80514 12.6104 5.99391 12.3232 6.31575C11.9628 6.71968 11.6712 7.18202 11.5511 7.38177C11.301 7.79776 11.4355 8.33773 11.8515 8.58786C12.2675 8.83795 12.8075 8.7037 13.0576 8.2878C13.1587 8.11973 13.3837 7.76755 13.6347 7.48614C13.6745 7.44161 13.7595 7.37558 13.9756 7.27946C14.009 7.26461 14.044 7.25024 14.0804 7.23517C13.9831 7.53803 13.9286 7.8451 13.9187 8.13261C13.9071 8.46873 13.9517 8.91565 14.2012 9.27828C14.2124 9.29462 14.3334 9.48856 14.4742 9.63568C14.641 9.80999 14.914 10.0152 15.3091 10.06C15.7733 10.1126 16.2568 10.0435 16.6464 9.80975C16.7251 9.76254 17.5735 9.36731 17.7515 8.43062C17.7997 8.177 17.8305 7.91319 17.8202 7.66123C17.8103 7.42012 17.7597 7.10354 17.5665 6.81975C17.1785 6.24999 16.6269 5.65814 16.0232 5.40389ZM32.2133 5.31771C31.9104 5.20861 31.52 5.12337 31.0484 5.19858C30.8484 5.23047 30.7494 5.23329 30.497 5.26621C30.288 5.29349 30.0311 5.33767 29.7613 5.4444C28.9805 5.75326 28.488 6.12811 28.1188 6.62989C27.9382 6.87549 27.7789 7.15403 27.6632 7.36838C27.6039 7.47834 27.5523 7.57861 27.5129 7.6554C27.4926 7.69493 27.477 7.72547 27.4638 7.75084C27.4507 7.77602 27.4453 7.78571 27.4449 7.78655C27.2035 8.20765 27.3493 8.74471 27.7704 8.98612C28.1915 9.22748 28.7285 9.08174 28.9699 8.66065C29.0015 8.60552 29.0446 8.52063 29.0767 8.45808C29.1153 8.38287 29.16 8.2961 29.2103 8.203C29.3137 8.01116 29.4272 7.81772 29.5347 7.67153C29.6626 7.49773 29.8439 7.3206 30.29 7.1284C30.2773 7.17194 30.2667 7.21388 30.2581 7.25302C30.1971 7.52966 30.1881 7.84967 30.2502 8.18961C30.2994 8.45916 30.4039 9.05378 30.9251 9.40085C31.0593 9.49017 31.2809 9.62654 31.5497 9.70881C31.8264 9.7935 32.2235 9.84044 32.6325 9.64632C32.8445 9.5457 33.1568 9.407 33.3978 9.24017C33.6715 9.05061 33.9926 8.73384 34.0679 8.22016C34.1216 7.85387 34.1198 7.45077 34.0569 7.08582C34.0023 6.76856 33.8689 6.28107 33.4942 5.95663C33.2323 5.7299 32.959 5.61958 32.765 5.55151C32.7248 5.53741 32.6761 5.51554 32.5738 5.46877C32.4841 5.42779 32.3561 5.36916 32.2133 5.31771Z" fill="currentColor"/>
</svg>
