<svg class="icon" width="45" height="45" viewBox="0 0 45 45" fill="none" xmlns="http://www.w3.org/2000/svg">
<path fill-rule="evenodd" clip-rule="evenodd" d="M28.5792 16.2245C29.2264 15.9532 29.9662 15.9599 30.5753 16.3082C31.8984 17.065 33.1721 17.8246 34.2289 18.511C34.8932 18.9424 35.4626 19.339 35.9013 19.6831C36.3581 20.0414 36.6142 20.2979 36.7129 20.446C37.3751 21.4393 37.925 22.6601 38.3131 23.6519C38.394 23.8585 38.465 24.0472 38.527 24.216C38.751 24.8257 38.5896 25.5322 38.011 25.8272C37.5332 26.0708 36.9922 26.2083 36.419 26.2083H31.9575C31.5836 26.2083 31.2745 26.5004 31.2599 26.874C31.222 27.8478 31.2009 28.1223 31.3213 28.845C31.5265 30.0755 32.456 32.0287 32.8076 32.7318C33.1591 33.4349 34.038 35.0169 34.0381 35.72C34.0381 36.4231 34.038 36.599 33.3349 37.4778C32.6318 38.3568 31.6406 39.479 30.9375 40.0782C30.2344 40.6773 29.0676 41.3086 28.3008 41.4844C27.534 41.6602 25.8835 41.6554 25.0732 41.1693C24.2629 40.6831 23.8427 39.0599 24.7216 38.0052C25.6005 36.9506 26.7356 37.178 27.5341 36.5989C28.3937 35.9756 28.7582 35.2903 28.9404 35.0169C29.2916 34.4894 27.4932 32.0088 27.1026 30.2512C26.8547 29.1356 26.8512 28.2249 26.8815 26.9379C26.8909 26.5391 26.5721 26.2083 26.1732 26.2083H19.1035C18.7518 26.2083 18.4542 26.4668 18.4086 26.8156C18.2401 28.105 17.8662 30.7236 17.8662 31.677C17.8662 32.9074 17.9459 34.8606 17.6904 35.1927C17.4348 35.5244 17.2786 35.6773 16.7315 35.8762C16.1844 36.0751 15.4051 35.72 14.3506 35.72C13.2959 35.72 11.6179 36.0715 10.8349 36.0716C10.052 36.0716 9.78008 36.2476 8.46979 36.052C7.23932 35.7004 6.88879 34.5754 6.88879 34.048C6.88879 33.5206 6.96777 32.3802 8.54978 31.8528C10.1319 31.3256 13.3893 31.8136 13.6941 31.1301C13.9609 30.5319 14.2635 28.7892 14.4388 26.9663C14.4781 26.558 14.1545 26.2083 13.7442 26.2083H8.29401C7.72089 26.2083 7.17986 26.071 6.70202 25.8275C6.12298 25.5325 5.96152 24.8256 6.18566 24.2156C6.24767 24.047 6.3191 23.8584 6.3999 23.6519C6.78802 22.6601 7.33795 21.4393 8.00012 20.446C8.09889 20.2979 8.35503 20.0413 8.81174 19.6831C9.25043 19.339 9.81987 18.9424 10.4841 18.511C11.5408 17.8247 12.8141 17.065 14.137 16.3082C14.7461 15.9598 15.4859 15.9533 16.1331 16.2245C20.1135 17.8927 24.5988 17.8926 28.5792 16.2245ZM26.7545 19.5482C26.5861 19.4729 26.3563 19.4151 26.0932 19.4599C25.8599 19.4998 25.6709 19.6085 25.5267 19.7363L25.4677 19.7923C25.3547 19.9062 25.2594 20.036 25.2023 20.114C25.1317 20.2103 25.0906 20.2678 25.0461 20.3203C25.041 20.3263 25.0353 20.3312 25.031 20.3361C25.0057 20.3376 24.9818 20.3396 24.9589 20.3406C24.912 20.3425 24.8762 20.3423 24.8487 20.3416C24.8248 20.3253 24.796 20.3044 24.7601 20.277C24.7034 20.2338 24.5574 20.1176 24.4587 20.046C24.3531 19.9694 24.1736 19.8457 23.9578 19.773C23.7346 19.6979 23.3735 19.6491 23.0212 19.8578L22.9508 19.9032C22.8788 19.9534 22.8126 20.0096 22.7668 20.0498C22.7187 20.0918 22.6614 20.1441 22.6112 20.1892C22.5045 20.2851 22.3796 20.3954 22.224 20.5177C21.9594 20.7256 21.7691 20.8486 21.628 20.9139C21.5415 20.9539 21.4995 20.9599 21.4886 20.9606C21.077 20.8875 20.5507 20.8466 20.2787 20.8466C19.7933 20.8466 19.3998 21.2401 19.3998 21.7255C19.3999 22.2109 19.7933 22.6044 20.2787 22.6044C20.4471 22.6045 20.8749 22.6364 21.1868 22.6923C21.6282 22.7715 22.0318 22.6641 22.3658 22.5097C22.4573 22.4673 22.5479 22.4187 22.6377 22.3665C22.8037 22.7172 23.0882 22.9355 23.3209 23.0652C23.5867 23.2133 23.954 23.3301 24.0834 23.379C24.8094 23.6531 25.5014 23.4422 25.9109 23.2835L26.0561 23.2272L26.1732 23.1246C26.4692 22.8647 26.7224 22.6372 26.9429 22.417L26.9732 22.3864L27.0006 22.3531C27.0356 22.3106 27.0703 22.2648 27.1047 22.2175C27.3505 22.3308 27.5904 22.3668 27.7728 22.384C27.8952 22.3956 28.0228 22.4008 28.125 22.4053C28.2349 22.4102 28.3333 22.4151 28.435 22.4245L28.4532 22.4262L28.4711 22.4269C28.6775 22.4375 29.0009 22.4407 29.2724 22.4008C29.4291 22.3778 29.6084 22.3349 29.7963 22.2354C29.9756 22.1403 30.1155 22.0184 30.2303 21.9044C30.5745 21.5623 30.5764 21.0059 30.2344 20.6616C29.8923 20.3173 29.3359 20.3155 28.9916 20.6574C28.9889 20.6601 28.9857 20.6623 28.9833 20.6647C28.8761 20.6761 28.7077 20.679 28.5607 20.6715C28.4269 20.6601 28.3038 20.6537 28.2029 20.6492C28.0854 20.644 28.0074 20.6406 27.9382 20.6341C27.8972 20.6302 27.8702 20.6256 27.8538 20.6224C27.8332 20.6014 27.7917 20.557 27.7237 20.4731C27.6493 20.3813 27.4975 20.1827 27.3786 20.0463C27.2655 19.9166 27.0499 19.6802 26.7545 19.5482Z" fill="currentColor"/>
<path d="M5.03415 8.06877C5.03415 7.69563 5.53882 7.5794 5.70191 7.91496L6.95916 10.1517C7.19243 10.5016 7.60643 10.8752 8.0729 11.241C8.5576 11.6212 9.16541 12.0431 9.84719 12.4859C10.5549 12.9456 11.3526 13.4344 12.1924 13.9306C12.8963 14.3465 12.8963 15.3721 12.1924 15.788C11.3526 16.2842 10.5549 16.7731 9.84719 17.2327C9.16543 17.6755 8.55759 18.0975 8.0729 18.4776C7.60647 18.8434 7.19244 19.2171 6.95916 19.567L5.70191 21.8034C5.53887 22.139 5.03422 22.023 5.03415 21.6499V8.06877Z" fill="currentColor"/>
<path d="M39.3678 7.91496C39.5309 7.57938 40.0359 7.69563 40.0359 8.06877V21.6499C40.0358 22.023 39.5308 22.139 39.3678 21.8034L38.1109 19.567C37.8776 19.2171 37.4636 18.8434 36.9972 18.4776C36.5125 18.0974 35.9046 17.6755 35.2229 17.2327C34.5151 16.773 33.7171 16.2843 32.8773 15.788C32.1735 15.3721 32.1735 14.3465 32.8773 13.9306C33.7171 13.4344 34.5151 12.9456 35.2229 12.4859C35.9046 12.0431 36.5125 11.6212 36.9972 11.241C37.4636 10.8752 37.8776 10.5016 38.1109 10.1517L39.3678 7.91496Z" fill="currentColor"/>
<path fill-rule="evenodd" clip-rule="evenodd" d="M36.5347 3.72778C37.1079 3.7278 37.6488 3.86535 38.1267 4.10887C38.7054 4.4038 38.867 5.11005 38.643 5.71974C38.581 5.88865 38.5098 6.07731 38.4288 6.28416C38.0407 7.27603 37.4908 8.49675 36.8286 9.49011C36.7299 9.63813 36.4738 9.89464 36.017 10.253C35.5783 10.5971 35.0089 10.9936 34.3446 11.4251C33.0172 12.2872 31.3479 13.2648 29.6679 14.2073C25.1956 16.7164 19.7488 16.7164 15.2765 14.2073C13.5965 13.2648 11.9272 12.2872 10.5998 11.4251C9.93548 10.9936 9.36615 10.5971 8.92743 10.253C8.47052 9.89461 8.21452 9.63814 8.11581 9.49011C7.45356 8.49673 6.90373 7.27607 6.51559 6.28416C6.4347 6.07746 6.3634 5.88891 6.30135 5.72008C6.07722 5.11013 6.23865 4.40345 6.81771 4.10852C7.29558 3.86515 7.83661 3.72778 8.4097 3.72778H36.5347ZM16.0232 6.10701C15.5158 5.89336 14.861 5.72258 14.1387 6.02461C13.9975 6.08366 13.8598 6.13619 13.7113 6.19352C13.5685 6.24865 13.4119 6.30948 13.2612 6.37651C12.9649 6.50826 12.6104 6.69703 12.3232 7.01887C11.9628 7.4228 11.6712 7.88514 11.5511 8.08489C11.301 8.50088 11.4355 9.04085 11.8515 9.29098C12.2675 9.54107 12.8075 9.40682 13.0576 8.99092C13.1587 8.82285 13.3837 8.47067 13.6347 8.18926C13.6745 8.14473 13.7595 8.0787 13.9756 7.98258C14.009 7.96773 14.044 7.95336 14.0804 7.93829C13.9831 8.24115 13.9286 8.54822 13.9187 8.83573C13.9071 9.17185 13.9517 9.61877 14.2012 9.9814C14.2124 9.99774 14.3334 10.1917 14.4742 10.3388C14.641 10.5131 14.914 10.7183 15.3091 10.7631C15.7733 10.8157 16.2568 10.7466 16.6464 10.5129C16.7251 10.4657 17.5735 10.0704 17.7515 9.13374C17.7997 8.88012 17.8305 8.61631 17.8202 8.36435C17.8103 8.12324 17.7597 7.80666 17.5665 7.52287C17.1785 6.95311 16.6269 6.36126 16.0232 6.10701ZM31.8954 5.97998C31.5924 5.87088 31.2021 5.78563 30.7305 5.86084C30.5305 5.89274 30.4314 5.89556 30.1791 5.92848C29.97 5.95575 29.7132 5.99993 29.4434 6.10666C28.6626 6.41553 28.1701 6.79038 27.8009 7.29216C27.6202 7.53776 27.4609 7.81629 27.3453 8.03064C27.286 8.14061 27.2343 8.24088 27.1949 8.31766C27.1747 8.35719 27.159 8.38774 27.1459 8.4131C27.1328 8.43829 27.127 8.44881 27.127 8.44881C26.8856 8.86991 27.0314 9.40697 27.4524 9.64838C27.8735 9.88975 28.4106 9.744 28.652 9.32291C28.6836 9.26779 28.7267 9.18289 28.7588 9.12035C28.7974 9.04513 28.8421 8.95837 28.8923 8.86526C28.9958 8.67343 29.1092 8.47999 29.2168 8.3338C29.3446 8.15999 29.526 7.98287 29.9721 7.79066C29.9594 7.8342 29.9488 7.87615 29.9402 7.91529C29.8792 8.19192 29.8702 8.51194 29.9323 8.85187C29.9815 9.12142 30.086 9.71604 30.6072 10.0631C30.7414 10.1524 30.963 10.2888 31.2317 10.3711C31.5085 10.4558 31.9056 10.5027 32.3146 10.3086C32.5266 10.208 32.8389 10.0693 33.0798 9.90244C33.3536 9.71287 33.6746 9.3961 33.75 8.88243C33.8037 8.51613 33.8019 8.11303 33.739 7.74809C33.6844 7.43082 33.551 6.94333 33.1763 6.6189C32.9144 6.39216 32.6411 6.28184 32.4471 6.21378C32.4069 6.19967 32.3582 6.17781 32.2559 6.13104C32.1662 6.09006 32.0382 6.03143 31.8954 5.97998Z" fill="currentColor"/>
</svg>
