<svg class="icon" width="45" height="45" viewBox="0 0 45 45" fill="none" xmlns="http://www.w3.org/2000/svg">
<path fill-rule="evenodd" clip-rule="evenodd" d="M28.5792 16.576C29.2264 16.3047 29.9662 16.3114 30.5753 16.6597C31.8984 17.4165 33.1721 18.1761 34.2289 18.8625C34.8932 19.2939 35.4626 19.6905 35.9013 20.0346C36.3581 20.3929 36.6142 20.6494 36.7129 20.7975C37.3751 21.7908 37.925 23.0116 38.3131 24.0034C38.394 24.21 38.465 24.3987 38.527 24.5675C38.751 25.1772 38.5896 25.8837 38.011 26.1787C37.5332 26.4223 36.9922 26.5598 36.419 26.5598H31.9575C31.5836 26.5598 31.2745 26.8519 31.2599 27.2255C31.222 28.1993 31.2009 28.4738 31.3213 29.1965C31.5265 30.427 32.456 32.3802 32.8076 33.0833C33.1591 33.7864 34.038 35.3684 34.0381 36.0715C34.0381 36.7746 34.038 36.9505 33.3349 37.8293C32.6318 38.7083 31.6406 39.8305 30.9375 40.4297C30.2344 41.0288 29.0676 41.6601 28.3008 41.8359C27.534 42.0117 25.8835 42.0069 25.0732 41.5208C24.2629 41.0346 23.8427 39.4114 24.7216 38.3567C25.6005 37.3021 26.7356 37.5295 27.5341 36.9504C28.3937 36.3271 28.7582 35.6418 28.9404 35.3684C29.2916 34.8409 27.4932 32.3603 27.1026 30.6027C26.8547 29.4871 26.8512 28.5764 26.8815 27.2894C26.8909 26.8906 26.5721 26.5598 26.1732 26.5598H19.1035C18.7518 26.5598 18.4542 26.8183 18.4086 27.1671C18.2401 28.4565 17.8662 31.0752 17.8662 32.0286C17.8662 33.259 17.9459 35.2122 17.6904 35.5443C17.4348 35.876 17.2786 36.0289 16.7315 36.2278C16.1844 36.4267 15.4051 36.0716 14.3506 36.0716C13.2959 36.0716 11.6179 36.4231 10.8349 36.4232C10.052 36.4232 9.78008 36.5992 8.46979 36.4036C7.23932 36.052 6.88879 34.927 6.88879 34.3996C6.88879 33.8722 6.96777 32.7318 8.54978 32.2044C10.1319 31.6772 13.3893 32.1652 13.6941 31.4817C13.9609 30.8835 14.2635 29.1407 14.4388 27.3178C14.4781 26.9095 14.1545 26.5598 13.7442 26.5598H8.29401C7.72089 26.5598 7.17986 26.4225 6.70202 26.179C6.12298 25.884 5.96152 25.1771 6.18566 24.5671C6.24767 24.3985 6.3191 24.2099 6.3999 24.0034C6.78802 23.0116 7.33795 21.7908 8.00012 20.7975C8.09889 20.6494 8.35503 20.3928 8.81174 20.0346C9.25043 19.6905 9.81987 19.2939 10.4841 18.8625C11.5408 18.1762 12.8141 17.4165 14.137 16.6597C14.7461 16.3113 15.4859 16.3048 16.1331 16.576C20.1135 18.2442 24.5988 18.2441 28.5792 16.576ZM26.7545 19.8997C26.5861 19.8244 26.3563 19.7666 26.0932 19.8114C25.8599 19.8513 25.6709 19.96 25.5267 20.0878L25.4677 20.1438C25.3547 20.2577 25.2594 20.3875 25.2023 20.4655C25.1317 20.5618 25.0906 20.6193 25.0461 20.6718C25.041 20.6778 25.0353 20.6827 25.031 20.6876C25.0057 20.6891 24.9818 20.6911 24.9589 20.6921C24.912 20.694 24.8762 20.6938 24.8487 20.6931C24.8248 20.6768 24.796 20.6559 24.7601 20.6285C24.7034 20.5853 24.5574 20.4691 24.4587 20.3975C24.3531 20.3209 24.1736 20.1972 23.9578 20.1245C23.7346 20.0494 23.3735 20.0006 23.0212 20.2093L22.9508 20.2547C22.8788 20.3049 22.8126 20.3611 22.7668 20.4013C22.7187 20.4433 22.6614 20.4956 22.6112 20.5407C22.5045 20.6366 22.3796 20.7469 22.224 20.8692C21.9594 21.0771 21.7691 21.2001 21.628 21.2654C21.5415 21.3054 21.4995 21.3114 21.4886 21.3121C21.077 21.239 20.5507 21.1981 20.2787 21.1981C19.7933 21.1981 19.3998 21.5916 19.3998 22.077C19.3999 22.5624 19.7933 22.9559 20.2787 22.9559C20.4471 22.956 20.8749 22.9879 21.1868 23.0438C21.6282 23.123 22.0318 23.0156 22.3658 22.8612C22.4573 22.8188 22.5479 22.7702 22.6377 22.718C22.8037 23.0687 23.0882 23.287 23.3209 23.4167C23.5867 23.5648 23.954 23.6816 24.0834 23.7305C24.8094 24.0046 25.5014 23.7937 25.9109 23.635L26.0561 23.5787L26.1732 23.4761C26.4692 23.2162 26.7224 22.9887 26.9429 22.7685L26.9732 22.7379L27.0006 22.7046C27.0356 22.6621 27.0703 22.6163 27.1047 22.569C27.3505 22.6823 27.5904 22.7183 27.7728 22.7355C27.8952 22.7471 28.0228 22.7523 28.125 22.7568C28.2349 22.7617 28.3333 22.7666 28.435 22.776L28.4532 22.7777L28.4711 22.7784C28.6775 22.789 29.0009 22.7922 29.2724 22.7523C29.4291 22.7293 29.6084 22.6864 29.7963 22.5869C29.9756 22.4918 30.1155 22.3699 30.2303 22.2559C30.5745 21.9138 30.5764 21.3574 30.2344 21.0131C29.8923 20.6688 29.3359 20.667 28.9916 21.0089C28.9889 21.0116 28.9857 21.0138 28.9833 21.0162C28.8761 21.0276 28.7077 21.0305 28.5607 21.023C28.4269 21.0116 28.3038 21.0052 28.2029 21.0007C28.0854 20.9955 28.0074 20.9921 27.9382 20.9856C27.8972 20.9817 27.8702 20.9771 27.8538 20.9739C27.8332 20.9529 27.7917 20.9085 27.7237 20.8246C27.6493 20.7328 27.4975 20.5342 27.3786 20.3978C27.2655 20.2681 27.0499 20.0317 26.7545 19.8997Z" fill="currentColor"/>
<path d="M5.03415 8.42033C5.03415 8.04719 5.53882 7.93096 5.70191 8.26652L6.95916 10.5033C7.19243 10.8532 7.60643 11.2268 8.0729 11.5926C8.5576 11.9728 9.16541 12.3947 9.84719 12.8375C10.5549 13.2972 11.3526 13.786 12.1924 14.2822C12.8963 14.6981 12.8963 15.7237 12.1924 16.1396C11.3526 16.6358 10.5549 17.1247 9.84719 17.5843C9.16543 18.0271 8.55759 18.4491 8.0729 18.8292C7.60647 19.195 7.19244 19.5687 6.95916 19.9186L5.70191 22.155C5.53887 22.4906 5.03422 22.3746 5.03415 22.0015V8.42033Z" fill="currentColor"/>
<path d="M39.3678 8.26653C39.5309 7.93095 40.0359 8.0472 40.0359 8.42034V22.0015C40.0358 22.3746 39.5308 22.4906 39.3678 22.155L38.1109 19.9186C37.8776 19.5687 37.4636 19.195 36.9972 18.8292C36.5125 18.449 35.9046 18.0271 35.2229 17.5843C34.5151 17.1246 33.7171 16.6359 32.8773 16.1396C32.1735 15.7237 32.1735 14.6981 32.8773 14.2822C33.7171 13.786 34.5151 13.2972 35.2229 12.8375C35.9046 12.3947 36.5125 11.9728 36.9972 11.5926C37.4636 11.2268 37.8776 10.8531 38.1109 10.5033L39.3678 8.26653Z" fill="currentColor"/>
<path fill-rule="evenodd" clip-rule="evenodd" d="M36.5347 4.07935C37.1079 4.07937 37.6488 4.21692 38.1267 4.46044C38.7054 4.75537 38.867 5.46162 38.643 6.07131C38.581 6.24022 38.5098 6.42888 38.4288 6.63573C38.0407 7.6276 37.4908 8.84832 36.8286 9.84168C36.7299 9.9897 36.4738 10.2462 36.017 10.6045C35.5783 10.9486 35.0089 11.3452 34.3446 11.7767C33.0172 12.6388 31.3479 13.6164 29.6679 14.5589C25.1956 17.068 19.7488 17.068 15.2765 14.5589C13.5965 13.6164 11.9272 12.6388 10.5998 11.7767C9.93548 11.3452 9.36615 10.9486 8.92743 10.6045C8.47052 10.2462 8.21452 9.98971 8.11581 9.84168C7.45356 8.8483 6.90373 7.62764 6.51559 6.63573C6.4347 6.42903 6.3634 6.24048 6.30135 6.07165C6.07722 5.4617 6.23865 4.75502 6.81771 4.46009C7.29558 4.21672 7.83661 4.07935 8.4097 4.07935H36.5347ZM16.0232 6.45858C15.5158 6.24493 14.861 6.07415 14.1387 6.37618C13.9975 6.43523 13.8598 6.48776 13.7113 6.54509C13.5685 6.60022 13.4119 6.66105 13.2612 6.72808C12.9649 6.85983 12.6104 7.0486 12.3232 7.37044C11.9628 7.77437 11.6712 8.23671 11.5511 8.43646C11.301 8.85245 11.4355 9.39242 11.8515 9.64255C12.2675 9.89264 12.8075 9.75839 13.0576 9.34249C13.1587 9.17442 13.3837 8.82224 13.6347 8.54083C13.6745 8.4963 13.7595 8.43027 13.9756 8.33415C14.009 8.3193 14.044 8.30493 14.0804 8.28986C13.9831 8.59272 13.9286 8.89979 13.9187 9.1873C13.9071 9.52342 13.9517 9.97034 14.2012 10.333C14.2124 10.3493 14.3334 10.5432 14.4742 10.6904C14.641 10.8647 14.914 11.0699 15.3091 11.1147C15.7733 11.1673 16.2568 11.0982 16.6464 10.8644C16.7251 10.8172 17.5735 10.422 17.7515 9.48531C17.7997 9.23169 17.8305 8.96788 17.8202 8.71592C17.8103 8.47481 17.7597 8.15823 17.5665 7.87444C17.1785 7.30468 16.6269 6.71283 16.0232 6.45858ZM31.8954 6.33155C31.5924 6.22245 31.2021 6.1372 30.7305 6.21241C30.5305 6.24431 30.4314 6.24713 30.1791 6.28005C29.97 6.30732 29.7132 6.3515 29.4434 6.45823C28.6626 6.7671 28.1701 7.14195 27.8009 7.64373C27.6202 7.88933 27.4609 8.16786 27.3453 8.38221C27.286 8.49218 27.2343 8.59245 27.1949 8.66923C27.1747 8.70876 27.159 8.73931 27.1459 8.76467C27.1328 8.78986 27.127 8.80038 27.127 8.80038C26.8856 9.22148 27.0314 9.75854 27.4524 9.99995C27.8735 10.2413 28.4106 10.0956 28.652 9.67448C28.6836 9.61936 28.7267 9.53446 28.7588 9.47192C28.7974 9.3967 28.8421 9.30994 28.8923 9.21683C28.9958 9.025 29.1092 8.83156 29.2168 8.68537C29.3446 8.51156 29.526 8.33444 29.9721 8.14223C29.9594 8.18577 29.9488 8.22772 29.9402 8.26686C29.8792 8.54349 29.8702 8.86351 29.9323 9.20344C29.9815 9.47299 30.086 10.0676 30.6072 10.4147C30.7414 10.504 30.963 10.6404 31.2317 10.7226C31.5085 10.8073 31.9056 10.8543 32.3146 10.6602C32.5266 10.5595 32.8389 10.4208 33.0798 10.254C33.3536 10.0644 33.6746 9.74767 33.75 9.234C33.8037 8.8677 33.8019 8.4646 33.739 8.09966C33.6844 7.78239 33.551 7.2949 33.1763 6.97047C32.9144 6.74373 32.6411 6.63341 32.4471 6.56535C32.4069 6.55124 32.3582 6.52938 32.2559 6.48261C32.1662 6.44163 32.0382 6.383 31.8954 6.33155Z" fill="currentColor"/>
</svg>
