<svg class="icon" width="45" height="45" viewBox="0 0 45 45" fill="none" xmlns="http://www.w3.org/2000/svg">
<path fill-rule="evenodd" clip-rule="evenodd" d="M28.5792 15.5213C29.2264 15.25 29.9662 15.2567 30.5753 15.605C31.8984 16.3618 33.1721 17.1214 34.2289 17.8078C34.8932 18.2392 35.4626 18.6358 35.9013 18.9799C36.3581 19.3382 36.6142 19.5947 36.7129 19.7428C37.3751 20.7361 37.925 21.9569 38.3131 22.9487C38.394 23.1553 38.465 23.344 38.527 23.5128C38.751 24.1225 38.5896 24.829 38.011 25.124C37.5332 25.3676 36.9922 25.5051 36.419 25.5051H31.9575C31.5836 25.5051 31.2745 25.7972 31.2599 26.1708C31.222 27.1446 31.2009 28.4738 31.3213 29.1965C31.5265 30.427 32.456 32.3802 32.8076 33.0833C33.1591 33.7864 34.038 35.3684 34.0381 36.0715C34.0381 36.7746 34.038 36.9505 33.3349 37.8293C32.6318 38.7083 31.6406 39.8305 30.9375 40.4297C30.2344 41.0288 29.0676 41.6601 28.3008 41.8359C27.534 42.0117 25.8835 42.0069 25.0732 41.5208C24.2629 41.0346 23.8427 39.4114 24.7216 38.3567C25.6005 37.3021 26.7356 37.5295 27.5341 36.9504C28.3937 36.3271 28.7582 35.6418 28.9404 35.3684C29.2916 34.8409 27.4932 32.3603 27.1026 30.6027C26.8547 29.4871 26.8512 27.5217 26.8815 26.2347C26.8909 25.8359 26.5721 25.5051 26.1732 25.5051H19.1035C18.7518 25.5051 18.4542 25.7636 18.4086 26.1124C18.2401 27.4018 17.8662 30.372 17.8662 31.3254C17.8662 32.5558 17.9459 34.509 17.6904 34.8411C17.4348 35.1728 17.2786 35.3257 16.7315 35.5246C16.1844 35.7235 15.4051 35.3684 14.3506 35.3684C13.2959 35.3684 11.6179 35.7199 10.8349 35.72C10.052 35.72 9.78007 35.896 8.46978 35.7004C7.23931 35.3488 6.88878 34.2238 6.88878 33.6964C6.88878 33.169 6.96776 32.0286 8.54977 31.5012C10.1319 30.974 13.3893 31.462 13.6941 30.7785C13.9609 30.1803 14.2635 28.086 14.4388 26.2631C14.4781 25.8548 14.1545 25.5051 13.7442 25.5051H8.294C7.72088 25.5051 7.17985 25.3678 6.70201 25.1243C6.12297 24.8293 5.96151 24.1224 6.18565 23.5124C6.24766 23.3438 6.31909 23.1552 6.39989 22.9487C6.78801 21.9569 7.33794 20.7361 8.00011 19.7428C8.09888 19.5947 8.35502 19.3381 8.81173 18.9799C9.25042 18.6358 9.81986 18.2392 10.4841 17.8078C11.5408 17.1215 12.8141 16.3618 14.137 15.605C14.7461 15.2566 15.4859 15.2501 16.1331 15.5213C20.1135 17.1895 24.5988 17.1894 28.5792 15.5213ZM26.7545 18.845C26.5861 18.7697 26.3563 18.7119 26.0932 18.7567C25.8599 18.7966 25.6709 18.9053 25.5267 19.0331L25.4677 19.0891C25.3547 19.203 25.2594 19.3328 25.2023 19.4108C25.1317 19.5071 25.0906 19.5646 25.0461 19.6171C25.041 19.6231 25.0353 19.628 25.031 19.6329C25.0057 19.6344 24.9818 19.6364 24.9589 19.6374C24.912 19.6393 24.8762 19.6391 24.8487 19.6384C24.8248 19.6221 24.796 19.6012 24.7601 19.5738C24.7034 19.5306 24.5574 19.4144 24.4587 19.3428C24.3531 19.2662 24.1736 19.1425 23.9578 19.0698C23.7346 18.9947 23.3735 18.9459 23.0212 19.1546L22.9508 19.2C22.8788 19.2502 22.8126 19.3064 22.7668 19.3466C22.7187 19.3886 22.6614 19.4409 22.6112 19.486C22.5045 19.5819 22.3796 19.6922 22.224 19.8145C21.9594 20.0224 21.7691 20.1454 21.628 20.2107C21.5415 20.2507 21.4995 20.2567 21.4886 20.2574C21.077 20.1843 20.5507 20.1434 20.2787 20.1434C19.7933 20.1434 19.3998 20.5369 19.3998 21.0223C19.3999 21.5077 19.7933 21.9012 20.2787 21.9012C20.4471 21.9013 20.8749 21.9332 21.1868 21.9891C21.6282 22.0683 22.0318 21.9609 22.3658 21.8065C22.4573 21.7641 22.5479 21.7155 22.6377 21.6633C22.8037 22.014 23.0882 22.2323 23.3209 22.362C23.5867 22.5101 23.954 22.6269 24.0834 22.6758C24.8094 22.9499 25.5014 22.739 25.9109 22.5803L26.0561 22.524L26.1732 22.4214C26.4692 22.1615 26.7224 21.934 26.9429 21.7138L26.9732 21.6832L27.0006 21.6499C27.0356 21.6074 27.0703 21.5616 27.1047 21.5143C27.3505 21.6276 27.5904 21.6636 27.7728 21.6808C27.8952 21.6924 28.0228 21.6976 28.125 21.7021C28.2349 21.707 28.3333 21.7119 28.435 21.7213L28.4532 21.723L28.4711 21.7237C28.6775 21.7343 29.0009 21.7375 29.2724 21.6976C29.4291 21.6746 29.6084 21.6317 29.7963 21.5322C29.9756 21.4371 30.1155 21.3152 30.2303 21.2012C30.5745 20.8591 30.5764 20.3027 30.2344 19.9584C29.8923 19.6141 29.3359 19.6123 28.9916 19.9542C28.9889 19.9569 28.9857 19.9591 28.9833 19.9615C28.8761 19.9729 28.7077 19.9758 28.5607 19.9683C28.4269 19.9569 28.3038 19.9505 28.2029 19.946C28.0854 19.9408 28.0074 19.9374 27.9382 19.9309C27.8972 19.927 27.8702 19.9224 27.8538 19.9192C27.8332 19.8982 27.7917 19.8538 27.7237 19.7699C27.6493 19.6781 27.4975 19.4795 27.3786 19.3431C27.2655 19.2134 27.0499 18.977 26.7545 18.845Z" fill="currentColor"/>
<path d="M5.03415 7.36563C5.03415 6.99249 5.53882 6.87626 5.70191 7.21182L6.95916 9.44857C7.19243 9.79846 7.60643 10.1721 8.0729 10.5379C8.5576 10.9181 9.16541 11.34 9.84719 11.7828C10.5549 12.2425 11.3526 12.7313 12.1924 13.2275C12.8963 13.6434 12.8963 14.669 12.1924 15.0849C11.3526 15.5811 10.5549 16.07 9.84719 16.5296C9.16543 16.9724 8.55759 17.3944 8.0729 17.7745C7.60647 18.1403 7.19244 18.514 6.95916 18.8639L5.70191 21.1003C5.53887 21.4359 5.03422 21.3199 5.03415 20.9468V7.36563Z" fill="currentColor"/>
<path d="M39.3678 7.21182C39.5309 6.87624 40.0359 6.99249 40.0359 7.36563V20.9468C40.0358 21.3199 39.5308 21.4359 39.3678 21.1003L38.1109 18.8639C37.8776 18.514 37.4636 18.1403 36.9972 17.7745C36.5125 17.3943 35.9046 16.9724 35.2229 16.5296C34.5151 16.0699 33.7171 15.5812 32.8773 15.0849C32.1735 14.669 32.1735 13.6434 32.8773 13.2275C33.7171 12.7313 34.5151 12.2425 35.2229 11.7828C35.9046 11.34 36.5125 10.9181 36.9972 10.5379C37.4636 10.1721 37.8776 9.79844 38.1109 9.44857L39.3678 7.21182Z" fill="currentColor"/>
<path fill-rule="evenodd" clip-rule="evenodd" d="M36.5347 3.02466C37.1079 3.02468 37.6488 3.16223 38.1267 3.40575C38.7054 3.70068 38.867 4.40693 38.643 5.01662C38.581 5.18553 38.5098 5.37419 38.4288 5.58104C38.0407 6.57291 37.4908 7.79363 36.8286 8.78699C36.7299 8.93501 36.4738 9.19152 36.017 9.54985C35.5783 9.89393 35.0089 10.2905 34.3446 10.722C33.0172 11.5841 31.3479 12.5617 29.6679 13.5042C25.1956 16.0133 19.7488 16.0133 15.2765 13.5042C13.5965 12.5617 11.9272 11.5841 10.5998 10.722C9.93548 10.2905 9.36615 9.89394 8.92743 9.54985C8.47052 9.19149 8.21452 8.93502 8.11581 8.78699C7.45356 7.79361 6.90373 6.57295 6.51559 5.58104C6.4347 5.37434 6.3634 5.18579 6.30135 5.01696C6.07722 4.40701 6.23865 3.70033 6.81771 3.4054C7.29558 3.16203 7.83661 3.02466 8.4097 3.02466H36.5347ZM16.0232 5.40389C15.5158 5.19024 14.861 5.01946 14.1387 5.32149C13.9975 5.38054 13.8598 5.43307 13.7113 5.4904C13.5685 5.54553 13.4119 5.60636 13.2612 5.67339C12.9649 5.80514 12.6104 5.99391 12.3232 6.31575C11.9628 6.71968 11.6712 7.18202 11.5511 7.38177C11.301 7.79776 11.4355 8.33773 11.8515 8.58786C12.2675 8.83795 12.8075 8.7037 13.0576 8.2878C13.1587 8.11973 13.3837 7.76755 13.6347 7.48614C13.6745 7.44161 13.7595 7.37558 13.9756 7.27946C14.009 7.26461 14.044 7.25024 14.0804 7.23517C13.9831 7.53803 13.9286 7.8451 13.9187 8.13261C13.9071 8.46873 13.9517 8.91565 14.2012 9.27828C14.2124 9.29462 14.3334 9.48856 14.4742 9.63568C14.641 9.80999 14.914 10.0152 15.3091 10.06C15.7733 10.1126 16.2568 10.0435 16.6464 9.80975C16.7251 9.76254 17.5735 9.36731 17.7515 8.43062C17.7997 8.177 17.8305 7.91319 17.8202 7.66123C17.8103 7.42012 17.7597 7.10354 17.5665 6.81975C17.1785 6.24999 16.6269 5.65814 16.0232 5.40389ZM31.8954 5.27686C31.5924 5.16776 31.2021 5.08251 30.7305 5.15772C30.5305 5.18962 30.4314 5.19244 30.1791 5.22536C29.97 5.25263 29.7132 5.29681 29.4434 5.40354C28.6626 5.71241 28.1701 6.08726 27.8009 6.58904C27.6202 6.83464 27.4609 7.11317 27.3453 7.32752C27.286 7.43749 27.2343 7.53776 27.1949 7.61454C27.1747 7.65407 27.159 7.68462 27.1459 7.70998C27.1328 7.73517 27.1274 7.74486 27.127 7.74569C26.8856 8.16679 27.0314 8.70385 27.4524 8.94526C27.8735 9.18663 28.4106 9.04088 28.652 8.61979C28.6836 8.56467 28.7267 8.47977 28.7588 8.41723C28.7974 8.34201 28.8421 8.25525 28.8923 8.16214C28.9958 7.97031 29.1092 7.77687 29.2168 7.63068C29.3446 7.45687 29.526 7.27975 29.9721 7.08754C29.9594 7.13108 29.9488 7.17303 29.9402 7.21217C29.8792 7.4888 29.8702 7.80882 29.9323 8.14875C29.9815 8.4183 30.086 9.01292 30.6072 9.35999C30.7414 9.44931 30.963 9.58568 31.2317 9.66795C31.5085 9.75265 31.9056 9.79958 32.3146 9.60547C32.5266 9.50484 32.8389 9.36614 33.0798 9.19932C33.3536 9.00975 33.6746 8.69298 33.75 8.17931C33.8037 7.81301 33.8019 7.40991 33.739 7.04497C33.6844 6.7277 33.551 6.24021 33.1763 5.91578C32.9144 5.68904 32.6411 5.57872 32.4471 5.51066C32.4069 5.49655 32.3582 5.47469 32.2559 5.42792C32.1662 5.38694 32.0382 5.32831 31.8954 5.27686Z" fill="currentColor"/>
</svg>
