<svg class="icon" width="45" height="45" viewBox="0 0 45 45" fill="none" xmlns="http://www.w3.org/2000/svg">
<path d="M5.52441 36.7579C6.63373 36.7579 7.53284 37.6587 7.53284 38.7697C7.53277 39.8806 6.63368 40.7812 5.52441 40.7812C4.41506 40.7812 3.5157 39.8807 3.51562 38.7697C3.51562 37.6587 4.41501 36.7579 5.52441 36.7579Z" fill="currentColor"/>
<path d="M19.3397 19.1646C19.3397 18.6127 19.9699 18.2398 20.4916 18.42C21.0388 18.6089 21.7419 18.7767 22.512 18.7767C23.2821 18.7766 23.9849 18.6089 24.5321 18.42C25.0538 18.2398 25.684 18.6127 25.684 19.1646V27.2808C25.684 27.6172 25.4483 27.9163 25.1261 28.0131C24.5303 28.1919 23.6651 28.4446 22.512 28.4446C21.3589 28.4446 20.4938 28.1919 19.898 28.0131C19.5757 27.9163 19.3397 27.6172 19.3397 27.2808V19.1646Z" fill="currentColor"/>
<path d="M23.5712 14.3821C23.9595 14.3822 24.3136 14.699 24.4861 15.0468C24.6208 15.3182 24.8036 15.614 24.9857 15.8859C25.3368 16.4102 25.1942 17.1109 24.586 17.2791C24.0671 17.4226 23.3709 17.5462 22.512 17.5462C21.653 17.5462 20.9566 17.4226 20.4377 17.2791C19.8295 17.1109 19.6869 16.4102 20.038 15.8859C20.2201 15.614 20.4029 15.3182 20.5376 15.0468C20.7101 14.699 21.0642 14.3822 21.4525 14.3821H23.5712Z" fill="currentColor"/>
<path fill-rule="evenodd" clip-rule="evenodd" d="M28.55 4.57031C33.1568 4.5704 37.0813 8.421 36.8863 13.0033C36.8736 13.3003 37.0299 13.5815 37.2897 13.726C39.7961 15.121 41.4844 17.7404 41.4844 20.7422C41.4844 23.7438 39.7959 26.3627 37.2897 27.7576C37.0299 27.9022 36.8736 28.1837 36.8863 28.4807C37.0815 33.0631 33.1569 36.914 28.55 36.9141C26.4305 36.9141 24.4954 36.1483 23.0236 34.8867C22.7247 34.6305 22.2753 34.6305 21.9764 34.8867C20.5046 36.1483 18.5696 36.9141 16.45 36.9141C15.1578 36.9141 13.9345 36.6291 12.8427 36.121C12.5464 35.9831 12.195 36.0482 11.937 36.2487C11.4016 36.6647 10.7225 36.9141 9.9828 36.9141C8.25455 36.9141 6.85341 35.5565 6.85341 33.8818C6.85341 32.9418 7.29506 32.1017 7.98809 31.5455C8.25304 31.3329 8.39878 30.9885 8.32008 30.658C8.15057 29.9462 8.08117 29.2113 8.11306 28.4803C8.12602 28.1834 7.96973 27.9022 7.71 27.7576C5.20382 26.3626 3.51564 23.7437 3.51562 20.7422C3.51562 17.7405 5.20372 15.1211 7.71 13.726C7.96968 13.5815 8.1257 13.3003 8.11306 13.0033C7.91805 8.42097 11.8435 4.57033 16.45 4.57031C18.5695 4.57031 20.5046 5.33582 21.9764 6.59729C22.2753 6.85348 22.7247 6.85348 23.0236 6.59729C24.4954 5.33586 26.4306 4.57031 28.55 4.57031ZM19.246 11.25C19.0518 11.25 18.8944 11.4074 18.8944 11.6016V12.4125C18.8944 12.6043 19.3768 12.6044 19.3768 12.9879C19.3768 13.3714 19.3373 14.008 18.6534 15.2768C17.9694 16.5459 17.9297 17.5781 17.9297 20.071V27.7295C17.9297 28.113 18.1589 28.7002 18.4121 28.892C18.6652 29.0837 19.6182 29.8509 22.512 29.8509C25.4058 29.8509 26.3582 29.0837 26.6116 28.892C26.865 28.7002 27.094 28.113 27.094 27.7295V20.071C27.094 17.5781 27.0543 16.5459 26.3703 15.2768C25.6864 14.008 25.6472 13.3714 25.6472 12.9879C25.6472 12.6044 26.1293 12.6043 26.1293 12.4125V11.6016C26.1293 11.4074 25.9719 11.25 25.7777 11.25H19.246Z" fill="currentColor"/>
</svg>
