<svg class="icon" width="45" height="45" viewBox="0 0 45 45" fill="none" xmlns="http://www.w3.org/2000/svg">
<path d="M38.3203 18.8086C39.097 18.8086 40.0781 19.7898 40.0781 20.5664V36.5625C40.0781 37.3392 39.097 38.3203 38.3203 38.3203H6.67969C5.90304 38.3203 4.92188 37.3392 4.92188 36.5625V20.5664C4.92188 19.7898 5.90304 18.8086 6.67969 18.8086H38.3203ZM25.7362 21.9727C25.2558 21.9035 24.8101 21.8854 24.7409 22.3658C24.7379 22.3864 24.7378 22.3841 24.7309 22.4269C24.7249 22.4639 24.7177 22.5131 24.7131 22.5745C24.711 22.6018 24.7098 22.6277 24.7089 22.6466C24.7085 22.6563 24.7083 22.6664 24.7079 22.6748C24.7077 22.6804 24.7074 22.6859 24.7072 22.6909C24.6081 22.9942 24.4861 23.2384 24.2685 23.4884C24.2112 23.5542 24.1719 23.5843 24.1486 23.5979C24.1322 23.6075 24.1165 23.6136 24.0865 23.6151C23.7862 23.6297 23.5268 23.7174 23.3961 23.7535C23.2461 23.7948 23.0429 23.8443 22.6782 23.8764C22.3837 23.9023 21.9934 23.9074 21.7855 23.8987C21.4572 23.8849 21.4201 23.8871 21.2791 23.8633C21.0477 23.8244 20.8603 23.791 20.7092 23.7524C20.6362 23.7338 20.5865 23.7174 20.5554 23.7051C20.5506 23.7032 20.5465 23.7009 20.5434 23.6996C20.465 23.6398 20.4232 23.6053 20.3965 23.5798C20.3738 23.5581 20.3745 23.5549 20.3796 23.5636C20.1424 23.158 20.0298 22.8261 19.9065 22.4478C19.7561 21.9864 19.2601 21.7342 18.7986 21.8844C18.3372 22.0349 18.085 22.5309 18.2352 22.9923C18.3492 23.3419 18.4858 23.7556 18.7447 24.2406C18.7039 24.2256 18.6613 24.2126 18.6174 24.2036C18.0175 24.0807 17.2374 23.9557 16.8499 23.9464C16.3246 23.9339 15.8117 24.1081 15.42 24.4278L15.3434 24.4933C15.0296 24.7769 15.0068 25.1495 15.0468 25.374C15.0814 25.5674 15.1664 25.715 15.2116 25.7873C15.3094 25.9439 15.439 26.0837 15.5134 26.1619C15.7222 26.3811 15.9739 26.4807 16.1554 26.5296C16.3427 26.58 16.5292 26.5963 16.6827 26.6006C16.9856 26.6092 17.2994 26.5728 17.4748 26.554L17.5122 26.5498L17.5489 26.5426C17.8634 26.4812 18.2335 26.3685 18.4893 26.2879C18.4697 26.4855 18.4538 26.652 18.4457 26.7428C18.4277 26.9456 18.4311 27.3751 18.469 28.0059C18.5331 29.0707 18.6593 29.5195 18.6613 29.5223C18.6783 29.6568 18.7102 29.782 18.7331 29.8739C18.7582 29.9749 18.7868 30.0889 18.821 30.2526C18.8642 30.4597 18.9585 30.7302 19.0383 30.9488C19.1238 31.1829 19.2215 31.4329 19.2892 31.6097C19.3617 31.7989 19.481 32.0787 19.6666 32.3736C19.8278 32.6299 19.9957 32.8511 20.2094 33.1248C20.4929 33.488 20.8886 33.6634 21.161 33.7531C21.4496 33.8481 21.728 33.8877 21.8923 33.9072C22.1467 33.9375 22.7196 33.9561 23.3727 33.9519C23.8395 33.9488 24.2374 33.8108 24.5761 33.6882C24.8476 33.5898 25.0335 33.4254 25.1614 33.2906C25.2677 33.1786 25.395 33.0172 25.479 32.9161C25.805 32.5238 26.0041 32.2432 26.142 32.01C26.269 31.7952 26.3606 31.5801 26.3861 31.5284C26.4322 31.4348 26.4699 31.3309 26.498 31.2523C26.5138 31.208 26.5318 31.1568 26.5505 31.1037C26.5696 31.0493 26.591 30.9887 26.6154 30.9207C26.929 30.0465 26.891 29.3599 26.887 29.3424C26.9214 29.038 26.9717 28.3408 26.9931 27.9527C27.0321 27.2429 26.9616 26.9241 26.8736 26.223L26.8732 26.2216C27.1285 26.3171 27.445 26.3705 27.8483 26.3868L27.9108 26.3895L27.9729 26.383C27.9616 26.3841 27.9947 26.3827 28.1521 26.395C28.2711 26.4043 28.456 26.4206 28.6328 26.4221C28.7953 26.4235 29.0576 26.4155 29.3115 26.3219C29.6072 26.2127 29.9857 25.9396 30.0586 25.4176C30.0767 25.2878 30.0819 25.1067 30.0311 24.9115C29.9823 24.7242 29.8615 24.4584 29.5865 24.2733L29.5292 24.2376L29.4121 24.1747C29.1241 24.0351 28.7285 23.9456 28.1298 23.99C27.9129 24.0061 27.6584 24.0226 27.4469 24.0412C27.2602 24.0576 27.0033 24.0831 26.8128 24.1376C26.6242 24.1917 26.4682 24.304 26.3576 24.4487C26.3174 24.3716 26.2886 24.3214 26.2628 24.2784C26.2019 24.1769 26.1232 24.0923 26.0338 24.0257C26.2089 23.7195 26.3263 23.4146 26.418 23.1115L26.4427 23.0301L26.4513 22.9456C26.4581 22.8783 26.4611 22.8184 26.463 22.7764C26.4634 22.766 26.464 22.7556 26.4643 22.7472C26.4647 22.7385 26.4648 22.7312 26.465 22.7249C26.4653 22.7188 26.4655 22.7141 26.4657 22.7108L26.4661 22.7081C26.4665 22.7051 26.4672 22.7011 26.4681 22.6957C26.4689 22.6908 26.4703 22.6831 26.4716 22.6758C26.4742 22.66 26.4775 22.6398 26.4808 22.6164C26.55 22.1361 26.2165 22.042 25.7362 21.9727ZM23.062 29.4698C23.6901 29.5208 24.1023 29.5621 24.3859 29.6051C24.6494 29.645 24.8476 29.6931 25.0275 29.776L25.1182 29.8087C25.1777 29.8298 25.2536 29.8587 25.3458 29.9044C25.6935 30.0771 25.8356 30.4991 25.663 30.8469C25.4904 31.1946 25.0684 31.3366 24.7206 31.1641C24.6953 31.1515 24.6755 31.1437 24.6478 31.1339C24.6397 31.131 24.6311 31.128 24.6204 31.1243C24.6103 31.1208 24.5972 31.1163 24.584 31.1116C24.5565 31.1018 24.5218 31.0892 24.4834 31.0731L24.4617 31.0638L24.4408 31.0532C24.4394 31.0525 24.4285 31.0472 24.3951 31.0381C24.3554 31.0273 24.2884 31.0127 24.1751 30.9955C24.0841 30.9817 23.9713 30.9677 23.8297 30.9523C23.829 30.966 23.8292 30.9798 23.8283 30.9931L23.8273 31.0086L23.8256 31.0237C23.79 31.3544 23.6341 31.6538 23.4431 31.9252L23.3556 32.0495L23.2241 32.1268C23.0018 32.2573 22.4715 32.3784 22.1296 31.9256C22.0007 31.7547 21.9674 31.5712 21.9562 31.4758C21.9431 31.3641 21.9476 31.255 21.961 31.1613C21.9709 31.0921 21.9793 31.0248 21.9867 30.9622C21.7991 30.9863 21.6425 31.0122 21.515 31.0374C21.355 31.069 21.2512 31.0977 21.1943 31.1171C21.1933 31.1174 21.1922 31.1174 21.1913 31.1177C20.9393 31.287 20.5967 31.279 20.3511 31.0755C20.0523 30.8276 20.0107 30.3843 20.2584 30.0854C20.366 29.9557 20.4974 29.8898 20.54 29.8684C20.6062 29.8352 20.6761 29.8078 20.7422 29.7853C20.876 29.7399 21.0439 29.6971 21.2424 29.6579C21.6423 29.579 22.2107 29.5067 22.9697 29.4684L23.016 29.466L23.062 29.4698ZM24.6066 25.789C24.9598 25.7007 25.3176 25.8967 25.4385 26.2319L25.4594 26.3006L25.4742 26.3699C25.4867 26.4398 25.4919 26.5149 25.4883 26.6158C25.4848 26.7135 25.4714 26.8638 25.4608 26.9855C25.4272 27.3723 25.0865 27.6587 24.6997 27.6251C24.3129 27.5914 24.0265 27.2508 24.0601 26.864C24.0715 26.7321 24.0795 26.6316 24.082 26.5763C24.0281 26.2218 24.2518 25.8778 24.6066 25.789ZM20.5716 25.81C20.9482 25.7158 21.3301 25.945 21.4244 26.3215C21.4482 26.4169 21.4647 26.482 21.479 26.5268C21.4888 26.5576 21.4974 26.5775 21.5191 26.6264C21.6767 26.9812 21.5169 27.397 21.1621 27.5547C20.8073 27.7123 20.3918 27.5524 20.2341 27.1977C20.2103 27.1442 20.1741 27.0637 20.139 26.9536C20.1083 26.8573 20.0804 26.7445 20.06 26.6628C19.9659 26.2862 20.195 25.9042 20.5716 25.81ZM24.0913 26.6247L24.0951 26.6418L24.0899 26.6154C24.0905 26.6184 24.0907 26.6217 24.0913 26.6247Z" fill="currentColor"/>
<path d="M32.4738 5.625C33.8865 5.62507 35.1621 6.4708 35.712 7.77214L39.459 15.937C39.7528 16.6324 39.2423 17.4023 38.4874 17.4023H34.453C34.0647 17.4023 33.7499 17.0875 33.7499 16.6992V13.0078C33.7499 10.7636 31.2889 10.7227 31.2889 10.0195C31.2889 9.31641 31.6405 9.49219 31.6405 8.78906V8.26172H26.7186V8.78906C26.7186 9.49219 27.0702 9.31641 27.0702 10.0195C27.0702 10.7227 24.6093 10.7636 24.6093 13.0078V16.6992C24.6093 17.0875 24.2945 17.4023 23.9061 17.4023H21.0936C20.7054 17.4023 20.3905 17.0875 20.3905 16.6992V13.0078C20.3905 10.7636 17.9296 10.7227 17.9296 10.0195C17.9296 9.31641 18.2811 9.49219 18.2811 8.78906V8.26172H13.3593V8.78906C13.3593 9.49219 13.7108 9.31641 13.7108 10.0195C13.7108 10.7227 11.2499 10.7636 11.2499 13.0078V16.6992C11.2499 17.0875 10.9351 17.4023 10.5468 17.4023H6.51238C5.75758 17.4023 5.24733 16.6323 5.54112 15.937L9.28814 7.77214C9.83809 6.47078 11.1136 5.62502 12.5264 5.625H32.4738Z" fill="currentColor"/>
<path d="M14.7147 12.6164C15.3934 12.2092 16.2423 12.2175 16.9223 12.6226C17.1312 12.7471 17.3546 12.8788 17.578 13.0078C18.4569 13.5152 18.6327 13.85 18.6327 14.2383V16.6992C18.6327 17.0875 18.3179 17.4023 17.9296 17.4023H13.7108C13.3226 17.4023 13.0077 17.0875 13.0077 16.6992V14.2383C13.0077 13.85 13.1836 13.5351 14.0624 13.0078L14.7147 12.6164Z" fill="currentColor"/>
<path d="M28.0741 12.6164C28.7528 12.2092 29.6016 12.2175 30.2816 12.6226C30.4906 12.7471 30.714 12.8788 30.9374 13.0078C31.8163 13.5152 31.9921 13.85 31.9921 14.2383V16.6992C31.9921 17.0875 31.6773 17.4023 31.2889 17.4023H27.0702C26.6819 17.4023 26.3671 17.0875 26.3671 16.6992V14.2383C26.3671 13.85 26.5429 13.5351 27.4218 13.0078L28.0741 12.6164Z" fill="currentColor"/>
</svg>
