<svg class="icon" width="45" height="45" viewBox="0 0 45 45" fill="none" xmlns="http://www.w3.org/2000/svg">
<path fill-rule="evenodd" clip-rule="evenodd" d="M38.3203 19.1602C39.097 19.1602 40.0781 20.1413 40.0781 20.918V36.9141C40.0781 37.6907 39.097 38.6719 38.3203 38.6719H6.67969C5.90304 38.6719 4.92188 37.6907 4.92188 36.9141V20.918C4.92188 20.1413 5.90304 19.1602 6.67969 19.1602H38.3203ZM19.0228 31.2891C18.2493 31.2892 17.6221 31.9187 17.6221 32.6953C17.6221 33.4719 18.2493 34.1015 19.0228 34.1016C19.7964 34.1016 20.4236 33.472 20.4236 32.6953C20.4236 31.9187 19.7964 31.2891 19.0228 31.2891ZM19.0228 27.0703C18.2493 27.0704 17.6221 27.7 17.6221 28.4766C17.6221 29.2532 18.2493 29.8827 19.0228 29.8828C19.3907 29.8828 19.7552 29.9557 20.095 30.097C20.4349 30.2384 20.744 30.4453 21.0041 30.7064C21.2642 30.9676 21.4704 31.2778 21.6111 31.619C21.7343 31.9175 21.8051 32.2349 21.8209 32.557L21.8243 32.6953C21.8243 33.4719 22.4515 34.1015 23.2251 34.1016C23.9987 34.1016 24.6259 33.472 24.6259 32.6953L24.6241 32.557C24.6072 31.8654 24.4634 31.1825 24.1994 30.5427C23.9179 29.8602 23.505 29.2402 22.9848 28.7179C22.4645 28.1956 21.847 27.7811 21.1672 27.4984C20.4875 27.2158 19.7586 27.0703 19.0228 27.0703ZM19.0228 22.8526C19.0082 22.8521 18.9936 22.8516 18.9789 22.8516C18.2053 22.8516 17.5781 23.4812 17.5781 24.2578C17.5781 25.0345 18.2053 25.6641 18.9789 25.6641C18.9936 25.6641 19.0082 25.6631 19.0228 25.6627V25.6641C19.9425 25.6641 20.8535 25.846 21.7031 26.1993C22.5528 26.5527 23.3253 27.0704 23.9756 27.7233C24.6259 28.3762 25.1415 29.1517 25.4934 30.0047C25.8454 30.8577 26.0266 31.772 26.0266 32.6953C26.0266 33.472 26.6538 34.1015 27.4274 34.1016C28.201 34.1016 28.8281 33.472 28.8281 32.6953C28.8281 31.4026 28.5745 30.1226 28.0817 28.9284C27.589 27.7341 26.8667 26.6489 25.9562 25.7348C25.0457 24.8207 23.9646 24.0957 22.775 23.601C21.5854 23.1064 20.3104 22.8516 19.0228 22.8516V22.8526Z" fill="currentColor"/>
<path d="M32.4739 5.97656C33.8866 5.97668 35.1622 6.82239 35.7121 8.1237L39.4591 16.2886C39.7529 16.9839 39.2423 17.7538 38.4875 17.7539H34.4531C34.0649 17.7538 33.75 17.4391 33.75 17.0508V13.3594C33.75 11.1152 31.2891 11.0742 31.2891 10.3711C31.2891 9.66797 31.6406 9.84375 31.6406 9.14062V8.61328H26.7188V9.14062C26.7188 9.84375 27.0703 9.66797 27.0703 10.3711C27.0703 11.0742 24.6094 11.1152 24.6094 13.3594V17.0508C24.6094 17.4391 24.2945 17.7538 23.9062 17.7539H21.0938C20.7055 17.7538 20.3906 17.4391 20.3906 17.0508V13.3594C20.3906 11.1152 17.9297 11.0742 17.9297 10.3711C17.9297 9.66797 18.2812 9.84375 18.2812 9.14062V8.61328H13.3594V9.14062C13.3594 9.84375 13.7109 9.66797 13.7109 10.3711C13.7109 11.0742 11.25 11.1152 11.25 13.3594V17.0508C11.25 17.4391 10.9351 17.7538 10.5469 17.7539H6.51249C5.75769 17.7538 5.24744 16.9839 5.54123 16.2886L9.28825 8.1237C9.83821 6.82237 11.1137 5.97658 12.5265 5.97656H32.4739Z" fill="currentColor"/>
<path d="M14.7148 12.968C15.3935 12.5608 16.2424 12.5691 16.9224 12.9742C17.1313 13.0986 17.3547 13.2304 17.5781 13.3594C18.457 13.8668 18.6328 14.2015 18.6328 14.5898V17.0508C18.6328 17.4391 18.318 17.7538 17.9297 17.7539H13.7109C13.3227 17.7538 13.0078 17.4391 13.0078 17.0508V14.5898C13.0078 14.2015 13.1837 13.8867 14.0625 13.3594L14.7148 12.968Z" fill="currentColor"/>
<path d="M28.0742 12.968C28.7529 12.5608 29.6018 12.5691 30.2818 12.9742C30.4907 13.0986 30.7141 13.2304 30.9375 13.3594C31.8163 13.8668 31.9922 14.2015 31.9922 14.5898V17.0508C31.9922 17.4391 31.6773 17.7538 31.2891 17.7539H27.0703C26.682 17.7538 26.3672 17.4391 26.3672 17.0508V14.5898C26.3672 14.2015 26.543 13.8867 27.4219 13.3594L28.0742 12.968Z" fill="currentColor"/>
</svg>
