<svg class="icon" width="45" height="45" viewBox="0 0 45 45" fill="none" xmlns="http://www.w3.org/2000/svg">
<path d="M5.52441 37.1094C6.63373 37.1095 7.53284 38.0103 7.53284 39.1213C7.53277 40.2322 6.63368 41.1327 5.52441 41.1328C4.41506 41.1328 3.5157 40.2323 3.51562 39.1213C3.51562 38.0102 4.41501 37.1094 5.52441 37.1094Z" fill="currentColor"/>
<path d="M19.3397 19.5162C19.3397 18.9643 19.9699 18.5914 20.4916 18.7715C21.0388 18.9605 21.7419 19.1282 22.512 19.1282C23.2821 19.1282 23.9849 18.9605 24.5321 18.7715C25.0538 18.5914 25.684 18.9643 25.684 19.5162V27.6323C25.684 27.9687 25.4483 28.2679 25.1261 28.3646C24.5303 28.5435 23.6651 28.7962 22.512 28.7962C21.3589 28.7962 20.4938 28.5435 19.898 28.3646C19.5757 28.2679 19.3397 27.9688 19.3397 27.6323V19.5162Z" fill="currentColor"/>
<path d="M23.5712 14.7337C23.9595 14.7337 24.3136 15.0505 24.4861 15.3984C24.6208 15.6698 24.8036 15.9656 24.9857 16.2374C25.3368 16.7617 25.1942 17.4625 24.586 17.6307C24.0671 17.7741 23.3709 17.8977 22.512 17.8978C21.653 17.8978 20.9566 17.7741 20.4377 17.6307C19.8295 17.4624 19.6869 16.7617 20.038 16.2374C20.2201 15.9656 20.4029 15.6698 20.5376 15.3984C20.7101 15.0505 21.0642 14.7337 21.4525 14.7337H23.5712Z" fill="currentColor"/>
<path fill-rule="evenodd" clip-rule="evenodd" d="M28.55 4.92188C33.1568 4.92196 37.0813 8.77256 36.8863 13.3549C36.8736 13.6519 37.0299 13.933 37.2897 14.0776C39.7961 15.4726 41.4844 18.092 41.4844 21.0938C41.4844 24.0954 39.7959 26.7142 37.2897 28.1092C37.0299 28.2538 36.8736 28.5353 36.8863 28.8322C37.0815 33.4147 33.1569 37.2655 28.55 37.2656C26.4305 37.2656 24.4954 36.4999 23.0236 35.2383C22.7247 34.9821 22.2753 34.9821 21.9764 35.2383C20.5046 36.4999 18.5696 37.2656 16.45 37.2656C15.1578 37.2656 13.9345 36.9807 12.8427 36.4725C12.5464 36.3347 12.195 36.3998 11.937 36.6003C11.4016 37.0163 10.7225 37.2656 9.9828 37.2656C8.25455 37.2656 6.85341 35.908 6.85341 34.2334C6.85341 33.2933 7.29506 32.4532 7.98809 31.8971C8.25304 31.6845 8.39878 31.3401 8.32008 31.0096C8.15057 30.2978 8.08117 29.5628 8.11306 28.8319C8.12602 28.5349 7.96973 28.2538 7.71 28.1092C5.20382 26.7142 3.51564 24.0953 3.51562 21.0938C3.51562 18.0921 5.20372 15.4726 7.71 14.0776C7.96968 13.933 8.1257 13.6519 8.11306 13.3549C7.91805 8.77254 11.8435 4.92189 16.45 4.92188C18.5695 4.92188 20.5046 5.68739 21.9764 6.94885C22.2753 7.20504 22.7247 7.20504 23.0236 6.94885C24.4954 5.68742 26.4306 4.92188 28.55 4.92188ZM19.246 11.6016C19.0518 11.6016 18.8944 11.759 18.8944 11.9531V12.7641C18.8944 12.9558 19.3768 12.9559 19.3768 13.3395C19.3768 13.723 19.3373 14.3595 18.6534 15.6284C17.9694 16.8974 17.9297 17.9297 17.9297 20.4226V28.0811C17.9297 28.4645 18.1589 29.0518 18.4121 29.2435C18.6652 29.4353 19.6182 30.2024 22.512 30.2024C25.4058 30.2024 26.3582 29.4353 26.6116 29.2435C26.865 29.0518 27.094 28.4646 27.094 28.0811V20.4226C27.094 17.9297 27.0543 16.8974 26.3703 15.6284C25.6864 14.3596 25.6472 13.723 25.6472 13.3395C25.6472 12.9559 26.1293 12.9558 26.1293 12.7641V11.9531C26.1293 11.759 25.9719 11.6016 25.7777 11.6016H19.246Z" fill="currentColor"/>
</svg>
