<svg class="icon" width="45" height="45" viewBox="0 0 45 45" fill="none" xmlns="http://www.w3.org/2000/svg">
<path fill-rule="evenodd" clip-rule="evenodd" d="M38.3203 19.5117C39.097 19.5117 40.0781 20.4929 40.0781 21.2695V37.2656C40.0781 38.0423 39.097 39.0234 38.3203 39.0234H6.67969C5.90304 39.0234 4.92188 38.0423 4.92188 37.2656V21.2695C4.92188 20.4929 5.90304 19.5117 6.67969 19.5117H38.3203ZM19.0228 31.6406C18.2493 31.6407 17.6221 32.2703 17.6221 33.0469C17.6221 33.8235 18.2493 34.453 19.0228 34.4531C19.7964 34.4531 20.4236 33.8235 20.4236 33.0469C20.4236 32.2702 19.7964 31.6406 19.0228 31.6406ZM19.0228 27.4219C18.2493 27.422 17.6221 28.0515 17.6221 28.8281C17.6221 29.6047 18.2493 30.2343 19.0228 30.2344C19.3907 30.2344 19.7552 30.3073 20.095 30.4486C20.4349 30.5899 20.744 30.7969 21.0041 31.058C21.2642 31.3191 21.4704 31.6294 21.6111 31.9706C21.7343 32.2691 21.8051 32.5865 21.8209 32.9085L21.8243 33.0469C21.8243 33.8235 22.4515 34.4531 23.2251 34.4531C23.9987 34.4531 24.6259 33.8235 24.6259 33.0469L24.6241 32.9085C24.6072 32.217 24.4634 31.5341 24.1994 30.8942C23.9179 30.2118 23.505 29.5918 22.9848 29.0695C22.4645 28.5472 21.847 28.1327 21.1672 27.85C20.4875 27.5673 19.7586 27.4219 19.0228 27.4219ZM19.0228 23.2042C19.0082 23.2037 18.9936 23.2031 18.9789 23.2031C18.2053 23.2031 17.5781 23.8327 17.5781 24.6094C17.5781 25.386 18.2053 26.0156 18.9789 26.0156C18.9936 26.0156 19.0082 26.0147 19.0228 26.0143V26.0156C19.9425 26.0156 20.8535 26.1975 21.7031 26.5509C22.5528 26.9042 23.3253 27.422 23.9756 28.0749C24.6259 28.7278 25.1415 29.5032 25.4934 30.3563C25.8454 31.2093 26.0266 32.1236 26.0266 33.0469C26.0266 33.8235 26.6538 34.4531 27.4274 34.4531C28.201 34.4531 28.8281 33.8235 28.8281 33.0469C28.8281 31.7542 28.5745 30.4742 28.0817 29.2799C27.589 28.0857 26.8667 27.0004 25.9562 26.0863C25.0457 25.1723 23.9646 24.4473 22.775 23.9526C21.5854 23.458 20.3104 23.2031 19.0228 23.2031V23.2042Z" fill="currentColor"/>
<path d="M32.4739 6.32812C33.8866 6.32824 35.1622 7.17396 35.7121 8.47527L39.4591 16.6402C39.7529 17.3355 39.2423 18.1054 38.4875 18.1055H34.4531C34.0649 18.1054 33.75 17.7906 33.75 17.4023V13.7109C33.75 11.4667 31.2891 11.4258 31.2891 10.7227C31.2891 10.0195 31.6406 10.1953 31.6406 9.49219V8.96484H26.7188V9.49219C26.7188 10.1953 27.0703 10.0195 27.0703 10.7227C27.0703 11.4258 24.6094 11.4667 24.6094 13.7109V17.4023C24.6094 17.7906 24.2945 18.1054 23.9062 18.1055H21.0938C20.7055 18.1054 20.3906 17.7906 20.3906 17.4023V13.7109C20.3906 11.4667 17.9297 11.4258 17.9297 10.7227C17.9297 10.0195 18.2812 10.1953 18.2812 9.49219V8.96484H13.3594V9.49219C13.3594 10.1953 13.7109 10.0195 13.7109 10.7227C13.7109 11.4258 11.25 11.4667 11.25 13.7109V17.4023C11.25 17.7906 10.9351 18.1054 10.5469 18.1055H6.51249C5.75769 18.1054 5.24744 17.3355 5.54123 16.6402L9.28825 8.47527C9.83821 7.17393 11.1137 6.32815 12.5265 6.32812H32.4739Z" fill="currentColor"/>
<path d="M14.7148 13.3195C15.3935 12.9124 16.2424 12.9207 16.9224 13.3257C17.1313 13.4502 17.3547 13.582 17.5781 13.7109C18.457 14.2183 18.6328 14.5531 18.6328 14.9414V17.4023C18.6328 17.7906 18.318 18.1054 17.9297 18.1055H13.7109C13.3227 18.1054 13.0078 17.7906 13.0078 17.4023V14.9414C13.0078 14.5531 13.1837 14.2383 14.0625 13.7109L14.7148 13.3195Z" fill="currentColor"/>
<path d="M28.0742 13.3195C28.7529 12.9124 29.6018 12.9207 30.2818 13.3257C30.4907 13.4502 30.7141 13.582 30.9375 13.7109C31.8163 14.2183 31.9922 14.5531 31.9922 14.9414V17.4023C31.9922 17.7906 31.6773 18.1054 31.2891 18.1055H27.0703C26.682 18.1054 26.3672 17.7906 26.3672 17.4023V14.9414C26.3672 14.5531 26.543 14.2383 27.4219 13.7109L28.0742 13.3195Z" fill="currentColor"/>
</svg>
