<svg class="icon" width="45" height="45" viewBox="0 0 45 45" fill="none" xmlns="http://www.w3.org/2000/svg">
<path d="M5.52441 36.4063C6.63373 36.4064 7.53284 37.3072 7.53284 38.4182C7.53277 39.5291 6.63368 40.4296 5.52441 40.4297C4.41506 40.4297 3.5157 39.5291 3.51562 38.4182C3.51562 37.3071 4.41501 36.4063 5.52441 36.4063Z" fill="currentColor" fill-opacity="0.65"/>
<path d="M19.3397 18.8131C19.3397 18.2612 19.9699 17.8882 20.4916 18.0684C21.0388 18.2574 21.7419 18.4251 22.512 18.4251C23.2821 18.4251 23.9849 18.2574 24.5321 18.0684C25.0538 17.8882 25.684 18.2612 25.684 18.8131V26.9292C25.684 27.2656 25.4483 27.5647 25.1261 27.6615C24.5303 27.8404 23.6651 28.093 22.512 28.0931C21.3589 28.0931 20.4938 27.8404 19.898 27.6615C19.5757 27.5648 19.3397 27.2657 19.3397 26.9292V18.8131Z" fill="currentColor" fill-opacity="0.65"/>
<path d="M23.5712 14.0306C23.9595 14.0306 24.3136 14.3474 24.4861 14.6952C24.6208 14.9667 24.8036 15.2625 24.9857 15.5343C25.3368 16.0586 25.1942 16.7593 24.586 16.9275C24.0671 17.071 23.3709 17.1946 22.512 17.1946C21.653 17.1946 20.9566 17.071 20.4377 16.9275C19.8295 16.7593 19.6869 16.0586 20.038 15.5343C20.2201 15.2625 20.4029 14.9667 20.5376 14.6952C20.7101 14.3474 21.0642 14.0306 21.4525 14.0306H23.5712Z" fill="currentColor" fill-opacity="0.65"/>
<path fill-rule="evenodd" clip-rule="evenodd" d="M28.55 4.21875C33.1568 4.21884 37.0813 8.06944 36.8863 12.6518C36.8736 12.9488 37.0299 13.2299 37.2897 13.3745C39.7961 14.7695 41.4844 17.3889 41.4844 20.3906C41.4844 23.3923 39.7959 26.0111 37.2897 27.4061C37.0299 27.5506 36.8736 27.8321 36.8863 28.1291C37.0815 32.7116 33.1569 36.5624 28.55 36.5625C26.4305 36.5625 24.4954 35.7967 23.0236 34.5352C22.7247 34.279 22.2753 34.279 21.9764 34.5352C20.5046 35.7968 18.5696 36.5625 16.45 36.5625C15.1578 36.5625 13.9345 36.2775 12.8427 35.7694C12.5464 35.6315 12.195 35.6966 11.937 35.8971C11.4016 36.3132 10.7225 36.5625 9.9828 36.5625C8.25455 36.5625 6.85341 35.2049 6.85341 33.5303C6.85341 32.5902 7.29506 31.7501 7.98809 31.194C8.25304 30.9814 8.39878 30.6369 8.32008 30.3065C8.15057 29.5947 8.08117 28.8597 8.11306 28.1288C8.12602 27.8318 7.96973 27.5507 7.71 27.4061C5.20382 26.0111 3.51564 23.3922 3.51562 20.3906C3.51562 17.389 5.20372 14.7695 7.71 13.3745C7.96968 13.2299 8.1257 12.9487 8.11306 12.6518C7.91805 8.06941 11.8435 4.21877 16.45 4.21875C18.5695 4.21875 20.5046 4.98426 21.9764 6.24573C22.2753 6.50191 22.7247 6.50191 23.0236 6.24573C24.4954 4.9843 26.4306 4.21875 28.55 4.21875ZM19.246 10.8984C19.0518 10.8985 18.8944 11.0558 18.8944 11.25V12.0609C18.8944 12.2527 19.3768 12.2528 19.3768 12.6363C19.3768 13.0198 19.3373 13.6564 18.6534 14.9253C17.9694 16.1943 17.9297 17.2266 17.9297 19.7194V27.3779C17.9297 27.7614 18.1589 28.3486 18.4121 28.5404C18.6652 28.7322 19.6182 29.4993 22.512 29.4993C25.4058 29.4993 26.3582 28.7322 26.6116 28.5404C26.865 28.3486 27.094 27.7614 27.094 27.3779V19.7194C27.094 17.2266 27.0543 16.1943 26.3703 14.9253C25.6864 13.6564 25.6472 13.0198 25.6472 12.6363C25.6472 12.2528 26.1293 12.2527 26.1293 12.0609V11.25C26.1293 11.0558 25.9719 10.8984 25.7777 10.8984H19.246Z" fill="currentColor" fill-opacity="0.65"/>
</svg>
