<svg class="icon" width="45" height="45" viewBox="0 0 45 45" fill="none" xmlns="http://www.w3.org/2000/svg">
<path d="M5.51953 36.4062C6.62583 36.4065 7.52244 37.3071 7.52246 38.418C7.52246 39.5289 6.62584 40.4294 5.51953 40.4297C4.41301 40.4297 3.51562 39.529 3.51562 38.418C3.51565 37.3069 4.41302 36.4062 5.51953 36.4062ZM28.4854 4.21875C33.082 4.21885 36.8086 7.839 36.8086 12.3047C36.8086 12.5889 36.7931 12.8698 36.7637 13.1465C39.5032 14.47 41.3857 17.2165 41.3857 20.3906C41.3857 23.5647 39.5033 26.3113 36.7637 27.6348C36.7931 27.9114 36.8086 28.1923 36.8086 28.4766C36.8085 32.9422 33.082 36.5624 28.4854 36.5625C26.1102 36.5625 23.9676 35.5952 22.4512 34.0449C20.9348 35.5951 18.792 36.5624 16.417 36.5625C14.9286 36.5625 13.5312 36.1825 12.3223 35.5176C11.75 36.1573 10.9067 36.5625 9.96582 36.5625C8.24221 36.5623 6.84479 35.2048 6.84473 33.5303C6.84473 32.3845 7.49955 31.3868 8.46484 30.8711C8.22366 30.1144 8.09376 29.3103 8.09375 28.4766C8.09375 28.1923 8.10824 27.9114 8.1377 27.6348C5.39827 26.3113 3.51568 23.5646 3.51562 20.3906C3.51562 17.2166 5.39828 14.47 8.1377 13.1465C8.10824 12.8698 8.09376 12.5889 8.09375 12.3047C8.09375 7.83894 11.8202 4.21875 16.417 4.21875C18.7919 4.21887 20.9348 5.18525 22.4512 6.73535C23.9676 5.1852 26.1103 4.21875 28.4854 4.21875ZM19.8916 10.9307C19.3395 10.9309 18.8916 11.3785 18.8916 11.9307V12.0928C18.8916 12.2845 19.3728 12.2847 19.373 12.668C19.373 13.0515 19.3335 13.6882 18.6514 14.957C17.9692 16.226 17.9297 17.2584 17.9297 19.751V27.4102C17.9298 27.7937 18.1587 28.3805 18.4111 28.5723C18.6638 28.7642 19.6142 29.5312 22.5 29.5312C25.3859 29.5313 26.336 28.7642 26.5889 28.5723C26.8416 28.3805 27.0702 27.7937 27.0703 27.4102V19.751C27.0703 17.2584 27.0308 16.226 26.3486 14.957C25.6666 13.6882 25.627 13.0515 25.627 12.668C25.6272 12.2847 26.1084 12.2845 26.1084 12.0928V11.9307C26.1084 11.3785 25.6605 10.9309 25.1084 10.9307H19.8916ZM23.9492 18.2695C24.7321 18.0717 25.6641 18.6261 25.6641 19.4336V25.8936C25.6641 26.8502 25.0104 27.7717 24.0732 27.9639C23.6258 28.0556 23.1023 28.125 22.5 28.125C21.8976 28.125 21.3742 28.0556 20.9268 27.9639C19.9896 27.7717 19.336 26.8502 19.3359 25.8936V19.4336C19.3359 18.6261 20.2679 18.0717 21.0508 18.2695C21.4841 18.379 21.9764 18.457 22.5 18.457C23.0236 18.457 23.5159 18.379 23.9492 18.2695ZM23.1904 14.0625C23.78 14.0627 24.3954 14.6377 24.6982 15.1436C25.1896 15.9643 24.9123 16.9233 23.9717 17.0967C23.5537 17.1736 23.0616 17.2266 22.5 17.2266C21.9384 17.2266 21.4463 17.1736 21.0283 17.0967C20.0877 16.9233 19.8104 15.9643 20.3018 15.1436C20.6046 14.6377 21.22 14.0627 21.8096 14.0625H23.1904Z" fill="currentColor"/>
</svg>
