<svg class="icon" width="45" height="45" viewBox="0 0 45 45" fill="none" xmlns="http://www.w3.org/2000/svg">
<path d="M11.9585 24.0515C12.078 24.0292 12.2638 24.0374 12.619 24.0638L13.3122 24.115L13.293 24.3769C13.2803 24.5464 13.1909 24.8339 13.1083 25.0155C13.039 25.1484 12.9867 25.2181 12.9332 25.2552C12.883 25.2898 12.8226 25.302 12.7193 25.2943C12.6362 25.2882 12.5081 25.2974 12.3729 25.3166C12.2372 25.3359 12.0888 25.3661 11.9616 25.4031C11.8408 25.4336 11.7159 25.4563 11.6141 25.467C11.5632 25.4723 11.5194 25.4745 11.4854 25.4735C11.4685 25.473 11.4549 25.4718 11.4449 25.4701C11.4361 25.4686 11.4319 25.4669 11.4311 25.4667L11.4287 25.4656C11.4326 25.4675 11.4247 25.466 11.4157 25.4382C11.4072 25.4122 11.4016 25.3737 11.3999 25.3238C11.3965 25.2247 11.4098 25.0931 11.437 24.9517C11.4641 24.8107 11.5046 24.6629 11.5533 24.5318C11.6026 24.3996 11.6589 24.2889 11.7157 24.219C11.7594 24.1653 11.793 24.1293 11.8287 24.1037C11.8629 24.0791 11.902 24.062 11.9585 24.0515Z" fill="currentColor"/>
<path d="M15.2774 21.94C15.3526 21.9349 15.4536 21.9728 15.5891 22.0715L15.5908 22.0726C15.6568 22.118 15.7773 22.1697 15.9111 22.2174C16.0474 22.2661 16.2054 22.3135 16.3513 22.35L16.3537 22.3507C16.4807 22.3778 16.5743 22.3989 16.6441 22.42C16.7146 22.4413 16.7537 22.4608 16.777 22.4804C16.7972 22.4975 16.8098 22.5181 16.8179 22.5542C16.8267 22.5941 16.8291 22.6476 16.8309 22.7273C16.8369 22.9841 16.7955 23.0996 16.6977 23.1599C16.6445 23.1926 16.5664 23.2142 16.4512 23.2234C16.3365 23.2324 16.1906 23.2285 16.0059 23.2148L15.3529 23.1664C15.3321 23.1649 15.3117 23.1727 15.2973 23.1877C15.2828 23.2027 15.2754 23.2236 15.2777 23.2443L15.3141 23.5701L15.3144 23.5715C15.3435 23.7982 15.3925 23.967 15.495 24.0813C15.6003 24.1986 15.7505 24.2462 15.9486 24.2609C16.0702 24.27 16.1382 24.2903 16.1855 24.3248C16.2323 24.359 16.2691 24.415 16.3101 24.5205L16.3104 24.5215C16.3373 24.5869 16.3501 24.6532 16.3516 24.7052C16.3524 24.7311 16.3502 24.7516 16.3468 24.7656C16.346 24.7691 16.3448 24.7718 16.3441 24.7738C16.3426 24.7743 16.3409 24.7753 16.3389 24.7759C16.3258 24.7796 16.3068 24.7836 16.2819 24.7879C16.2322 24.7965 16.1637 24.805 16.0814 24.8126C15.9172 24.8278 15.7011 24.8389 15.4755 24.8421L14.7129 24.8408L14.8008 23.6604C14.8312 23.2521 14.8677 22.9222 14.9138 22.6634C14.9601 22.4034 15.0151 22.2206 15.0796 22.1028C15.1433 21.9865 15.2094 21.9447 15.2774 21.94Z" fill="currentColor"/>
<path d="M34.1538 27.3402C34.2826 27.3276 34.3505 27.3351 34.3958 27.3587C34.4389 27.3812 34.4748 27.4257 34.5197 27.5256L34.5201 27.5262C34.6118 27.7258 34.6428 27.8586 34.6289 27.9527C34.6162 28.0381 34.564 28.1049 34.4435 28.1672L34.4425 28.1676C34.2669 28.2611 34.126 28.3022 34.0044 28.2984C33.8853 28.2946 33.7757 28.2476 33.6628 28.1473C33.5525 28.0493 33.4906 27.953 33.4657 27.8668C33.4414 27.7822 33.4518 27.7035 33.4918 27.6337C33.5742 27.4902 33.7947 27.3665 34.152 27.3405L34.1538 27.3402Z" fill="currentColor"/>
<path d="M28.0897 27.2011C28.1244 27.214 28.1731 27.2584 28.2105 27.3755C28.2456 27.5046 28.2584 27.7223 28.2387 27.8545C28.2093 28.0097 28.115 28.06 28.0375 28.0532C27.9558 28.0459 27.8568 27.9726 27.8294 27.8074L27.8291 27.8061L27.8215 27.7576C27.7914 27.5186 27.8727 27.3239 27.9664 27.2399C28.0154 27.196 28.058 27.1895 28.0897 27.2011Z" fill="currentColor"/>
<path d="M33.7548 25.4663C33.8894 25.4634 33.9646 25.4764 34.0082 25.5006C34.0445 25.5209 34.0677 25.5542 34.0806 25.627L34.081 25.629C34.1018 25.729 34.0599 25.8195 33.9543 25.8893C33.8462 25.9606 33.6752 26.0055 33.4623 25.9988C33.3022 25.9939 33.2156 25.9514 33.176 25.9071C33.14 25.8668 33.1324 25.8125 33.1598 25.7489C33.2175 25.6156 33.4284 25.4617 33.7524 25.4663H33.7548Z" fill="currentColor"/>
<path d="M33.8733 20.5132C33.89 20.5476 33.9046 20.6005 33.9083 20.6632C33.9118 20.7226 33.9061 20.7678 33.8966 20.7992C33.8868 20.8315 33.8749 20.8432 33.8702 20.8462C33.8688 20.8471 33.866 20.8495 33.8554 20.8448C33.8418 20.8388 33.8196 20.8221 33.7936 20.7848L33.7926 20.7834L33.7819 20.7655C33.7598 20.721 33.7571 20.6556 33.7768 20.5925C33.7876 20.5578 33.8037 20.5289 33.8214 20.5098C33.8341 20.4961 33.8463 20.49 33.8564 20.4868C33.8608 20.4921 33.8671 20.5005 33.8733 20.5132Z" fill="currentColor"/>
<path fill-rule="evenodd" clip-rule="evenodd" d="M40.7358 5.97656C41.3182 5.97664 41.7905 6.44881 41.7905 7.03125V8.78906C41.7905 9.3715 41.3182 9.84367 40.7358 9.84375H39.6811C39.2928 9.84382 38.978 10.1586 38.978 10.5469V11.25C38.978 25.188 41.2403 33.5761 42.3803 36.741C42.6459 37.4786 42.0982 38.3203 41.3143 38.3203H26.986C26.1065 38.3203 25.2376 38.0129 24.6363 37.371C23.1969 35.8341 22.4545 31.9921 22.4545 28.4766C22.4545 31.9922 21.7118 35.8342 20.2724 37.371C19.6711 38.0129 18.8025 38.3203 17.923 38.3203H3.59442C2.81054 38.3201 2.26313 37.4786 2.52875 36.741C3.66877 33.5761 5.93108 25.1881 5.93108 11.25V10.5469C5.93108 10.1586 5.61621 9.84383 5.22795 9.84375H4.17327C3.59083 9.84368 3.11858 9.37151 3.11858 8.78906V7.03125C3.11858 6.4488 3.59083 5.97663 4.17327 5.97656H40.7358ZM10.7537 16.6371C10.7024 16.6422 10.6586 16.6641 10.6253 16.7081C10.5958 16.7472 10.5777 16.8 10.5632 16.8609C10.5484 16.9232 10.5352 17.0034 10.5203 17.103C10.471 17.4294 10.3942 17.6291 10.2745 17.7488C10.172 17.8511 10.0286 17.9043 9.81338 17.9156L9.71657 17.918C9.61057 17.9177 9.52478 17.919 9.45598 17.9252C9.38778 17.9314 9.32969 17.9427 9.28226 17.9657C9.17722 18.0169 9.14731 18.1136 9.12365 18.228L9.1233 18.2298C9.09198 18.4014 9.18517 18.6003 9.3444 18.7935C9.4865 18.9659 9.69103 19.1457 9.94316 19.3164L10.0541 19.3892C10.166 19.4611 10.2278 19.5196 10.2618 19.5797C10.2947 19.6381 10.3062 19.7066 10.2985 19.8097C10.2861 19.9759 10.2966 20.2539 10.3143 20.4294L10.3146 20.4325C10.3345 20.5692 10.3283 20.6267 10.2913 20.6776C10.2707 20.7059 10.2375 20.7364 10.1821 20.7741C10.1268 20.8117 10.0534 20.8537 9.95621 20.907L9.95483 20.908C9.69993 21.0552 9.53062 21.2304 9.47555 21.4227C9.41888 21.6207 9.48863 21.8169 9.66575 21.9881C9.72192 22.0449 9.80541 22.0898 9.90265 22.1261C10.0012 22.1629 10.1203 22.1929 10.2525 22.2168C10.517 22.2644 10.8421 22.2885 11.1812 22.2895C11.8572 22.2916 12.6049 22.2025 13.0554 22.0176L13.0561 22.0173C13.24 21.9394 13.3462 21.9052 13.4114 21.9006C13.4414 21.8985 13.4566 21.9034 13.465 21.9081C13.4734 21.913 13.4835 21.9224 13.4952 21.9442L13.4959 21.9455C13.5104 21.9714 13.5242 22.0249 13.5319 22.1052C13.5393 22.1827 13.5403 22.2769 13.5353 22.3771C13.5254 22.5773 13.4917 22.7942 13.4426 22.9439C13.4229 22.9975 13.4102 23.0301 13.398 23.0507C13.3943 23.057 13.3911 23.0599 13.3894 23.0617C13.3874 23.0615 13.384 23.0615 13.3795 23.0603C13.3697 23.0576 13.3559 23.0525 13.3372 23.0435C13.2994 23.0251 13.2491 22.9952 13.1786 22.9518L13.1783 22.9515L13.0753 22.8938C12.8285 22.7654 12.5367 22.6829 12.2486 22.6524C11.961 22.622 11.6714 22.6426 11.4294 22.7249L11.3288 22.764C11.0985 22.8631 10.7415 22.9242 10.5124 22.9072C10.3884 22.898 10.2657 22.8995 10.1667 22.9079C10.1172 22.9121 10.0723 22.918 10.0355 22.9257C10.0017 22.9329 9.96475 22.9435 9.93904 22.9611L9.93801 22.9618C9.93109 22.9667 9.90685 22.9786 9.85939 22.9954C9.81476 23.0113 9.75607 23.0291 9.68738 23.0483C9.55005 23.0866 9.37393 23.1289 9.19094 23.1654C8.79919 23.2464 8.55565 23.3068 8.40885 23.3875C8.33269 23.4294 8.27777 23.4791 8.24165 23.5434C8.20624 23.6064 8.19247 23.6773 8.18672 23.7545C8.17004 23.9787 8.31344 24.1584 8.53004 24.2729C8.747 24.3876 9.04972 24.4454 9.38801 24.4291L9.90951 24.4017L10.2944 24.8789L10.2947 24.8796C10.4098 25.0185 10.5127 25.1514 10.5859 25.2538C10.6224 25.305 10.651 25.3478 10.67 25.3794C10.6789 25.3944 10.6852 25.4059 10.6889 25.4138C10.6856 25.4279 10.677 25.447 10.6573 25.4694C10.634 25.4959 10.5996 25.5228 10.5574 25.5466C10.4721 25.5947 10.3647 25.624 10.2707 25.617C10.087 25.6034 9.88787 25.6455 9.73202 25.7159C9.65403 25.7512 9.58368 25.7949 9.53083 25.8453C9.47874 25.8951 9.43735 25.9576 9.43195 26.0294C9.42875 26.0725 9.44599 26.1164 9.46628 26.1533C9.48776 26.1923 9.51856 26.2337 9.5552 26.2748C9.62822 26.3567 9.73022 26.4436 9.84566 26.5155C10.0269 26.637 10.1549 26.7097 10.372 26.7527C10.5831 26.7946 10.8794 26.8084 11.3968 26.8217C11.71 26.8299 12.0239 26.8332 12.2802 26.8307C12.5335 26.8282 12.7373 26.8202 12.826 26.8049H12.8267C12.8849 26.7943 12.9275 26.7885 12.9586 26.7874C12.9863 26.7865 12.9981 26.7897 13.0018 26.7912C13.0023 26.7922 13.0035 26.7949 13.0046 26.7998C13.0078 26.8148 13.0087 26.8396 13.0056 26.8811C13.0007 26.9471 12.987 26.9944 12.9637 27.0301C12.941 27.0651 12.905 27.0955 12.8446 27.1208C12.7183 27.1737 12.5026 27.1979 12.1373 27.2011H12.1353C11.862 27.2111 11.4339 27.2267 11.0607 27.2464L10.7136 27.2674C10.2966 27.2871 9.67078 27.321 9.32896 27.3257H9.32793C9.18124 27.33 9.06582 27.3349 8.97568 27.3433C8.8866 27.3515 8.81603 27.3634 8.76213 27.3848C8.70506 27.4074 8.66362 27.4417 8.63819 27.4923C8.61508 27.5382 8.60849 27.592 8.60454 27.645C8.57702 28.0151 8.8978 28.3382 9.36981 28.5075C9.61703 28.5969 9.77863 28.6468 9.9974 28.6565C10.2124 28.6659 10.4813 28.6363 10.9439 28.5751L10.9436 28.5748C11.369 28.5261 11.9588 28.5112 12.2499 28.5524H12.2506C12.3785 28.5695 12.4737 28.5836 12.5479 28.6005C12.6217 28.6173 12.6704 28.6361 12.7073 28.6606C12.7805 28.7094 12.8498 28.6753 12.9332 28.8724C13.0546 29.1559 13.2562 29.393 13.4814 29.5453C13.7055 29.6968 13.9622 29.7701 14.1901 29.707L14.1897 29.7067C14.2581 29.6894 14.3192 29.6722 14.3689 29.6445C14.4227 29.6146 14.4621 29.5735 14.4901 29.5137C14.5166 29.4573 14.5324 29.3858 14.5444 29.2961C14.5565 29.2055 14.5657 29.0895 14.5766 28.9418C14.5938 28.7114 14.5899 28.6678 14.6202 28.5614C14.6511 28.4532 14.686 28.4166 14.7143 28.4038L14.716 28.4031C14.716 28.4031 14.717 28.4028 14.7181 28.4024C14.7197 28.4019 14.7223 28.4011 14.7253 28.4003C14.7315 28.3989 14.7398 28.3972 14.7504 28.3959C14.7718 28.3932 14.8001 28.3918 14.8345 28.3914C14.9032 28.3906 15.6959 28.3945 15.8002 28.4027C16.009 28.4192 16.2731 28.4518 16.5398 28.493C16.8063 28.5342 17.0748 28.5838 17.2927 28.6335C17.4015 28.6583 17.4971 28.6831 17.5732 28.7066C17.6509 28.7306 17.7024 28.7518 17.7277 28.7677C17.7896 28.8077 17.886 28.8443 17.9869 28.8724C18.0894 28.901 18.2039 28.9229 18.3048 28.9304C18.4419 28.9406 18.5491 28.9364 18.6371 28.8958C18.728 28.8538 18.7869 28.7784 18.8421 28.6767C18.895 28.5814 18.9357 28.4999 18.9598 28.4275C18.9842 28.3542 18.9933 28.2855 18.9784 28.2177C18.9634 28.15 18.9261 28.0914 18.8737 28.035C18.8219 27.9795 18.752 27.9222 18.6656 27.8576C18.2262 27.522 17.9223 27.3136 17.669 27.197C17.4112 27.0784 17.2049 27.0545 16.9631 27.0844C16.733 27.1068 16.3249 27.1165 16.0759 27.1081C15.8784 27.0934 15.0687 27.0744 15.0082 27.0452C14.9808 27.032 14.9652 27.0179 14.955 27.0023C14.9441 26.9857 14.9358 26.9624 14.9296 26.9265L14.9292 26.9254L14.9272 26.889C14.9297 26.8532 14.9469 26.8186 14.9811 26.785C15.0286 26.7383 15.107 26.6957 15.2125 26.6642C15.4229 26.6013 15.7203 26.5886 16.0244 26.6504C16.2529 26.697 16.3935 26.7272 16.5504 26.6714C16.6272 26.644 16.705 26.5974 16.7983 26.5299C16.8917 26.4624 17.0049 26.3707 17.1523 26.2508L17.2879 26.1368C17.4169 26.0249 17.5251 25.9194 17.6075 25.8247C17.6623 25.7617 17.707 25.7023 17.739 25.6479C17.7703 25.5947 17.7929 25.5405 17.7967 25.4897C17.798 25.4725 17.8065 25.4425 17.8269 25.3997C17.8467 25.3581 17.8751 25.3093 17.9107 25.2565C17.9818 25.1511 18.079 25.0333 18.185 24.9283L18.1857 24.9276C18.3683 24.7418 18.4638 24.6558 18.5695 24.6145C18.6744 24.5736 18.7968 24.5737 19.0457 24.5922C19.3458 24.6145 19.5611 24.6018 19.7045 24.5129C19.8563 24.4187 19.9091 24.2529 19.9256 24.0316C19.9309 23.96 19.9323 23.8934 19.9157 23.829C19.8984 23.7625 19.8637 23.7036 19.8065 23.6433C19.6969 23.5279 19.4927 23.3947 19.1346 23.1733C18.9237 23.037 18.7109 22.8905 18.5386 22.7637C18.3636 22.6348 18.2368 22.531 18.1918 22.4787C18.1427 22.4217 18.0852 22.3664 18.0312 22.3242C18.0042 22.3032 17.9767 22.2844 17.9508 22.2703C17.9264 22.2571 17.8967 22.2441 17.8667 22.2418C17.8519 22.2407 17.8455 22.2372 17.8437 22.236C17.8427 22.2353 17.8416 22.2345 17.8406 22.2315C17.8373 22.2212 17.8363 22.1934 17.8564 22.144C17.8955 22.0478 17.9958 21.9127 18.153 21.7773C18.2501 21.6937 18.3378 21.5912 18.4026 21.4906C18.4662 21.3921 18.5135 21.287 18.52 21.1992C18.5353 20.9929 18.3919 20.7917 18.2045 20.6526C18.0144 20.5114 17.759 20.4179 17.5148 20.4383C17.3242 20.4533 17.1511 20.4327 17.03 20.3923C16.9693 20.3721 16.9256 20.3482 16.8992 20.3251C16.8743 20.3032 16.8705 20.2877 16.8707 20.2794C16.8703 20.2828 16.8697 20.2819 16.8728 20.2753C16.8758 20.2688 16.8809 20.2597 16.8886 20.2481C16.9039 20.2251 16.9267 20.196 16.9559 20.163C17.0138 20.0974 17.0929 20.0202 17.177 19.9477C17.3206 19.8334 17.4082 19.7792 17.5007 19.7572C17.5942 19.735 17.7017 19.7432 17.8911 19.7775C18.0219 19.8025 18.1332 19.8168 18.2269 19.8145C18.321 19.8122 18.403 19.7934 18.4699 19.7479C18.6044 19.6565 18.6478 19.4791 18.6656 19.2398C18.6766 19.0916 18.6643 18.9676 18.6093 18.8385C18.5553 18.7117 18.462 18.5845 18.3209 18.4261L18.3206 18.4254L18.1716 18.2685C18.1228 18.2196 18.0757 18.1748 18.0332 18.1367C17.9909 18.0988 17.952 18.0664 17.9196 18.043C17.9035 18.0314 17.8877 18.021 17.8732 18.0131C17.8609 18.0065 17.8409 17.9966 17.819 17.9949C17.804 17.9937 17.7731 17.981 17.7301 17.9451C17.6895 17.9113 17.6461 17.8639 17.6068 17.8106C17.5676 17.7573 17.5337 17.6997 17.5107 17.6471C17.4869 17.5927 17.4779 17.5505 17.4798 17.5249V17.5225C17.4858 17.3599 17.3929 17.1848 17.2628 17.0453C17.1312 16.9043 16.95 16.7867 16.7595 16.7449C16.6804 16.7265 16.6145 16.7127 16.56 16.7064C16.5058 16.7002 16.4557 16.7005 16.4114 16.7147C16.3147 16.7457 16.2762 16.8322 16.2445 16.9275L16.2249 16.9849C16.1791 17.1321 16.1384 17.3655 16.1257 17.5356C16.1155 17.6724 16.1009 17.7747 16.0773 17.8511C16.0541 17.9264 16.0236 17.9713 15.9853 17.9997C15.9463 18.0286 15.89 18.0472 15.8026 18.0526C15.7149 18.058 15.6018 18.0497 15.4552 18.0313C15.0742 17.9828 14.8538 18.0045 14.6899 18.1343C14.6407 18.1722 14.5966 18.2062 14.5653 18.2411C14.5313 18.279 14.5086 18.3215 14.5045 18.376C14.5008 18.4262 14.5135 18.4805 14.5337 18.5415C14.5542 18.6033 14.5858 18.6809 14.6261 18.7791L14.6268 18.7804C14.7015 18.9506 14.7717 19.0704 14.8777 19.1646C14.9827 19.2577 15.1176 19.3211 15.31 19.3912C15.5037 19.467 15.6077 19.5169 15.666 19.5708C15.716 19.6171 15.7357 19.6697 15.7371 19.7757V19.7775C15.74 19.8583 15.7254 19.9281 15.6935 19.99C15.6614 20.0521 15.6096 20.1102 15.5318 20.1644L15.5307 20.1651C15.3567 20.291 15.2774 20.3239 15.1943 20.3027C15.149 20.2911 15.095 20.2617 15.0216 20.2039C14.9484 20.1462 14.861 20.0647 14.748 19.9553L14.7476 19.9549C14.4667 19.6841 14.2138 19.5298 13.9738 19.5162C13.7273 19.5023 13.517 19.6371 13.3256 19.8849L13.3245 19.8859C13.014 20.3059 12.5053 20.5297 11.9653 20.4895L11.6035 20.4627L11.6268 20.151C11.6445 19.9135 11.7037 19.7729 11.8201 19.6824C11.9415 19.588 12.1387 19.5364 12.4618 19.5152L12.4614 19.5148C12.7538 19.5014 12.9541 19.4725 13.0935 19.3912C13.2402 19.3055 13.3085 19.1693 13.3592 18.9796L13.3589 18.9792C13.3953 18.8593 13.3984 18.7577 13.3424 18.6407C13.2899 18.5311 13.1866 18.4103 13.0286 18.2431C12.8684 18.0737 12.7434 17.962 12.6118 17.8905C12.4783 17.8182 12.343 17.7896 12.1672 17.7766C11.9552 17.7608 11.7899 17.7024 11.6824 17.6186C11.5772 17.5365 11.5259 17.4298 11.5351 17.3052C11.5462 17.1564 11.4657 17.0062 11.3511 16.8908C11.2352 16.7741 11.0741 16.682 10.9034 16.6525C10.85 16.6412 10.7987 16.6327 10.7537 16.6371ZM32.2425 17.2266C32.1383 17.2145 32.0552 17.2484 31.9675 17.3076L31.8772 17.3742L31.8734 17.3773C31.8347 17.4121 31.8006 17.4489 31.7752 17.4947C31.7495 17.5411 31.7349 17.5928 31.7292 17.655C31.7183 17.775 31.74 17.9448 31.7859 18.2126C31.8205 18.4147 31.8406 18.5683 31.8415 18.6864C31.8423 18.8046 31.8233 18.8775 31.7886 18.9264C31.7548 18.974 31.6979 19.0104 31.5967 19.0369C31.4946 19.0636 31.3566 19.0781 31.171 19.0891C30.8647 19.1072 30.6451 19.1469 30.5053 19.2371C30.4327 19.2838 30.3812 19.3445 30.3504 19.4204C30.3203 19.4949 30.3116 19.5801 30.3171 19.6741C30.3269 19.8394 30.4311 19.9805 30.5938 20.0909C30.7567 20.2013 30.9862 20.2868 31.2671 20.3422C31.7876 20.45 32.0954 20.7285 32.1134 21.0316C32.1184 21.1168 32.1089 21.1724 32.0846 21.2132C32.0609 21.2528 32.0164 21.2897 31.9263 21.3221C31.8353 21.3547 31.705 21.3799 31.5205 21.4007C31.4286 21.411 31.3241 21.4201 31.2056 21.4285L30.8064 21.4522C30.518 21.4642 30.2645 21.4867 30.0727 21.5147C29.977 21.5286 29.8952 21.5441 29.8317 21.5607C29.8 21.5689 29.7717 21.578 29.7479 21.5874C29.7252 21.5965 29.7015 21.6078 29.6834 21.6232L29.6806 21.6259C29.5634 21.736 29.5219 21.8713 29.546 22.0104C29.5695 22.1455 29.6533 22.2777 29.7719 22.3932C30.0097 22.6247 30.4077 22.8101 30.8482 22.8416H30.85C31.1451 22.8546 31.5553 22.8412 31.7635 22.7973L31.7653 22.797C31.9158 22.7615 32.0361 22.7574 32.1247 22.7747C32.2128 22.7919 32.2651 22.8291 32.2919 22.8732C32.3188 22.9175 32.3279 22.9823 32.3029 23.0703C32.2778 23.1585 32.2195 23.2653 32.1199 23.3851C31.413 24.2289 30.8801 24.842 30.5005 25.2452C30.3105 25.447 30.16 25.5949 30.0462 25.6926C29.9893 25.7414 29.943 25.7766 29.9065 25.7993C29.8871 25.8114 29.8723 25.8187 29.8619 25.823L29.8427 25.8289C29.797 25.8315 29.7205 25.8229 29.6336 25.8035C29.5476 25.7842 29.4572 25.756 29.385 25.7228L29.3847 25.7224L29.3359 25.7032C29.2169 25.6616 29.056 25.6436 28.8154 25.6435C28.5386 25.6433 28.1462 25.6669 27.574 25.7108H27.5733C27.1658 25.7449 26.786 25.785 26.5032 25.8206C26.3619 25.8384 26.244 25.8552 26.1588 25.8697C26.1164 25.8769 26.0806 25.8837 26.0541 25.89C26.0411 25.893 26.0289 25.8962 26.0187 25.8996C26.012 25.9018 25.9946 25.9077 25.9806 25.9195L25.9672 25.9346C25.9589 25.9474 25.9547 25.9614 25.9528 25.9689C25.9504 25.9782 25.9488 25.9887 25.9473 25.9991C25.9443 26.0203 25.9417 26.0472 25.9398 26.0781C25.936 26.1402 25.9341 26.224 25.9336 26.3229C25.9326 26.5211 25.9378 26.7842 25.9494 27.0665V27.0672L26.0002 28.0938C26.001 28.1107 26.008 28.1269 26.0198 28.1391L26.5464 28.6836C26.8536 28.9995 27.0688 29.1854 27.3821 29.2871C27.6904 29.3872 28.0892 29.4042 28.7578 29.4049L29.1406 29.4028C29.253 29.4005 29.351 29.3958 29.4355 29.3871C29.6032 29.3696 29.7331 29.3345 29.8234 29.2552C29.9163 29.1737 29.9548 29.0568 29.969 28.9088C29.983 28.7617 29.9742 28.5697 29.9597 28.3248C29.9445 28.0665 29.9438 27.9203 29.9663 27.8218C29.9866 27.7325 30.0262 27.6817 30.1094 27.6172L30.1118 27.6152C30.1594 27.5749 30.2453 27.5323 30.3484 27.4981C30.45 27.4644 30.561 27.4415 30.6543 27.436C30.9335 27.4194 31.1556 27.3183 31.3674 27.1139C31.4452 27.0419 31.5254 26.9825 31.5895 26.945C31.6219 26.926 31.648 26.9137 31.666 26.9079C31.6698 26.9144 31.6746 26.9232 31.6798 26.9344C31.6944 26.9662 31.7111 27.0115 31.7285 27.0676C31.7633 27.1796 31.7995 27.3288 31.8288 27.4864C31.8592 27.654 31.9028 27.8261 31.95 27.9691C31.9735 28.0406 31.9985 28.1062 32.0234 28.1604C32.0477 28.213 32.0743 28.2605 32.1031 28.2925C32.1396 28.333 32.1783 28.3966 32.2085 28.4659C32.2388 28.5356 32.2577 28.6041 32.2607 28.653C32.2652 28.7299 32.3045 28.8255 32.3551 28.9146C32.4067 29.0055 32.4756 29.0996 32.5494 29.1756L32.7973 29.4434C32.8118 29.4591 32.8329 29.4673 32.8543 29.4657L34.4514 29.341L34.4518 29.3414C34.8901 29.3104 35.308 29.2678 35.6287 29.226C35.7888 29.2052 35.9254 29.1842 36.0286 29.1649C36.0801 29.1553 36.1243 29.1461 36.1591 29.1371C36.1914 29.1288 36.2232 29.1189 36.2446 29.1066L36.2473 29.1048C36.3998 29.0072 36.4711 28.7942 36.4887 28.5092C36.5044 28.2548 36.4785 27.9239 36.4118 27.5194L36.3809 27.3415L36.3081 26.9271C36.2309 26.4667 36.1443 25.8972 36.0898 25.4848C36.0325 25.0231 35.9968 24.7633 35.9332 24.5874C35.8663 24.4026 35.7686 24.3091 35.6077 24.1758C35.4456 24.0364 35.3454 23.9506 35.1769 23.9268C35.0958 23.9154 35.0012 23.9185 34.8795 23.931C34.7576 23.9435 34.6032 23.966 34.4013 23.9955C34.1393 24.0336 33.9439 24.0523 33.8108 24.0501C33.7439 24.049 33.6972 24.0423 33.6673 24.0329C33.6371 24.0234 33.6364 24.0152 33.6381 24.0192C33.6397 24.0232 33.6342 24.0161 33.6501 23.9862C33.6653 23.9577 33.6944 23.9197 33.7411 23.8712C33.8342 23.7746 33.9853 23.6489 34.195 23.4905L34.1953 23.4901C34.636 23.1538 34.8678 23.0487 35.148 23.0322C35.3683 23.0191 35.7737 22.9228 36.0547 22.8138L36.0558 22.8135C36.1709 22.7665 36.262 22.7286 36.3318 22.6929C36.4013 22.6574 36.4567 22.6207 36.4959 22.5731C36.5368 22.5235 36.5553 22.4679 36.5625 22.4039C36.5694 22.3425 36.5663 22.269 36.5611 22.1821V22.1807L36.5505 22.0901C36.4826 21.6455 36.1875 21.3187 35.7334 21.2534H35.7327C35.6174 21.2383 35.5392 21.2127 35.4896 21.1782C35.4441 21.1464 35.4188 21.1047 35.4127 21.0423C35.4062 20.9753 35.4216 20.8832 35.4666 20.757C35.5113 20.6317 35.583 20.4784 35.6822 20.2921C35.893 19.8923 35.9994 19.5605 35.9919 19.2731C35.9842 18.9813 35.8594 18.7438 35.6294 18.5343L35.6287 18.5336L35.5428 18.4618C35.4578 18.396 35.3742 18.3468 35.2871 18.3135C35.1702 18.2689 35.0503 18.2545 34.9166 18.2624C34.8406 18.2669 34.7762 18.273 34.723 18.285C34.6692 18.2972 34.6217 18.3161 34.5829 18.3492C34.5063 18.4147 34.4841 18.5185 34.4672 18.6459C34.4488 18.75 34.4255 18.8137 34.3972 18.8515C34.3725 18.8844 34.341 18.902 34.2887 18.9051C34.2413 18.9078 34.1933 18.9019 34.1551 18.8906C34.1362 18.885 34.1209 18.8785 34.1098 18.8721C34.1044 18.869 34.1005 18.8658 34.0978 18.8635C34.0965 18.8624 34.0953 18.8614 34.0947 18.8608L34.094 18.8597C34.0771 18.835 34.0505 18.8158 34.0267 18.8014C34.0011 18.7859 33.9699 18.771 33.9368 18.7574C33.8704 18.7303 33.7891 18.7059 33.7088 18.6895L33.7071 18.6891L33.6254 18.6723C33.4436 18.6302 33.3204 18.5651 33.245 18.4821C33.1613 18.3899 33.127 18.2655 33.1495 18.0972V18.0962C33.1665 17.9529 33.1678 17.8442 33.1015 17.7436C33.0697 17.6955 33.0249 17.6529 32.9683 17.6097C32.9117 17.5665 32.8396 17.5197 32.7506 17.4645L32.7499 17.4638L32.5892 17.369C32.5408 17.3415 32.497 17.3178 32.4571 17.2983C32.3775 17.2594 32.308 17.2342 32.2425 17.2266ZM28.1686 23.6162C27.9845 23.5968 27.8031 23.636 27.5537 23.7168C27.4398 23.7524 27.2069 23.796 26.98 23.8267L26.7593 23.8524C26.449 23.876 26.2012 23.9442 26.0517 24.0485C25.9761 24.1012 25.9195 24.1675 25.8993 24.2476C25.8786 24.3296 25.8993 24.4129 25.9518 24.4907L25.9525 24.4917C26.0667 24.6555 26.2659 24.8026 26.4925 24.9123C26.7197 25.0222 26.9819 25.098 27.2296 25.1152C27.4906 25.1397 27.8177 25.2098 27.9726 25.2851L27.975 25.2862C28.3001 25.4307 28.6648 25.3726 28.9332 25.2034C29.1844 25.0451 29.3631 24.7808 29.3359 24.4797L29.3277 24.4189C29.2889 24.1739 29.121 24.0267 28.776 23.8445C28.5304 23.7124 28.3519 23.6356 28.1686 23.6162ZM28.1896 21.7465C27.9785 21.7422 27.716 21.7524 27.3865 21.7719C26.944 21.798 26.6365 21.8263 26.4187 21.8649C26.2021 21.9033 26.0647 21.9535 25.9689 22.0297C25.8257 22.1416 25.733 22.2579 25.7502 22.4084C25.7584 22.4796 25.7909 22.5504 25.8399 22.6233C25.889 22.6965 25.9582 22.7763 26.0452 22.8657C26.1646 22.9911 26.2614 23.0739 26.3799 23.1191C26.4981 23.1641 26.6302 23.1687 26.8125 23.1579C27.0146 23.146 27.1726 23.1516 27.3488 23.1871C27.5262 23.2229 27.7249 23.2898 28.0079 23.4037L28.01 23.4044C28.0829 23.4311 28.1715 23.4354 28.2582 23.4274C28.3459 23.4193 28.4378 23.3981 28.5212 23.3684C28.6041 23.3388 28.6826 23.2996 28.7409 23.2537C28.7937 23.2122 28.8458 23.1517 28.8453 23.0765C28.8482 23.0729 28.8546 23.0667 28.8659 23.0597C28.8895 23.0453 28.9254 23.0332 28.9648 23.0309C29.0402 23.0264 29.1081 23.0124 29.1629 22.9825C29.22 22.9511 29.2602 22.9038 29.2803 22.841C29.2995 22.7809 29.2986 22.7113 29.2851 22.6354C29.2715 22.5589 29.2439 22.4704 29.2044 22.3696V22.3689L29.1612 22.2666C29.117 22.169 29.069 22.0851 29.0098 22.0153C28.9291 21.9204 28.8296 21.8543 28.696 21.8117C28.5644 21.7699 28.4 21.7508 28.1896 21.7465ZM28.1878 19.6789L28.1017 19.6875C27.8852 19.7153 27.5703 19.7984 27.3508 19.8832C27.1113 19.9757 26.59 20.0964 26.1839 20.1304H26.1818C25.8913 20.1627 25.6903 20.195 25.5494 20.2392C25.4067 20.2841 25.317 20.3439 25.259 20.4356L25.2243 20.4943C25.1498 20.6322 25.125 20.7778 25.1536 20.9211C25.182 21.0636 25.2621 21.1978 25.3874 21.3162L25.4437 21.366L25.7084 21.5919C25.7233 21.6046 25.7432 21.6103 25.7626 21.608L27.5863 21.3894L27.586 21.389C28.1214 21.3272 28.5253 21.2809 28.825 21.2311C29.1223 21.1817 29.3287 21.1276 29.4623 21.0457C29.5309 21.0036 29.5826 20.9529 29.6171 20.8902C29.6513 20.8279 29.6658 20.7587 29.6686 20.6835C29.6739 20.5373 29.6338 20.3514 29.5855 20.1215C29.5806 20.0967 29.568 20.0763 29.5553 20.061C29.5422 20.0453 29.526 20.0309 29.5089 20.0181C29.4748 19.9925 29.4301 19.9674 29.3799 19.9436C29.2788 19.8958 29.145 19.8481 29.0025 19.8066C28.721 19.7247 28.3875 19.6623 28.1878 19.6789ZM27.1253 17.5318H27.1235C27.0444 17.5464 26.8078 17.5808 26.6055 17.6131H26.6048C26.5157 17.6284 26.4423 17.6419 26.3851 17.6598C26.3274 17.6779 26.2766 17.7034 26.2405 17.7481C26.2043 17.7929 26.1905 17.8479 26.1856 17.9081C26.1807 17.9676 26.1837 18.0419 26.189 18.1316C26.1953 18.2383 26.2181 18.3536 26.2491 18.4536C26.2793 18.5511 26.3204 18.644 26.3682 18.6987L26.3693 18.6998C26.5809 18.9332 26.9228 19.1109 27.2794 19.2086C27.6361 19.3062 28.0202 19.3275 28.3197 19.235L28.3207 19.2347C28.3766 19.2165 28.4282 19.1982 28.4683 19.1725C28.5126 19.1441 28.5443 19.1058 28.5593 19.0513C28.5729 19.0017 28.5715 18.9429 28.5634 18.8752C28.5552 18.8064 28.539 18.7194 28.5174 18.6102L28.5171 18.6084L28.4941 18.5126C28.4694 18.4166 28.4401 18.3215 28.41 18.2387C28.3899 18.1836 28.3688 18.133 28.3485 18.0907C28.3288 18.0496 28.3075 18.0118 28.2853 17.9856L28.2847 17.9846L28.2428 17.9445C28.1947 17.904 28.1291 17.863 28.0581 17.8246C27.9609 17.7721 27.8447 17.7196 27.7278 17.6739C27.6109 17.6282 27.4916 17.5885 27.3879 17.5623C27.288 17.5371 27.191 17.5213 27.1253 17.5318ZM10.853 9.84375C10.4647 9.84382 10.1498 10.1586 10.1498 10.5469V10.8984C10.1498 10.9352 10.4647 11.2499 10.853 11.25H19.642C20.0303 11.2499 20.3451 10.9352 20.3451 10.8984V10.5469C20.3451 10.1586 20.0303 9.84383 19.642 9.84375H10.853ZM25.267 9.84375C24.8787 9.84382 24.5639 10.1586 24.5639 10.5469V10.8984C24.5639 10.9352 24.8787 11.2499 25.267 11.25H33.8106C34.1989 11.2499 34.7592 10.9352 34.7592 10.8984V10.5469C34.7592 10.1586 34.4443 9.84383 34.0561 9.84375H25.267Z" fill="currentColor"/>
</svg>
