<svg class="icon" width="45" height="45" viewBox="0 0 45 45" fill="none" xmlns="http://www.w3.org/2000/svg">
<path d="M11.9585 23.6999C12.078 23.6776 12.2638 23.6859 12.619 23.7123L13.3122 23.7634L13.293 24.0254C13.2803 24.1948 13.1909 24.4824 13.1083 24.664C13.039 24.7969 12.9867 24.8665 12.9332 24.9036C12.883 24.9383 12.8226 24.9504 12.7193 24.9427C12.6362 24.9366 12.5081 24.9458 12.3729 24.9651C12.2372 24.9844 12.0888 25.0145 11.9616 25.0516C11.8408 25.0821 11.7159 25.1048 11.6141 25.1154C11.5632 25.1208 11.5194 25.1229 11.4854 25.122C11.4685 25.1215 11.4549 25.1202 11.4449 25.1185C11.4361 25.117 11.4319 25.1154 11.4311 25.1151L11.4287 25.1141C11.4326 25.1159 11.4247 25.1144 11.4157 25.0866C11.4072 25.0606 11.4016 25.0221 11.3999 24.9723C11.3965 24.8731 11.4098 24.7415 11.437 24.6001C11.4641 24.4592 11.5046 24.3113 11.5533 24.1802C11.6026 24.048 11.6589 23.9373 11.7157 23.8675C11.7594 23.8137 11.793 23.7777 11.8287 23.7521C11.8629 23.7276 11.902 23.7105 11.9585 23.6999Z" fill="currentColor"/>
<path d="M15.2774 21.5885C15.3526 21.5834 15.4536 21.6213 15.5891 21.72L15.5908 21.721C15.6568 21.7664 15.7773 21.8181 15.9111 21.8659C16.0474 21.9145 16.2054 21.9619 16.3513 21.9984L16.3537 21.9991C16.4807 22.0263 16.5743 22.0473 16.6441 22.0684C16.7146 22.0898 16.7537 22.1093 16.777 22.1289C16.7972 22.1459 16.8098 22.1665 16.8179 22.2027C16.8267 22.2425 16.8291 22.296 16.8309 22.3757C16.8369 22.6325 16.7955 22.7481 16.6977 22.8083C16.6445 22.841 16.5664 22.8627 16.4512 22.8718C16.3365 22.8809 16.1906 22.877 16.0059 22.8632L15.3529 22.8148C15.3321 22.8133 15.3117 22.8211 15.2973 22.8361C15.2828 22.8511 15.2754 22.872 15.2777 22.8928L15.3141 23.2186L15.3144 23.2199C15.3435 23.4466 15.3925 23.6155 15.495 23.7298C15.6003 23.847 15.7505 23.8946 15.9486 23.9093C16.0702 23.9184 16.1382 23.9387 16.1855 23.9732C16.2323 24.0075 16.2691 24.0634 16.3101 24.1689L16.3104 24.1699C16.3373 24.2353 16.3501 24.3017 16.3516 24.3536C16.3524 24.3796 16.3502 24.4 16.3468 24.414C16.346 24.4176 16.3448 24.4202 16.3441 24.4223C16.3426 24.4228 16.3409 24.4238 16.3389 24.4243C16.3258 24.428 16.3068 24.432 16.2819 24.4363C16.2322 24.4449 16.1637 24.4535 16.0814 24.4611C15.9172 24.4762 15.7011 24.4873 15.4755 24.4906L14.7129 24.4892L14.8008 23.3089C14.8312 22.9005 14.8677 22.5706 14.9138 22.3119C14.9601 22.0518 15.0151 21.869 15.0796 21.7512C15.1433 21.635 15.2094 21.5931 15.2774 21.5885Z" fill="currentColor"/>
<path d="M34.1538 26.9886C34.2826 26.976 34.3505 26.9835 34.3958 27.0071C34.4389 27.0297 34.4748 27.0742 34.5197 27.174L34.5201 27.1747C34.6118 27.3743 34.6428 27.507 34.6289 27.6011C34.6162 27.6866 34.564 27.7534 34.4435 27.8157L34.4425 27.816C34.2669 27.9096 34.126 27.9506 34.0044 27.9468C33.8853 27.943 33.7757 27.8961 33.6628 27.7958C33.5525 27.6977 33.4906 27.6014 33.4657 27.5153C33.4414 27.4307 33.4518 27.352 33.4918 27.2821C33.5742 27.1386 33.7947 27.015 34.152 26.9889L34.1538 26.9886Z" fill="currentColor"/>
<path d="M28.0897 26.8496C28.1244 26.8624 28.1731 26.9069 28.2105 27.024C28.2456 27.153 28.2584 27.3708 28.2387 27.5029C28.2093 27.6582 28.115 27.7085 28.0375 27.7017C27.9558 27.6944 27.8568 27.621 27.8294 27.4559L27.8291 27.4545L27.8215 27.4061C27.7914 27.167 27.8727 26.9723 27.9664 26.8884C28.0154 26.8445 28.058 26.8379 28.0897 26.8496Z" fill="currentColor"/>
<path d="M33.7548 25.1147C33.8894 25.1118 33.9646 25.1248 34.0082 25.1491C34.0445 25.1693 34.0677 25.2027 34.0806 25.2754L34.081 25.2775C34.1018 25.3774 34.0599 25.468 33.9543 25.5377C33.8462 25.6091 33.6752 25.654 33.4623 25.6472C33.3022 25.6423 33.2156 25.5999 33.176 25.5556C33.14 25.5152 33.1324 25.4609 33.1598 25.3973C33.2175 25.2641 33.4284 25.1101 33.7524 25.1147H33.7548Z" fill="currentColor"/>
<path d="M33.8733 20.1616C33.89 20.196 33.9046 20.249 33.9083 20.3117C33.9118 20.3711 33.9061 20.4162 33.8966 20.4476C33.8868 20.4799 33.8749 20.4916 33.8702 20.4947C33.8688 20.4956 33.866 20.498 33.8554 20.4933C33.8418 20.4872 33.8196 20.4705 33.7936 20.4332L33.7926 20.4318L33.7819 20.414C33.7598 20.3695 33.7571 20.304 33.7768 20.2409C33.7876 20.2063 33.8037 20.1774 33.8214 20.1582C33.8341 20.1445 33.8463 20.1384 33.8564 20.1352C33.8608 20.1405 33.8671 20.149 33.8733 20.1616Z" fill="currentColor"/>
<path fill-rule="evenodd" clip-rule="evenodd" d="M40.7358 5.625C41.3182 5.62508 41.7905 6.09725 41.7905 6.67969V8.4375C41.7905 9.01994 41.3182 9.49211 40.7358 9.49219H39.6811C39.2928 9.49225 38.978 9.80703 38.978 10.1953V11.25C38.978 25.188 41.2403 33.2246 42.3803 36.3895C42.6459 37.1271 42.0982 37.9687 41.3143 37.9688H26.986C26.1065 37.9687 25.2376 37.6614 24.6363 37.0195C23.1969 35.4826 22.4545 31.6406 22.4545 28.125C22.4545 31.6406 21.7118 35.4826 20.2724 37.0195C19.6711 37.6613 18.8025 37.9687 17.923 37.9688H3.59442C2.81054 37.9686 2.26313 37.127 2.52875 36.3895C3.66877 33.2246 5.93108 25.1881 5.93108 11.25V10.1953C5.93108 9.80704 5.61621 9.49226 5.22795 9.49219H4.17327C3.59083 9.49212 3.11858 9.01995 3.11858 8.4375V6.67969C3.11858 6.09724 3.59083 5.62507 4.17327 5.625H40.7358ZM10.7537 16.2855C10.7024 16.2906 10.6586 16.3126 10.6253 16.3566C10.5958 16.3957 10.5777 16.4484 10.5632 16.5094C10.5484 16.5717 10.5352 16.6519 10.5203 16.7514C10.471 17.0779 10.3942 17.2775 10.2745 17.3972C10.172 17.4996 10.0286 17.5527 9.81338 17.564L9.71657 17.5665C9.61057 17.5661 9.52478 17.5675 9.45598 17.5737C9.38778 17.5798 9.32969 17.5911 9.28226 17.6142C9.17722 17.6654 9.14731 17.7621 9.12365 17.8765L9.1233 17.8782C9.09198 18.0498 9.18517 18.2487 9.3444 18.4419C9.4865 18.6143 9.69103 18.7942 9.94316 18.9648L10.0541 19.0376C10.166 19.1095 10.2278 19.168 10.2618 19.2281C10.2947 19.2866 10.3062 19.3551 10.2985 19.4582C10.2861 19.6243 10.2966 19.9023 10.3143 20.0779L10.3146 20.0809C10.3345 20.2176 10.3283 20.2752 10.2913 20.3261C10.2707 20.3544 10.2375 20.3849 10.1821 20.4226C10.1268 20.4602 10.0534 20.5022 9.95621 20.5554L9.95483 20.5564C9.69993 20.7036 9.53062 20.8788 9.47555 21.0711C9.41888 21.2691 9.48863 21.4654 9.66575 21.6365C9.72192 21.6933 9.80541 21.7382 9.90265 21.7746C10.0012 21.8113 10.1203 21.8414 10.2525 21.8652C10.517 21.9129 10.8421 21.9369 11.1812 21.938C11.8572 21.94 12.6049 21.8509 13.0554 21.6661L13.0561 21.6657C13.24 21.5878 13.3462 21.5536 13.4114 21.549C13.4414 21.5469 13.4566 21.5518 13.465 21.5565C13.4734 21.5614 13.4835 21.5708 13.4952 21.5926L13.4959 21.594C13.5104 21.6198 13.5242 21.6733 13.5319 21.7536C13.5393 21.8312 13.5403 21.9254 13.5353 22.0255C13.5254 22.2258 13.4917 22.4427 13.4426 22.5924C13.4229 22.6459 13.4102 22.6786 13.398 22.6991C13.3943 22.7054 13.3911 22.7083 13.3894 22.7101C13.3874 22.7099 13.384 22.71 13.3795 22.7087C13.3697 22.7061 13.3559 22.7009 13.3372 22.6919C13.2994 22.6736 13.2491 22.6436 13.1786 22.6003L13.1783 22.5999L13.0753 22.5422C12.8285 22.4139 12.5367 22.3314 12.2486 22.3009C11.961 22.2705 11.6714 22.2911 11.4294 22.3733L11.3288 22.4125C11.0985 22.5115 10.7415 22.5727 10.5124 22.5556C10.3884 22.5464 10.2657 22.5479 10.1667 22.5563C10.1172 22.5605 10.0723 22.5664 10.0355 22.5742C10.0017 22.5813 9.96475 22.5919 9.93904 22.6095L9.93801 22.6102C9.93109 22.6151 9.90685 22.627 9.85939 22.6439C9.81476 22.6597 9.75607 22.6775 9.68738 22.6967C9.55005 22.7351 9.37393 22.7773 9.19094 22.8138C8.79919 22.8949 8.55565 22.9553 8.40885 23.0359C8.33269 23.0778 8.27777 23.1276 8.24165 23.1918C8.20624 23.2548 8.19247 23.3257 8.18672 23.4029C8.17004 23.6272 8.31344 23.8068 8.53004 23.9214C8.747 24.036 9.04972 24.0939 9.38801 24.0776L9.90951 24.0501L10.2944 24.5273L10.2947 24.528C10.4098 24.667 10.5127 24.7999 10.5859 24.9022C10.6224 24.9534 10.651 24.9962 10.67 25.0279C10.6789 25.0429 10.6852 25.0543 10.6889 25.0622C10.6856 25.0763 10.677 25.0954 10.6573 25.1178C10.634 25.1444 10.5996 25.1712 10.5574 25.1951C10.4721 25.2432 10.3647 25.2724 10.2707 25.2655C10.087 25.2518 9.88787 25.2939 9.73202 25.3643C9.65403 25.3996 9.58368 25.4433 9.53083 25.4938C9.47874 25.5435 9.43735 25.606 9.43195 25.6778C9.42875 25.7209 9.44599 25.7648 9.46628 25.8017C9.48776 25.8407 9.51856 25.8822 9.5552 25.9233C9.62822 26.0051 9.73022 26.092 9.84566 26.1639C10.0269 26.2854 10.1549 26.3581 10.372 26.4012C10.5831 26.443 10.8794 26.4569 11.3968 26.4702C11.71 26.4783 12.0239 26.4816 12.2802 26.4791C12.5335 26.4766 12.7373 26.4686 12.826 26.4534H12.8267C12.8849 26.4427 12.9275 26.4369 12.9586 26.4359C12.9863 26.4349 12.9981 26.4381 13.0018 26.4396C13.0023 26.4406 13.0035 26.4433 13.0046 26.4482C13.0078 26.4632 13.0087 26.4881 13.0056 26.5296C13.0007 26.5955 12.987 26.6428 12.9637 26.6786C12.941 26.7135 12.905 26.7439 12.8446 26.7692C12.7183 26.8221 12.5026 26.8463 12.1373 26.8496H12.1353C11.862 26.8595 11.4339 26.8752 11.0607 26.8949L10.7136 26.9158C10.2966 26.9355 9.67078 26.9695 9.32896 26.9742H9.32793C9.18124 26.9784 9.06582 26.9833 8.97568 26.9917C8.8866 27 8.81603 27.0119 8.76213 27.0332C8.70506 27.0559 8.66362 27.0902 8.63819 27.1407C8.61508 27.1866 8.60849 27.2404 8.60454 27.2935C8.57702 27.6635 8.8978 27.9866 9.36981 28.1559C9.61703 28.2454 9.77863 28.2953 9.9974 28.3049C10.2124 28.3144 10.4813 28.2848 10.9439 28.2235L10.9436 28.2232C11.369 28.1746 11.9588 28.1597 12.2499 28.2009H12.2506C12.3785 28.218 12.4737 28.232 12.5479 28.2489C12.6217 28.2658 12.6704 28.2845 12.7073 28.309C12.7805 28.3578 12.8498 28.3237 12.9332 28.5209C13.0546 28.8043 13.2562 29.0414 13.4814 29.1938C13.7055 29.3452 13.9622 29.4186 14.1901 29.3555L14.1897 29.3551C14.2581 29.3378 14.3192 29.3207 14.3689 29.293C14.4227 29.263 14.4621 29.222 14.4901 29.1622C14.5166 29.1057 14.5324 29.0343 14.5444 28.9445C14.5565 28.854 14.5657 28.7379 14.5766 28.5902C14.5938 28.3599 14.5899 28.3162 14.6202 28.2098C14.6511 28.1016 14.686 28.0651 14.7143 28.0522L14.716 28.0515C14.716 28.0515 14.717 28.0512 14.7181 28.0508C14.7197 28.0503 14.7223 28.0495 14.7253 28.0488C14.7315 28.0473 14.7398 28.0456 14.7504 28.0443C14.7718 28.0417 14.8001 28.0403 14.8345 28.0399C14.9032 28.039 15.6959 28.043 15.8002 28.0512C16.009 28.0677 16.2731 28.1003 16.5398 28.1415C16.8063 28.1827 17.0748 28.2322 17.2927 28.2819C17.4015 28.3067 17.4971 28.3315 17.5732 28.355C17.6509 28.3791 17.7024 28.4002 17.7277 28.4161C17.7896 28.4561 17.886 28.4927 17.9869 28.5209C18.0894 28.5494 18.2039 28.5714 18.3048 28.5789C18.4419 28.5891 18.5491 28.5849 18.6371 28.5442C18.728 28.5022 18.7869 28.4268 18.8421 28.3252C18.895 28.2299 18.9357 28.1483 18.9598 28.0759C18.9842 28.0027 18.9933 27.9339 18.9784 27.8661C18.9634 27.7985 18.9261 27.7398 18.8737 27.6835C18.8219 27.6279 18.752 27.5707 18.6656 27.506C18.2262 27.1704 17.9223 26.962 17.669 26.8454C17.4112 26.7268 17.2049 26.7029 16.9631 26.7328C16.733 26.7553 16.3249 26.7649 16.0759 26.7565C15.8784 26.7418 15.0687 26.7229 15.0082 26.6937C14.9808 26.6804 14.9652 26.6663 14.955 26.6508C14.9441 26.6341 14.9358 26.6108 14.9296 26.5749L14.9292 26.5739L14.9272 26.5375C14.9297 26.5016 14.9469 26.4671 14.9811 26.4334C15.0286 26.3867 15.107 26.3441 15.2125 26.3126C15.4229 26.2497 15.7203 26.2371 16.0244 26.2989C16.2529 26.3455 16.3935 26.3757 16.5504 26.3198C16.6272 26.2925 16.705 26.2459 16.7983 26.1784C16.8917 26.1108 17.0049 26.0192 17.1523 25.8992L17.2879 25.7853C17.4169 25.6733 17.5251 25.5679 17.6075 25.4732C17.6623 25.4102 17.707 25.3507 17.739 25.2964C17.7703 25.2432 17.7929 25.1889 17.7967 25.1381C17.798 25.121 17.8065 25.0909 17.8269 25.0481C17.8467 25.0066 17.8751 24.9577 17.9107 24.905C17.9818 24.7995 18.079 24.6817 18.185 24.5768L18.1857 24.5761C18.3683 24.3902 18.4638 24.3042 18.5695 24.263C18.6744 24.222 18.7968 24.2221 19.0457 24.2406C19.3458 24.263 19.5611 24.2503 19.7045 24.1613C19.8563 24.0671 19.9091 23.9013 19.9256 23.68C19.9309 23.6085 19.9323 23.5419 19.9157 23.4774C19.8984 23.4109 19.8637 23.352 19.8065 23.2917C19.6969 23.1763 19.4927 23.0431 19.1346 22.8217C18.9237 22.6854 18.7109 22.539 18.5386 22.4121C18.3636 22.2833 18.2368 22.1794 18.1918 22.1272C18.1427 22.0701 18.0852 22.0148 18.0312 21.9727C18.0042 21.9517 17.9767 21.9328 17.9508 21.9188C17.9264 21.9055 17.8967 21.8925 17.8667 21.8903C17.8519 21.8891 17.8455 21.8857 17.8437 21.8844C17.8427 21.8838 17.8416 21.8829 17.8406 21.88C17.8373 21.8696 17.8363 21.8419 17.8564 21.7924C17.8955 21.6962 17.9958 21.5612 18.153 21.4257C18.2501 21.3421 18.3378 21.2397 18.4026 21.1391C18.4662 21.0405 18.5135 20.9355 18.52 20.8476C18.5353 20.6413 18.3919 20.4402 18.2045 20.301C18.0144 20.1599 17.759 20.0663 17.5148 20.0868C17.3242 20.1017 17.1511 20.0811 17.03 20.0408C16.9693 20.0205 16.9256 19.9966 16.8992 19.9735C16.8743 19.9516 16.8705 19.9361 16.8707 19.9278C16.8703 19.9313 16.8697 19.9304 16.8728 19.9237C16.8758 19.9172 16.8809 19.9081 16.8886 19.8966C16.9039 19.8735 16.9267 19.8445 16.9559 19.8114C17.0138 19.7458 17.0929 19.6687 17.177 19.5962C17.3206 19.4818 17.4082 19.4277 17.5007 19.4056C17.5942 19.3834 17.7017 19.3916 17.8911 19.4259C18.0219 19.4509 18.1332 19.4652 18.2269 19.463C18.321 19.4607 18.403 19.4419 18.4699 19.3964C18.6044 19.3049 18.6478 19.1275 18.6656 18.8882C18.6766 18.74 18.6643 18.6161 18.6093 18.4869C18.5553 18.3601 18.462 18.2329 18.3209 18.0746L18.3206 18.0739L18.1716 17.917C18.1228 17.8681 18.0757 17.8233 18.0332 17.7851C17.9909 17.7472 17.952 17.7149 17.9196 17.6914C17.9035 17.6798 17.8877 17.6694 17.8732 17.6616C17.8609 17.6549 17.8409 17.645 17.819 17.6434C17.804 17.6422 17.7731 17.6294 17.7301 17.5936C17.6895 17.5597 17.6461 17.5123 17.6068 17.459C17.5676 17.4057 17.5337 17.3482 17.5107 17.2956C17.4869 17.2411 17.4779 17.1989 17.4798 17.1733V17.1709C17.4858 17.0084 17.3929 16.8332 17.2628 16.6937C17.1312 16.5527 16.95 16.4352 16.7595 16.3933C16.6804 16.3749 16.6145 16.3611 16.56 16.3549C16.5058 16.3486 16.4557 16.3489 16.4114 16.3631C16.3147 16.3941 16.2762 16.4806 16.2445 16.576L16.2249 16.6333C16.1791 16.7805 16.1384 17.0139 16.1257 17.184C16.1155 17.3208 16.1009 17.4231 16.0773 17.4995C16.0541 17.5748 16.0236 17.6197 15.9853 17.6482C15.9463 17.677 15.89 17.6956 15.8026 17.701C15.7149 17.7065 15.6018 17.6982 15.4552 17.6797C15.0742 17.6312 14.8538 17.6529 14.6899 17.7827C14.6407 17.8206 14.5966 17.8547 14.5653 17.8895C14.5313 17.9274 14.5086 17.9699 14.5045 18.0244C14.5008 18.0746 14.5135 18.129 14.5337 18.1899C14.5542 18.2518 14.5858 18.3293 14.6261 18.4275L14.6268 18.4289C14.7015 18.599 14.7717 18.7189 14.8777 18.8131C14.9827 18.9062 15.1176 18.9695 15.31 19.0396C15.5037 19.1154 15.6077 19.1654 15.666 19.2192C15.716 19.2655 15.7357 19.3181 15.7371 19.4242V19.4259C15.74 19.5068 15.7254 19.5765 15.6935 19.6384C15.6614 19.7005 15.6096 19.7587 15.5318 19.8128L15.5307 19.8135C15.3567 19.9395 15.2774 19.9724 15.1943 19.9512C15.149 19.9396 15.095 19.9101 15.0216 19.8523C14.9484 19.7947 14.861 19.7131 14.748 19.6037L14.7476 19.6034C14.4667 19.3325 14.2138 19.1782 13.9738 19.1646C13.7273 19.1507 13.517 19.2855 13.3256 19.5333L13.3245 19.5344C13.014 19.9544 12.5053 20.1781 11.9653 20.1379L11.6035 20.1112L11.6268 19.7994C11.6445 19.5619 11.7037 19.4214 11.8201 19.3308C11.9415 19.2364 12.1387 19.1848 12.4618 19.1636L12.4614 19.1632C12.7538 19.1498 12.9541 19.121 13.0935 19.0396C13.2402 18.954 13.3085 18.8177 13.3592 18.628L13.3589 18.6277C13.3953 18.5077 13.3984 18.4062 13.3424 18.2891C13.2899 18.1795 13.1866 18.0587 13.0286 17.8916C12.8684 17.7221 12.7434 17.6104 12.6118 17.539C12.4783 17.4666 12.343 17.4381 12.1672 17.425C11.9552 17.4092 11.7899 17.3509 11.6824 17.2671C11.5772 17.185 11.5259 17.0782 11.5351 16.9536C11.5462 16.8049 11.4657 16.6546 11.3511 16.5392C11.2352 16.4225 11.0741 16.3304 10.9034 16.301C10.85 16.2897 10.7987 16.2811 10.7537 16.2855ZM32.2425 16.875C32.1383 16.863 32.0552 16.8969 31.9675 16.956L31.8772 17.0226L31.8734 17.0257C31.8347 17.0606 31.8006 17.0974 31.7752 17.1431C31.7495 17.1895 31.7349 17.2413 31.7292 17.3035C31.7183 17.4234 31.74 17.5933 31.7859 17.861C31.8205 18.0631 31.8406 18.2167 31.8415 18.3348C31.8423 18.4531 31.8233 18.5259 31.7886 18.5748C31.7548 18.6225 31.6979 18.6588 31.5967 18.6853C31.4946 18.7121 31.3566 18.7266 31.171 18.7375C30.8647 18.7556 30.6451 18.7954 30.5053 18.8855C30.4327 18.9323 30.3812 18.9929 30.3504 19.0688C30.3203 19.1434 30.3116 19.2285 30.3171 19.3225C30.3269 19.4878 30.4311 19.6289 30.5938 19.7393C30.7567 19.8497 30.9862 19.9352 31.2671 19.9907C31.7876 20.0985 32.0954 20.3769 32.1134 20.68C32.1184 20.7652 32.1089 20.8209 32.0846 20.8617C32.0609 20.9012 32.0164 20.9381 31.9263 20.9705C31.8353 21.0031 31.705 21.0284 31.5205 21.0491C31.4286 21.0594 31.3241 21.0685 31.2056 21.0769L30.8064 21.1006C30.518 21.1126 30.2645 21.1351 30.0727 21.1631C29.977 21.1771 29.8952 21.1925 29.8317 21.2091C29.8 21.2174 29.7717 21.2264 29.7479 21.2359C29.7252 21.2449 29.7015 21.2562 29.6834 21.2716L29.6806 21.2743C29.5634 21.3844 29.5219 21.5198 29.546 21.6589C29.5695 21.7939 29.6533 21.9261 29.7719 22.0417C30.0097 22.2731 30.4077 22.4585 30.8482 22.49H30.85C31.1451 22.5031 31.5553 22.4896 31.7635 22.4458L31.7653 22.4454C31.9158 22.4099 32.0361 22.4058 32.1247 22.4231C32.2128 22.4403 32.2651 22.4775 32.2919 22.5216C32.3188 22.566 32.3279 22.6307 32.3029 22.7187C32.2778 22.807 32.2195 22.9137 32.1199 23.0335C31.413 23.8774 30.8801 24.4904 30.5005 24.8936C30.3105 25.0954 30.16 25.2433 30.0462 25.341C29.9893 25.3899 29.943 25.425 29.9065 25.4478C29.8871 25.4599 29.8723 25.4671 29.8619 25.4715L29.8427 25.4773C29.797 25.4799 29.7205 25.4713 29.6336 25.4519C29.5476 25.4327 29.4572 25.4044 29.385 25.3712L29.3847 25.3709L29.3359 25.3516C29.2169 25.3101 29.056 25.2921 28.8154 25.2919C28.5386 25.2917 28.1462 25.3153 27.574 25.3592H27.5733C27.1658 25.3934 26.786 25.4334 26.5032 25.4691C26.3619 25.4869 26.244 25.5037 26.1588 25.5182C26.1164 25.5254 26.0806 25.5322 26.0541 25.5384C26.0411 25.5415 26.0289 25.5446 26.0187 25.548C26.012 25.5503 25.9946 25.5562 25.9806 25.5679L25.9672 25.583C25.9589 25.5958 25.9547 25.6098 25.9528 25.6174C25.9504 25.6267 25.9488 25.6371 25.9473 25.6476C25.9443 25.6687 25.9417 25.6957 25.9398 25.7265C25.936 25.7886 25.9341 25.8725 25.9336 25.9713C25.9326 26.1695 25.9378 26.4326 25.9494 26.715V26.7157L26.0002 27.7422C26.001 27.7591 26.008 27.7753 26.0198 27.7875L26.5464 28.332C26.8536 28.648 27.0688 28.8338 27.3821 28.9356C27.6904 29.0356 28.0892 29.0526 28.7578 29.0533L29.1406 29.0513C29.253 29.049 29.351 29.0443 29.4355 29.0355C29.6032 29.018 29.7331 28.983 29.8234 28.9037C29.9163 28.8221 29.9548 28.7052 29.969 28.5572C29.983 28.4101 29.9742 28.2181 29.9597 27.9733C29.9445 27.7149 29.9438 27.5688 29.9663 27.4703C29.9866 27.381 30.0262 27.3301 30.1094 27.2657L30.1118 27.2636C30.1594 27.2234 30.2453 27.1807 30.3484 27.1465C30.45 27.1128 30.561 27.0899 30.6543 27.0844C30.9335 27.0679 31.1556 26.9667 31.3674 26.7624C31.4452 26.6903 31.5254 26.631 31.5895 26.5934C31.6219 26.5745 31.648 26.5621 31.666 26.5564C31.6698 26.5629 31.6746 26.5716 31.6798 26.5828C31.6944 26.6146 31.7111 26.6599 31.7285 26.716C31.7633 26.828 31.7995 26.9772 31.8288 27.1349C31.8592 27.3024 31.9028 27.4745 31.95 27.6176C31.9735 27.6891 31.9985 27.7546 32.0234 27.8088C32.0477 27.8614 32.0743 27.9089 32.1031 27.941C32.1396 27.9815 32.1783 28.045 32.2085 28.1144C32.2388 28.184 32.2577 28.2525 32.2607 28.3015C32.2652 28.3783 32.3045 28.4739 32.3551 28.5631C32.4067 28.6539 32.4756 28.748 32.5494 28.824L32.7973 29.0918C32.8118 29.1075 32.8329 29.1157 32.8543 29.1141L34.4514 28.9895L34.4518 28.9898C34.8901 28.9589 35.308 28.9163 35.6287 28.8745C35.7888 28.8536 35.9254 28.8326 36.0286 28.8134C36.0801 28.8038 36.1243 28.7945 36.1591 28.7856C36.1914 28.7772 36.2232 28.7673 36.2446 28.755L36.2473 28.7533C36.3998 28.6557 36.4711 28.4426 36.4887 28.1576C36.5044 27.9033 36.4785 27.5724 36.4118 27.1678L36.3809 26.99L36.3081 26.5756C36.2309 26.1151 36.1443 25.5456 36.0898 25.1333C36.0325 24.6715 35.9968 24.4118 35.9332 24.2358C35.8663 24.051 35.7686 23.9576 35.6077 23.8242C35.4456 23.6848 35.3454 23.5991 35.1769 23.5753C35.0958 23.5639 35.0012 23.567 34.8795 23.5794C34.7576 23.5919 34.6032 23.6144 34.4013 23.644C34.1393 23.6821 33.9439 23.7008 33.8108 23.6985C33.7439 23.6974 33.6972 23.6908 33.6673 23.6814C33.6371 23.6718 33.6364 23.6637 33.6381 23.6676C33.6397 23.6717 33.6342 23.6646 33.6501 23.6347C33.6653 23.6061 33.6944 23.5681 33.7411 23.5197C33.8342 23.4231 33.9853 23.2973 34.195 23.1389L34.1953 23.1386C34.636 22.8022 34.8678 22.6972 35.148 22.6806C35.3683 22.6676 35.7737 22.5712 36.0547 22.4622L36.0558 22.4619C36.1709 22.415 36.262 22.377 36.3318 22.3414C36.4013 22.3058 36.4567 22.2691 36.4959 22.2216C36.5368 22.1719 36.5553 22.1163 36.5625 22.0523C36.5694 21.9909 36.5663 21.9175 36.5611 21.8305V21.8291L36.5505 21.7385C36.4826 21.2939 36.1875 20.9672 35.7334 20.9018H35.7327C35.6174 20.8867 35.5392 20.8611 35.4896 20.8266C35.4441 20.7949 35.4188 20.7532 35.4127 20.6907C35.4062 20.6238 35.4216 20.5316 35.4666 20.4054C35.5113 20.2801 35.583 20.1268 35.6822 19.9405C35.893 19.5408 35.9994 19.209 35.9919 18.9215C35.9842 18.6297 35.8594 18.3922 35.6294 18.1827L35.6287 18.182L35.5428 18.1103C35.4578 18.0444 35.3742 17.9952 35.2871 17.962C35.1702 17.9174 35.0503 17.9029 34.9166 17.9108C34.8406 17.9153 34.7762 17.9214 34.723 17.9335C34.6692 17.9456 34.6217 17.9646 34.5829 17.9977C34.5063 18.0632 34.4841 18.1669 34.4672 18.2943C34.4488 18.3984 34.4255 18.4621 34.3972 18.4999C34.3725 18.5329 34.341 18.5504 34.2887 18.5535C34.2413 18.5563 34.1933 18.5504 34.1551 18.5391C34.1362 18.5335 34.1209 18.527 34.1098 18.5205C34.1044 18.5174 34.1005 18.5143 34.0978 18.512C34.0965 18.5109 34.0953 18.5099 34.0947 18.5092L34.094 18.5082C34.0771 18.4835 34.0505 18.4643 34.0267 18.4498C34.0011 18.4343 33.9699 18.4194 33.9368 18.4059C33.8704 18.3788 33.7891 18.3543 33.7088 18.3379L33.7071 18.3376L33.6254 18.3207C33.4436 18.2786 33.3204 18.2135 33.245 18.1305C33.1613 18.0384 33.127 17.9139 33.1495 17.7457V17.7446C33.1665 17.6013 33.1678 17.4926 33.1015 17.392C33.0697 17.3439 33.0249 17.3014 32.9683 17.2581C32.9117 17.215 32.8396 17.1682 32.7506 17.1129L32.7499 17.1122L32.5892 17.0175C32.5408 16.9899 32.497 16.9663 32.4571 16.9468C32.3775 16.9078 32.308 16.8826 32.2425 16.875ZM28.1686 23.2647C27.9845 23.2453 27.8031 23.2845 27.5537 23.3653C27.4398 23.4009 27.2069 23.4444 26.98 23.4751L26.7593 23.5009C26.449 23.5245 26.2012 23.5927 26.0517 23.6969C25.9761 23.7496 25.9195 23.8159 25.8993 23.896C25.8786 23.978 25.8993 24.0613 25.9518 24.1391L25.9525 24.1401C26.0667 24.3039 26.2659 24.4511 26.4925 24.5607C26.7197 24.6706 26.9819 24.7464 27.2296 24.7636C27.4906 24.7882 27.8177 24.8582 27.9726 24.9336L27.975 24.9346C28.3001 25.0791 28.6648 25.021 28.9332 24.8518C29.1844 24.6935 29.3631 24.4292 29.3359 24.1281L29.3277 24.0674C29.2889 23.8223 29.121 23.6752 28.776 23.493C28.5304 23.3608 28.3519 23.284 28.1686 23.2647ZM28.1896 21.3949C27.9785 21.3906 27.716 21.4009 27.3865 21.4203C26.944 21.4465 26.6365 21.4748 26.4187 21.5134C26.2021 21.5518 26.0647 21.6019 25.9689 21.6782C25.8257 21.79 25.733 21.9063 25.7502 22.0569C25.7584 22.128 25.7909 22.1989 25.8399 22.2718C25.889 22.3449 25.9582 22.4248 26.0452 22.5142C26.1646 22.6395 26.2614 22.7223 26.3799 22.7675C26.4981 22.8126 26.6302 22.8171 26.8125 22.8063C27.0146 22.7944 27.1726 22.8 27.3488 22.8355C27.5262 22.8713 27.7249 22.9382 28.0079 23.0522L28.01 23.0528C28.0829 23.0795 28.1715 23.0838 28.2582 23.0758C28.3459 23.0677 28.4378 23.0465 28.5212 23.0168C28.6041 22.9872 28.6826 22.948 28.7409 22.9021C28.7937 22.8606 28.8458 22.8001 28.8453 22.725C28.8482 22.7213 28.8546 22.7151 28.8659 22.7081C28.8895 22.6937 28.9254 22.6817 28.9648 22.6793C29.0402 22.6748 29.1081 22.6608 29.1629 22.6309C29.22 22.5996 29.2602 22.5522 29.2803 22.4894C29.2995 22.4293 29.2986 22.3598 29.2851 22.2838C29.2715 22.2073 29.2439 22.1188 29.2044 22.0181V22.0174L29.1612 21.9151C29.117 21.8175 29.069 21.7336 29.0098 21.6638C28.9291 21.5688 28.8296 21.5027 28.696 21.4602C28.5644 21.4183 28.4 21.3993 28.1896 21.3949ZM28.1878 19.3274L28.1017 19.3359C27.8852 19.3637 27.5703 19.4469 27.3508 19.5316C27.1113 19.6241 26.59 19.7449 26.1839 19.7788H26.1818C25.8913 19.8111 25.6903 19.8434 25.5494 19.8877C25.4067 19.9325 25.317 19.9923 25.259 20.084L25.2243 20.1427C25.1498 20.2807 25.125 20.4262 25.1536 20.5695C25.182 20.712 25.2621 20.8462 25.3874 20.9647L25.4437 21.0144L25.7084 21.2403C25.7233 21.2531 25.7432 21.2588 25.7626 21.2565L27.5863 21.0378L27.586 21.0374C28.1214 20.9756 28.5253 20.9293 28.825 20.8795C29.1223 20.8301 29.3287 20.776 29.4623 20.6941C29.5309 20.652 29.5826 20.6013 29.6171 20.5386C29.6513 20.4764 29.6658 20.4071 29.6686 20.3319C29.6739 20.1857 29.6338 19.9998 29.5855 19.7699C29.5806 19.7451 29.568 19.7248 29.5553 19.7095C29.5422 19.6938 29.526 19.6793 29.5089 19.6666C29.4748 19.641 29.4301 19.6158 29.3799 19.5921C29.2788 19.5442 29.145 19.4965 29.0025 19.4551C28.721 19.3732 28.3875 19.3107 28.1878 19.3274ZM27.1253 17.1802H27.1235C27.0444 17.1949 26.8078 17.2292 26.6055 17.2616H26.6048C26.5157 17.2768 26.4423 17.2903 26.3851 17.3083C26.3274 17.3264 26.2766 17.3518 26.2405 17.3965C26.2043 17.4414 26.1905 17.4963 26.1856 17.5565C26.1807 17.616 26.1837 17.6903 26.189 17.78C26.1953 17.8867 26.2181 18.002 26.2491 18.102C26.2793 18.1995 26.3204 18.2924 26.3682 18.3472L26.3693 18.3482C26.5809 18.5817 26.9228 18.7593 27.2794 18.857C27.6361 18.9547 28.0202 18.976 28.3197 18.8834L28.3207 18.8831C28.3766 18.8649 28.4282 18.8466 28.4683 18.821C28.5126 18.7926 28.5443 18.7543 28.5593 18.6998C28.5729 18.6502 28.5715 18.5914 28.5634 18.5236C28.5552 18.4548 28.539 18.3679 28.5174 18.2586L28.5171 18.2569L28.4941 18.1611C28.4694 18.065 28.4401 17.9699 28.41 17.8871C28.3899 17.832 28.3688 17.7814 28.3485 17.7391C28.3288 17.698 28.3075 17.6603 28.2853 17.6341L28.2847 17.6331L28.2428 17.5929C28.1947 17.5524 28.1291 17.5115 28.0581 17.4731C27.9609 17.4206 27.8447 17.3681 27.7278 17.3223C27.6109 17.2766 27.4916 17.237 27.3879 17.2108C27.288 17.1855 27.191 17.1697 27.1253 17.1802ZM10.853 9.49219C10.4647 9.49225 10.1498 9.80703 10.1498 10.1953V10.5469C10.1498 10.9352 10.4647 11.2499 10.853 11.25H19.642C20.0303 11.2499 20.3451 10.9352 20.3451 10.5469V10.1953C20.3451 9.80704 20.0303 9.49227 19.642 9.49219H10.853ZM25.267 9.49219C24.8787 9.49225 24.5639 9.80703 24.5639 10.1953V10.5469C24.5639 10.9352 24.8787 11.2499 25.267 11.25H33.8106C34.1989 11.2499 34.7592 10.9352 34.7592 10.5469V10.1953C34.7592 9.80704 34.4443 9.49227 34.0561 9.49219H25.267Z" fill="currentColor"/>
</svg>
