<svg class="icon" width="45" height="45" viewBox="0 0 45 45" fill="none" xmlns="http://www.w3.org/2000/svg">
<path d="M28.6398 24.8689C28.9787 24.8693 28.3008 25.9039 28.0918 26.0012L27.7241 26.1739L27.6019 26.0204C27.13 25.4442 27.9151 25.4685 28.1306 25.2016C28.266 25.0419 28.53 24.8692 28.6398 24.8689Z" fill="currentColor"/>
<path d="M34.5978 24.8755C34.6937 24.8767 34.634 25.4908 34.5655 25.5597C34.4814 25.6237 33.8884 25.7642 33.6948 25.7643C33.5192 25.7637 33.6483 25.1269 33.7402 25.0354C33.9143 24.8629 34.3694 24.9207 34.5978 24.8755Z" fill="currentColor"/>
<path d="M34.4944 23.5451C34.557 23.3718 34.7664 23.7138 34.7265 23.8201C34.7072 23.8712 34.6298 23.9226 34.5525 23.9354C33.5534 24.1336 33.4823 24.1335 33.4823 23.9481C33.4824 23.5916 34.3807 23.8269 34.4944 23.5451Z" fill="currentColor"/>
<path fill-rule="evenodd" clip-rule="evenodd" d="M40.7357 5.625C41.3181 5.62505 41.7904 6.09723 41.7904 6.67969V8.4375C41.7904 9.01996 41.3181 9.49214 40.7357 9.49219H39.681C39.2927 9.49225 38.9779 9.80703 38.9779 10.1953V11.25C38.9779 25.188 41.2402 33.2246 42.3802 36.3895C42.6458 37.1271 42.0982 37.9688 41.3142 37.9688H28.0407C27.1611 37.9687 26.2922 37.6614 25.691 37.0195C24.2515 35.4826 22.4545 30.2343 22.4545 26.7188C22.4545 30.2344 20.657 35.4827 19.2176 37.0195C18.6164 37.6613 17.7477 37.9687 16.8682 37.9688H3.59436C2.81048 37.9686 2.26307 37.127 2.52869 36.3895C3.66871 33.2246 5.93102 25.1881 5.93102 11.25V10.1953C5.93102 9.80702 5.61618 9.49224 5.22789 9.49219H4.17321C3.59077 9.49212 3.11852 9.01995 3.11852 8.4375V6.67969C3.11852 6.09724 3.59077 5.62507 4.17321 5.625H40.7357ZM32.9533 17.0216C32.8464 16.6153 32.2664 16.4058 31.9154 16.5931C31.682 16.7179 31.7325 17.0705 31.9089 17.2454C32.3964 17.7165 31.1321 18.0315 30.8772 18.2366C30.3369 18.677 31.4002 19.282 31.7736 19.3624C32.0631 19.4241 31.9917 19.8165 32.0057 20.0531C31.7819 20.1621 31.434 20.4136 31.1803 20.3858C31.0073 20.3688 30.7097 20.5592 30.7096 20.2578C30.7095 18.8482 28.3341 19.5873 28.2594 19.1066C28.1977 18.7194 27.9508 18.1536 27.55 18.032C27.3686 17.9764 27.173 17.6354 27.0279 17.7251C26.9312 17.7825 26.8341 17.7763 26.5764 17.6804C26.3296 17.5973 25.75 17.5851 25.8413 17.9935C25.8607 18.0958 25.9834 18.3005 26.1187 18.4412C26.4311 18.7659 26.6556 19.1487 27.0732 19.3559C27.2663 19.4453 27.4143 19.5541 27.4017 19.5862C27.3691 19.6822 26.641 19.938 26.3766 19.9381C26.0227 19.955 24.6163 20.4575 24.7389 20.9293C24.8777 21.4701 25.7574 21.8981 26.254 21.5816C26.383 21.5049 26.6603 21.4024 26.873 21.3512C27.1051 21.3024 27.3165 21.1654 27.5439 21.1277C27.911 21.0548 28.1569 20.7121 28.5302 20.712C28.8124 20.7119 29.0404 20.5244 29.3233 20.4881C29.8051 20.4322 30.2365 21.7034 30.4065 21.6201C30.4328 21.614 30.5941 21.6777 30.7742 21.767C30.9481 21.8564 31.1542 21.9268 31.2253 21.927C31.4059 21.9269 31.87 21.7799 31.8701 21.7224C31.8701 21.6905 31.8961 21.6713 31.9346 21.6712C32.0501 21.6719 31.5672 22.458 31.2191 22.8416C30.8642 23.2157 30.6981 23.7921 30.3227 24.1335C30.197 24.2461 29.2938 23.3341 28.7623 23.3339C28.4784 23.3341 27.4984 23.7626 26.8215 24.1782C26.5896 24.3251 26.4734 24.3638 26.3381 24.332C25.8935 24.2169 25.8027 24.2167 25.648 24.3189C25.4354 24.4596 25.4418 24.6261 25.6738 24.8755C25.7769 24.9842 25.9059 25.2399 25.9639 25.4382C26.1091 25.9341 26.3509 26.6533 26.8411 26.9028C27.0309 26.9932 27.2043 27.1943 27.4213 27.2097C27.647 27.2161 28.0597 27.2993 28.3047 27.3824C28.7037 27.514 29.6791 26.9018 29.7398 26.5114L29.7446 26.4465C29.7528 26.3842 29.7887 26.3401 29.8393 26.3401C29.8912 26.3392 30.0327 26.1349 30.1614 25.8797C30.5223 25.1509 30.5808 25.0609 30.7096 25.0608C30.8395 25.0598 31.87 24.0055 31.8701 23.8712C31.8702 23.7435 32.0058 23.6923 32.0702 23.7881C32.3391 24.2151 31.7937 25.0693 31.8509 25.1185C31.9282 25.1761 31.9991 25.336 32.0249 25.4766C32.1216 26.1032 32.154 26.193 32.3408 26.3847C32.6254 26.7023 33.0957 26.7873 33.3725 27.1074C33.6432 27.4143 34.0946 27.5167 34.3719 27.3251C34.4556 27.2676 34.5719 27.2419 34.6493 27.2674C34.7523 27.2993 34.8297 27.2544 35.0101 27.0435C35.3314 26.6778 35.8486 26.7751 36.1839 26.3785C36.2548 26.2953 36.2741 26.0648 36.2612 25.3935C36.2418 24.0697 36.1515 23.4492 35.9 22.8928C35.7131 22.4772 35.6549 22.4002 35.4036 22.2851C34.9616 22.0755 34.4547 22.1499 33.998 22.2597V21.9974C33.9979 21.6999 33.4146 20.8371 33.9012 20.7885C34.0043 20.7757 34.1334 20.7054 34.1786 20.6351C34.3023 20.4637 34.8896 20.45 34.9974 20.5966L35.0942 20.7439L35.1327 20.6031C35.2206 20.2764 35.6859 20.3779 35.8873 20.4943C36.2363 20.6939 36.7661 20.5802 36.6739 20.0916C36.4576 18.9037 34.7497 18.9661 33.8239 19.2855C33.6759 19.3429 33.5083 19.3687 33.4501 19.3497C33.2826 19.2792 33.3341 18.9658 33.5403 18.7612C33.9087 18.4231 34.4359 18.9041 34.8103 18.595C34.9431 18.4871 34.8951 18.1878 34.6922 17.8559L34.572 17.6684C34.5005 17.5537 34.4496 17.4615 34.4495 17.4374C34.4493 17.1106 33.026 17.3179 32.9533 17.0216ZM13.1727 17.85C12.758 17.5964 12.5249 17.5608 12.3302 17.7247C12.1663 17.865 11.9673 18.5105 11.7023 19.8032C11.5091 20.7418 11.4489 20.8881 11.2704 20.8661C11.2016 20.8577 11.0521 20.881 10.9432 20.9163C10.834 20.9516 10.5058 21.0088 10.2157 21.0426C9.50828 21.1223 9.2152 21.2324 9.19121 21.4247C9.18023 21.5141 9.31552 21.7754 9.53041 22.0671C9.82784 22.4806 9.95454 22.5871 10.2964 22.7551C10.8237 23.0019 10.8221 23.016 10.2033 24.2925C10.0516 24.6156 9.77938 25.4612 9.77005 25.6486C9.76154 25.7171 9.73386 25.7695 9.69281 25.7647C9.6585 25.7607 9.61992 25.8465 9.60629 25.9562C9.5705 26.2448 9.87222 26.5128 10.202 26.498C10.3289 26.4858 10.4604 26.4391 10.4879 26.3868C10.5086 26.3335 10.6699 26.2693 10.833 26.2477C11.0329 26.2097 11.1826 26.1307 11.282 26.0036C11.3653 25.8953 11.5035 25.738 11.5962 25.6658C11.6828 25.5858 11.7608 25.4629 11.7685 25.4011C11.7772 25.3323 11.8981 25.1449 12.037 24.9809C12.2 24.7918 12.3183 24.5692 12.3645 24.3656C12.4073 24.1895 12.5154 23.8817 12.6097 23.6841C12.7512 23.3874 13.1345 22.2632 13.1593 22.0636C13.1629 22.0361 13.2902 21.9681 13.4436 21.9105C13.5896 21.8588 13.8996 21.7226 14.1227 21.6108C14.5836 21.382 14.7642 21.3907 14.8701 21.6619C14.9491 21.8675 14.8129 22.6874 14.65 22.9882C14.6029 23.087 14.5361 23.3438 14.5096 23.5567C14.4568 23.9828 14.3144 24.3423 13.9637 24.9197C13.8403 25.1276 13.7288 25.3511 13.7193 25.4268C13.697 25.6054 13.422 25.7948 13.0941 25.8519C12.6599 25.9236 12.7083 26.2085 13.2187 26.7043C13.3433 26.8244 13.5231 26.9513 13.6228 26.9917C13.7163 27.0243 13.8307 27.1152 13.8704 27.1898C13.9616 27.3546 14.2574 27.5592 14.5597 27.6526C14.7949 27.7236 14.8028 27.717 15.1115 27.3089C15.2786 27.0855 15.4385 26.8124 15.4582 26.7102C15.4779 26.608 15.5447 26.463 15.6021 26.3933C15.6595 26.3236 15.7232 26.1499 15.7411 26.0057C15.759 25.8614 15.8232 25.6807 15.8884 25.605C16.0033 25.4654 16.148 24.9739 16.2719 24.3127C16.3539 23.8766 16.4655 23.5415 16.5462 23.5094C16.5763 23.4899 16.6318 23.1555 16.6588 22.7695C16.7045 22.0636 16.647 21.5123 16.4947 21.1655C16.3622 20.884 16.063 20.4841 15.9598 20.471C15.9115 20.4647 15.7681 20.3843 15.6326 20.2979C15.4196 20.1599 15.3176 20.1332 14.7956 20.1242C14.4686 20.1185 14.118 20.1306 14.0173 20.153C13.7239 20.2141 13.6834 20.0907 13.7694 19.397C13.8402 18.8268 13.8292 18.7481 13.6743 18.422C13.5538 18.1559 13.4245 18.0138 13.1727 17.85ZM29.3944 22.7135C30.1123 22.7517 29.2 21.1533 28.5817 21.5432C28.4563 21.6363 28.1869 21.4758 28.0983 21.6074C28.0143 21.7481 27.2536 22.0677 26.9698 22.087C26.918 22.0872 26.686 22.183 26.4542 22.2916C26.2224 22.4002 25.9838 22.5024 25.9189 22.5282C25.5903 22.637 25.8353 23.2447 26.3058 23.4685C26.7892 23.6986 27.0796 23.6985 27.5566 23.462C28.1406 23.164 28.6806 22.6492 29.3944 22.7135ZM18.0143 19.4352C17.8018 19.2903 17.1158 19.1983 16.8744 19.2868C16.7803 19.317 16.704 19.37 16.6986 19.4111C16.7013 19.4463 16.7943 19.7094 16.9122 19.9961C17.031 20.276 17.178 20.664 17.2315 20.8521C17.3021 21.07 17.3832 21.2057 17.4588 21.2153C17.5688 21.2293 17.8106 21.5313 18.1046 22.0279C18.2379 22.2468 18.258 22.2565 18.8145 22.3256C19.2952 22.3852 19.4228 22.3731 19.6021 22.2768C19.7899 22.1677 19.8175 22.1149 19.8335 21.8171C19.8503 21.4564 19.6358 20.8227 19.4648 20.7384C19.2147 20.6166 18.7245 20.179 18.384 19.774C18.28 19.6565 18.1174 19.5038 18.0143 19.4352ZM10.8529 9.49219C10.4646 9.49225 10.1498 9.80703 10.1498 10.1953V10.5469C10.1498 10.9352 10.4646 11.2499 10.8529 11.25H19.642C20.0302 11.2499 20.3451 10.9352 20.3451 10.5469V10.1953C20.3451 9.80702 20.0302 9.49224 19.642 9.49219H10.8529ZM25.267 9.49219C24.8787 9.49225 24.5638 9.80703 24.5638 10.1953V10.5469C24.5638 10.9352 24.8787 11.2499 25.267 11.25H34.056C34.4443 11.2499 34.7591 10.9352 34.7591 10.5469V10.1953C34.7591 9.80702 34.4443 9.49224 34.056 9.49219H25.267Z" fill="currentColor"/>
</svg>
