<svg class="icon" width="45" height="45" viewBox="0 0 45 45" fill="none" xmlns="http://www.w3.org/2000/svg">
<path d="M16.4913 26.7294C16.6098 26.7363 16.6719 26.783 16.6359 26.8451C16.6003 26.8965 16.4895 26.9435 16.4034 26.9385C16.3173 26.9334 16.2558 26.8761 16.2589 26.8228C16.2627 26.7589 16.3622 26.7219 16.4913 26.7294Z" fill="currentColor"/>
<path d="M13.2909 24.3481C13.4282 24.2171 13.5841 24.1406 13.6259 24.1644C13.6778 24.1999 13.6952 24.4576 13.6778 24.756C13.6434 25.3426 13.3634 25.6901 12.9541 25.6661C12.8248 25.6586 12.5632 25.6969 12.3543 25.7595C12.1568 25.8121 11.9611 25.8327 11.9203 25.7877C11.8601 25.7092 11.9232 25.5522 12.3793 24.7762C12.4275 24.6935 12.594 24.6178 12.746 24.6053C12.8981 24.5928 13.1427 24.4786 13.2909 24.3481Z" fill="currentColor"/>
<path d="M15.4098 23.9691C15.4915 23.8669 16.0734 23.9009 16.1319 24.0113C16.1711 24.0781 15.9328 25.1974 15.863 25.2799C15.782 25.3714 15.3621 25.3469 15.3034 25.2366C15.2355 25.1042 15.3156 24.1028 15.4098 23.9691Z" fill="currentColor"/>
<path d="M13.5247 22.3819C13.8047 22.3983 13.8149 22.4097 13.778 23.039C13.7362 23.7534 13.5674 23.8719 13.2723 23.3731C13.1257 23.1076 13.0514 23.0821 12.4995 23.0926C11.9483 23.0924 11.8847 23.0671 11.8959 22.8753C11.9059 22.7046 11.9954 22.6564 12.3426 22.6339C12.5814 22.6158 12.8771 22.5474 13.0001 22.4797C13.1223 22.4227 13.3523 22.3718 13.5247 22.3819Z" fill="currentColor"/>
<path d="M16.0628 22.2308C16.4587 22.1149 16.5133 22.1074 16.5717 22.2178C16.6008 22.273 16.5816 22.4217 16.5418 22.5477C16.4875 22.7372 16.3992 22.7644 16.1312 22.7273C15.6921 22.6588 15.6449 22.3562 16.0628 22.2308Z" fill="currentColor"/>
<path d="M28.4685 28.0196C28.8264 27.7482 28.9213 27.8023 28.9213 28.2582C28.9213 28.5187 28.8475 28.6709 28.6686 28.7904C28.1634 29.1378 27.9738 28.3888 28.4685 28.0196Z" fill="currentColor"/>
<path d="M34.7111 27.9327C35.0269 27.835 35.09 27.8459 35.1743 28.0196C35.2267 28.1279 35.2479 28.2362 35.2271 28.2582C35.206 28.2799 34.932 28.3236 34.6373 28.367C33.848 28.4647 33.8901 28.1933 34.7111 27.9327Z" fill="currentColor"/>
<path d="M34.9006 25.8371C34.9111 25.8371 34.9216 25.9456 34.9216 26.0867C34.9216 26.2821 34.8269 26.4016 34.5848 26.521C34.1005 26.7707 33.869 26.749 33.8689 26.4341C33.869 26.1844 34.1007 26.0214 34.6586 25.902C34.7742 25.8695 34.8794 25.848 34.9006 25.8371Z" fill="currentColor"/>
<path d="M33.606 21.4831C33.6901 21.4832 33.7635 21.5482 33.7635 21.6242C33.7634 21.7002 33.6901 21.8629 33.606 21.9823C33.4586 22.1777 33.4585 22.1669 33.448 21.8305C33.448 21.5916 33.5007 21.4831 33.606 21.4831Z" fill="currentColor"/>
<path fill-rule="evenodd" clip-rule="evenodd" d="M40.7357 6.32812C41.3182 6.3282 41.7904 6.80037 41.7904 7.38281V9.14062C41.7904 9.72307 41.3182 10.1952 40.7357 10.1953H39.681C39.2928 10.1954 38.9779 10.5102 38.9779 10.8984V11.9531C38.9779 25.8911 41.2402 33.9277 42.3803 37.0926C42.6459 37.8302 42.0982 38.6718 41.3142 38.6719H27.3376C26.458 38.6718 25.5891 38.3645 24.9879 37.7226C23.5485 36.1857 22.4545 31.289 22.4545 27.7734C22.4545 31.289 21.3602 36.1858 19.9208 37.7226C19.3195 38.3645 18.4509 38.6718 17.5714 38.6719H3.59439C2.81051 38.6717 2.2631 37.8301 2.52872 37.0926C3.66874 33.9277 5.93105 25.8912 5.93105 11.9531V10.8984C5.93105 10.5102 5.61619 10.1954 5.22792 10.1953H4.17324C3.5908 10.1952 3.11855 9.72307 3.11855 9.14062V7.38281C3.11855 6.80036 3.5908 6.32819 4.17324 6.32812H40.7357ZM15.6172 18.3945C15.2443 17.9341 14.9136 17.8612 14.5066 18.169C14.2356 18.3671 14.2232 18.388 14.3119 19.0887C14.3534 19.4872 14.3445 20.0113 14.2978 20.2547C14.2215 20.6354 14.174 20.7074 13.9016 20.7449C13.7268 20.7775 13.5608 20.8428 13.5253 20.8943C13.4791 20.9451 13.3474 20.98 13.2074 20.9719C12.9704 20.958 12.9721 20.926 13.032 19.9021C13.1019 18.7077 13.017 18.4994 12.3725 18.2476C11.8869 18.0479 11.4842 18.2813 11.4105 18.8014C11.3563 19.1727 11.3338 19.1822 10.4097 19.4599C9.88235 19.6108 9.37462 19.7949 9.27227 19.8746C8.9335 20.1223 9.07676 20.4413 9.69421 20.7878C10.4049 21.204 10.5342 21.2115 10.9882 20.8421C11.1927 20.6721 11.3625 20.5428 11.384 20.5441C11.4056 20.5456 11.4616 20.6987 11.5155 20.8836C11.642 21.3084 11.5134 21.472 11.0023 21.5277C10.4466 21.6022 9.66035 21.9204 9.5737 22.1079C9.4994 22.275 9.95144 22.8577 10.3476 23.1056C10.5041 23.2004 10.5214 23.2764 10.4227 23.4846C10.3361 23.6722 10.1454 23.7896 9.68425 23.9124C8.90456 24.1236 8.68755 24.3248 8.80569 24.7062C8.94294 25.1316 9.46777 25.398 10.0969 25.3599C10.5853 25.3243 10.6171 25.3368 10.604 25.5607C10.5965 25.6887 10.509 25.8869 10.4166 25.9885C10.1729 26.2739 10.1752 26.6058 10.4251 26.9522C10.6345 27.2534 10.6453 27.2543 11.7363 27.2646C12.6006 27.2724 12.7832 27.2937 12.6052 27.3796C12.4823 27.4474 12.1427 27.5239 11.8386 27.5489C10.9915 27.617 9.9552 27.7811 9.8748 27.862C9.75008 27.9618 9.86454 28.4071 10.065 28.6757C10.2261 28.8777 10.3333 28.8947 11.1664 28.8793C11.6752 28.8663 12.2295 28.813 12.3948 28.7584C12.9795 28.5572 13.5524 28.7407 13.2219 29.0317C13.1535 29.092 13.0922 29.2169 13.0866 29.3129C13.0809 29.4089 12.974 29.5737 12.8493 29.6734C12.4416 29.992 12.5323 30.2865 13.1498 30.633C14.0176 31.1333 14.2806 31.0736 14.7387 30.2656C14.9443 29.8924 14.9892 29.6809 14.9628 29.2085C14.9454 28.7687 14.9782 28.5779 15.0909 28.4989C15.2378 28.4005 16.3065 28.4203 17.7039 28.5449C18.1557 28.582 18.2546 28.5558 18.497 28.2919C18.6476 28.1188 18.7762 27.9549 18.7895 27.9128C18.7914 27.8808 18.6009 27.6236 18.358 27.3419C17.9527 26.8794 17.9338 26.8353 18.1238 26.7287C18.5366 26.5067 18.2824 25.6784 17.7341 25.443C17.513 25.3444 17.4331 25.2328 17.4437 25.0516C17.468 24.6356 17.7401 24.234 17.9879 24.2485C18.3756 24.2712 18.5777 23.9619 18.543 23.4462C18.5199 23.1024 18.4531 22.9487 18.2845 22.8746C18.0316 22.7634 17.7752 22.1598 17.7043 21.5243C17.6691 21.2012 17.5896 21.0786 17.2549 20.8878C17.0248 20.7566 16.6428 20.638 16.4058 20.6241C15.8672 20.5926 15.8777 20.4113 16.4268 20.2615C16.6358 20.1989 16.9674 20.079 17.1453 19.9931C17.3341 19.9078 17.6114 19.785 17.788 19.7205C18.1529 19.5813 18.1769 19.3578 17.8876 18.9449C17.658 18.6211 17.744 18.6263 16.3742 18.7602C15.9935 18.8021 15.9198 18.7654 15.6172 18.3945ZM28.795 18.9531C28.8581 18.1605 28.1948 17.6826 27.5422 18.0626C27.3948 18.1494 27.1841 18.3449 27.0893 18.4969C26.9314 18.7357 26.9315 18.8554 27.0368 19.4201C27.0999 19.7782 27.1315 20.1255 27.1 20.2124C27.0472 20.3645 25.9945 20.723 25.5945 20.723C25.4892 20.723 25.2892 20.8424 25.1523 20.9835C24.6577 21.5264 25.1631 22.1453 26.1946 22.2865C26.7315 22.3625 26.8578 22.5035 26.4999 22.6229C26.163 22.7315 26.2156 23.3614 26.584 23.6546C26.8366 23.8609 26.9631 23.8934 27.6263 23.8499C28.2261 23.8065 28.3736 23.8282 28.2896 23.9258C28.2264 24.0018 28.0475 24.0889 27.8896 24.1215C27.3106 24.241 26.3843 24.7621 26.2685 25.0227C26.1632 25.2399 26.1843 25.3374 26.3632 25.5872C26.5316 25.8151 26.7 25.9022 27.1632 25.9782C27.6789 26.0542 27.8054 26.0325 28.1317 25.8371C28.3422 25.7068 28.5843 25.6091 28.658 25.6091C28.7422 25.6091 28.8896 25.4896 28.9738 25.3485C29.0686 25.1965 29.2687 25.001 29.416 24.9033C29.6476 24.7404 29.7635 24.7296 30.2898 24.849C30.8581 24.9684 30.953 24.9576 31.6476 24.7079C32.0582 24.5559 32.3951 24.4581 32.3951 24.5016C32.3948 24.5452 32.3003 24.6972 32.1846 24.849C31.6372 25.5547 31.2478 26.141 31.0372 26.5536C30.9109 26.8142 30.7634 27.0205 30.7107 27.0205C30.658 27.0203 30.4897 26.814 30.3214 26.5752C29.9529 26.0107 29.2369 25.7066 28.9632 25.9888C28.8684 26.0866 28.5528 26.2823 28.258 26.4451C27.7738 26.6948 27.6789 26.7058 27.3736 26.5972C27.1736 26.5212 26.8789 26.4994 26.6894 26.532L26.3632 26.6079L26.426 27.2811C26.4997 28.1715 26.9317 29.4745 27.2686 29.8111C27.6161 30.1801 28.8474 30.3757 29.1318 30.1152C29.2264 30.0284 29.3631 29.9523 29.4263 29.9522C29.6053 29.9522 30.3633 29.1705 30.4371 28.9098C30.4792 28.7796 30.4581 28.5515 30.4055 28.3887C30.3108 28.1389 30.3213 28.1065 30.5003 28.1065C30.616 28.1065 30.7106 28.1714 30.7107 28.2582C30.7107 28.3451 30.8371 28.4431 30.995 28.4865C31.2055 28.5408 31.3213 28.508 31.4265 28.3561C31.5002 28.2475 31.5847 28.1824 31.6058 28.215C31.6271 28.2469 31.7953 28.0409 31.9635 27.759C32.1846 27.4007 32.3321 27.2593 32.4479 27.3027C32.5742 27.357 32.5953 27.4658 32.5427 27.7697C32.5006 27.9868 32.4374 28.215 32.3848 28.2802C32.2269 28.4757 32.6477 29.3983 33.0477 29.7458C33.4267 30.0607 33.4479 30.0609 34.3637 29.9958C35.3322 29.9198 36.4271 29.6155 36.7429 29.3332C36.9639 29.116 36.9745 28.7251 36.7535 27.6722C36.6588 27.2271 36.5745 26.6625 36.5534 26.4235C36.4376 24.8491 35.7427 23.8172 35.0479 24.1864C34.6795 24.371 34.2903 24.4254 34.2902 24.2842C34.2903 24.0453 35.0692 23.0249 35.2903 22.9597C35.4062 22.9272 35.7007 22.8945 35.9533 22.8945C36.3217 22.8945 36.4165 22.851 36.5218 22.6339C36.7008 22.2104 36.5639 22.0259 36.0587 22.0259C35.5218 22.0259 35.2797 21.8954 35.406 21.6891C35.5218 21.4825 35.6902 20.4297 35.6903 19.876C35.6797 19.116 35.5007 18.8769 34.9429 18.8769C34.5639 18.8769 34.4689 18.9205 34.4268 19.0942C34.374 19.3114 33.9109 19.637 33.6688 19.637C33.6055 19.6367 33.4584 19.4414 33.3533 19.2137C33.069 18.66 32.5109 18.2908 32.153 18.432C31.8162 18.5731 31.7634 18.7359 31.8581 19.4633C31.9002 19.7998 31.9004 20.0711 31.8478 20.0713C31.8057 20.0713 31.7637 20.1473 31.7637 20.2341C31.7637 20.3318 31.6792 20.4296 31.5845 20.473C30.8898 20.7119 30.5003 20.9725 30.5003 21.2005C30.5003 21.6239 30.9529 22.0258 31.4265 22.0259C31.8791 22.0259 32.0791 22.1778 32.0792 22.5034C32.0687 22.84 31.8581 23.0574 31.395 23.2203C31.1634 23.2963 30.7846 23.4701 30.5425 23.6003C30.2056 23.7958 30.0055 23.8391 29.6265 23.7957C29.3532 23.7632 29.1324 23.7198 29.1318 23.6872C29.1318 23.6655 29.2265 23.4591 29.3422 23.2203C29.458 22.9815 29.5527 22.7423 29.5527 22.6772C29.5524 22.4491 28.8684 22.1344 28.3737 22.1344C28.0896 22.1344 27.8684 22.0908 27.8683 22.0365C27.869 21.9929 28.1426 21.8629 28.4791 21.7653C28.8054 21.6676 29.2684 21.5265 29.4895 21.4505C29.7211 21.3853 29.9214 21.2439 29.953 21.1353C29.9741 21.0268 30.037 20.94 30.0896 20.9399C30.3002 20.9399 30.1527 20.6684 29.5843 20.0603C29.258 19.713 28.9423 19.4202 28.8791 19.4201C28.8054 19.4201 28.7739 19.2462 28.795 18.9531ZM10.8529 10.1953C10.4647 10.1954 10.1498 10.5102 10.1498 10.8984V11.25C10.1498 11.6383 10.4647 11.9531 10.8529 11.9531H19.642C20.0302 11.9531 20.3451 11.6383 20.3451 11.25V10.8984C20.3451 10.5102 20.0302 10.1954 19.642 10.1953H10.8529ZM25.267 10.1953C24.8787 10.1954 24.5639 10.5102 24.5639 10.8984V11.25C24.5639 11.6383 24.8787 11.9531 25.267 11.9531H34.056C34.4443 11.9531 34.7592 11.6383 34.7592 11.25V10.8984C34.7592 10.5102 34.4443 10.1954 34.056 10.1953H25.267Z" fill="currentColor"/>
</svg>
