<svg class="icon" width="45" height="45" viewBox="0 0 45 45" fill="none" xmlns="http://www.w3.org/2000/svg">
<path d="M11.9585 23.3484C12.078 23.326 12.2638 23.3343 12.619 23.3607L13.3122 23.4119L13.293 23.6738C13.2803 23.8433 13.1909 24.1308 13.1083 24.3124C13.039 24.4453 12.9867 24.515 12.9332 24.552C12.883 24.5867 12.8226 24.5989 12.7193 24.5912C12.6362 24.585 12.5081 24.5942 12.3729 24.6135C12.2372 24.6328 12.0888 24.663 11.9616 24.7C11.8408 24.7305 11.7159 24.7532 11.6141 24.7639C11.5632 24.7692 11.5194 24.7714 11.4854 24.7704C11.4685 24.7699 11.4549 24.7687 11.4449 24.767C11.4361 24.7655 11.4319 24.7638 11.4311 24.7635L11.4287 24.7625C11.4326 24.7644 11.4247 24.7628 11.4157 24.735C11.4072 24.709 11.4016 24.6705 11.3999 24.6207C11.3965 24.5215 11.4098 24.3899 11.437 24.2485C11.4641 24.1076 11.5046 23.9598 11.5533 23.8287C11.6026 23.6964 11.6589 23.5858 11.7157 23.5159C11.7594 23.4622 11.793 23.4262 11.8287 23.4005C11.8629 23.376 11.902 23.3589 11.9585 23.3484Z" fill="currentColor"/>
<path d="M15.2774 21.2369C15.3526 21.2318 15.4536 21.2697 15.5891 21.3684L15.5908 21.3694C15.6568 21.4148 15.7773 21.4665 15.9111 21.5143C16.0474 21.563 16.2054 21.6104 16.3513 21.6468L16.3537 21.6475C16.4807 21.6747 16.5743 21.6957 16.6441 21.7169C16.7146 21.7382 16.7537 21.7577 16.777 21.7773C16.7972 21.7943 16.8098 21.815 16.8179 21.8511C16.8267 21.891 16.8291 21.9444 16.8309 22.0242C16.8369 22.281 16.7955 22.3965 16.6977 22.4567C16.6445 22.4895 16.5664 22.5111 16.4512 22.5203C16.3365 22.5293 16.1906 22.5254 16.0059 22.5117L15.3529 22.4633C15.3321 22.4618 15.3117 22.4696 15.2973 22.4846C15.2828 22.4996 15.2754 22.5205 15.2777 22.5412L15.3141 22.867L15.3144 22.8684C15.3435 23.095 15.3925 23.2639 15.495 23.3782C15.6003 23.4954 15.7505 23.543 15.9486 23.5578C16.0702 23.5668 16.1382 23.5872 16.1855 23.6216C16.2323 23.6559 16.2691 23.7119 16.3101 23.8173L16.3104 23.8184C16.3373 23.8838 16.3501 23.9501 16.3516 24.002C16.3524 24.028 16.3502 24.0485 16.3468 24.0625C16.346 24.066 16.3448 24.0687 16.3441 24.0707C16.3426 24.0712 16.3409 24.0722 16.3389 24.0728C16.3258 24.0765 16.3068 24.0805 16.2819 24.0848C16.2322 24.0934 16.1637 24.1019 16.0814 24.1095C15.9172 24.1247 15.7011 24.1357 15.4755 24.139L14.7129 24.1376L14.8008 22.9573C14.8312 22.549 14.8677 22.2191 14.9138 21.9603C14.9601 21.7003 15.0151 21.5174 15.0796 21.3997C15.1433 21.2834 15.2094 21.2416 15.2774 21.2369Z" fill="currentColor"/>
<path d="M34.1538 26.637C34.2826 26.6245 34.3505 26.632 34.3958 26.6556C34.4389 26.6781 34.4748 26.7226 34.5197 26.8224L34.5201 26.8231C34.6118 27.0227 34.6428 27.1555 34.6289 27.2495C34.6162 27.335 34.564 27.4018 34.4435 27.4641L34.4425 27.4644C34.2669 27.558 34.126 27.599 34.0044 27.5953C33.8853 27.5915 33.7757 27.5445 33.6628 27.4442C33.5525 27.3462 33.4906 27.2498 33.4657 27.1637C33.4414 27.0791 33.4518 27.0004 33.4918 26.9306C33.5742 26.7871 33.7947 26.6634 34.152 26.6374L34.1538 26.637Z" fill="currentColor"/>
<path d="M28.0897 26.498C28.1244 26.5109 28.1731 26.5553 28.2105 26.6724C28.2456 26.8015 28.2584 27.0192 28.2387 27.1513C28.2093 27.3066 28.115 27.3569 28.0375 27.3501C27.9558 27.3428 27.8568 27.2695 27.8294 27.1043L27.8291 27.1029L27.8215 27.0545C27.7914 26.8155 27.8727 26.6207 27.9664 26.5368C28.0154 26.4929 28.058 26.4863 28.0897 26.498Z" fill="currentColor"/>
<path d="M33.7548 24.7632C33.8894 24.7602 33.9646 24.7733 34.0082 24.7975C34.0445 24.8177 34.0677 24.8511 34.0806 24.9239L34.081 24.9259C34.1018 25.0259 34.0599 25.1164 33.9543 25.1862C33.8462 25.2575 33.6752 25.3024 33.4623 25.2957C33.3022 25.2908 33.2156 25.2483 33.176 25.204C33.14 25.1636 33.1324 25.1094 33.1598 25.0457C33.2175 24.9125 33.4284 24.7586 33.7524 24.7632H33.7548Z" fill="currentColor"/>
<path d="M33.8733 19.8101C33.89 19.8445 33.9046 19.8974 33.9083 19.9601C33.9118 20.0195 33.9061 20.0647 33.8966 20.0961C33.8868 20.1284 33.8749 20.1401 33.8702 20.1431C33.8688 20.144 33.866 20.1464 33.8554 20.1417C33.8418 20.1357 33.8196 20.119 33.7936 20.0816L33.7926 20.0803L33.7819 20.0624C33.7598 20.0179 33.7571 19.9525 33.7768 19.8894C33.7876 19.8547 33.8037 19.8258 33.8214 19.8066C33.8341 19.793 33.8463 19.7869 33.8564 19.7836C33.8608 19.789 33.8671 19.7974 33.8733 19.8101Z" fill="currentColor"/>
<path fill-rule="evenodd" clip-rule="evenodd" d="M40.7358 5.27344C41.3182 5.27352 41.7905 5.74569 41.7905 6.32812V8.08594C41.7905 8.66838 41.3182 9.14055 40.7358 9.14062H39.6811C39.2928 9.14069 38.978 9.45547 38.978 9.84375V10.8984C38.978 24.8365 41.2403 32.873 42.3803 36.0379C42.6459 36.7755 42.0982 37.6172 41.3143 37.6172H26.986C26.1065 37.6172 25.2376 37.3098 24.6363 36.6679C23.1969 35.131 22.4545 31.289 22.4545 27.7734C22.4545 31.289 21.7118 35.1311 20.2724 36.6679C19.6711 37.3098 18.8025 37.6171 17.923 37.6172H3.59442C2.81054 37.617 2.26313 36.7755 2.52875 36.0379C3.66877 32.873 5.93108 24.8365 5.93108 10.8984V9.84375C5.93108 9.45547 5.61621 9.1407 5.22795 9.14062H4.17327C3.59083 9.14056 3.11858 8.66839 3.11858 8.08594V6.32812C3.11858 5.74568 3.59083 5.2735 4.17327 5.27344H40.7358ZM10.7537 15.934C10.7024 15.939 10.6586 15.961 10.6253 16.005C10.5958 16.0441 10.5777 16.0969 10.5632 16.1578C10.5484 16.2201 10.5352 16.3003 10.5203 16.3998C10.471 16.7263 10.3942 16.926 10.2745 17.0456C10.172 17.148 10.0286 17.2011 9.81338 17.2125L9.71657 17.2149C9.61057 17.2146 9.52478 17.2159 9.45598 17.2221C9.38778 17.2282 9.32969 17.2395 9.28226 17.2626C9.17722 17.3138 9.14731 17.4105 9.12365 17.5249L9.1233 17.5266C9.09198 17.6983 9.18517 17.8972 9.3444 18.0904C9.4865 18.2627 9.69103 18.4426 9.94316 18.6132L10.0541 18.686C10.166 18.758 10.2278 18.8165 10.2618 18.8766C10.2947 18.935 10.3062 19.0035 10.2985 19.1066C10.2861 19.2728 10.2966 19.5508 10.3143 19.7263L10.3146 19.7294C10.3345 19.866 10.3283 19.9236 10.2913 19.9745C10.2707 20.0028 10.2375 20.0333 10.1821 20.071C10.1268 20.1086 10.0534 20.1506 9.95621 20.2039L9.95483 20.2049C9.69993 20.352 9.53062 20.5272 9.47555 20.7195C9.41888 20.9175 9.48863 21.1138 9.66575 21.285C9.72192 21.3418 9.80541 21.3867 9.90265 21.423C10.0012 21.4598 10.1203 21.4898 10.2525 21.5136C10.517 21.5613 10.8421 21.5854 11.1812 21.5864C11.8572 21.5885 12.6049 21.4993 13.0554 21.3145L13.0561 21.3142C13.24 21.2362 13.3462 21.202 13.4114 21.1974C13.4414 21.1953 13.4566 21.2003 13.465 21.205C13.4734 21.2098 13.4835 21.2192 13.4952 21.241L13.4959 21.2424C13.5104 21.2682 13.5242 21.3218 13.5319 21.4021C13.5393 21.4796 13.5403 21.5738 13.5353 21.674C13.5254 21.8742 13.4917 22.0911 13.4426 22.2408C13.4229 22.2943 13.4102 22.327 13.398 22.3476C13.3943 22.3538 13.3911 22.3567 13.3894 22.3586C13.3874 22.3584 13.384 22.3584 13.3795 22.3572C13.3697 22.3545 13.3559 22.3494 13.3372 22.3404C13.2994 22.322 13.2491 22.292 13.1786 22.2487L13.1783 22.2483L13.0753 22.1907C12.8285 22.0623 12.5367 21.9798 12.2486 21.9493C11.961 21.9189 11.6714 21.9395 11.4294 22.0218L11.3288 22.0609C11.0985 22.1599 10.7415 22.2211 10.5124 22.2041C10.3884 22.1948 10.2657 22.1964 10.1667 22.2047C10.1172 22.2089 10.0723 22.2148 10.0355 22.2226C10.0017 22.2297 9.96475 22.2404 9.93904 22.258L9.93801 22.2586C9.93109 22.2636 9.90685 22.2754 9.85939 22.2923C9.81476 22.3081 9.75607 22.326 9.68738 22.3452C9.55005 22.3835 9.37393 22.4258 9.19094 22.4622C8.79919 22.5433 8.55565 22.6037 8.40885 22.6844C8.33269 22.7262 8.27777 22.776 8.24165 22.8402C8.20624 22.9033 8.19247 22.9741 8.18672 23.0514C8.17004 23.2756 8.31344 23.4552 8.53004 23.5698C8.747 23.6845 9.04972 23.7423 9.38801 23.726L9.90951 23.6985L10.2944 24.1758L10.2947 24.1764C10.4098 24.3154 10.5127 24.4483 10.5859 24.5507C10.6224 24.6018 10.651 24.6447 10.67 24.6763C10.6789 24.6913 10.6852 24.7027 10.6889 24.7107C10.6856 24.7248 10.677 24.7438 10.6573 24.7663C10.634 24.7928 10.5996 24.8197 10.5574 24.8435C10.4721 24.8916 10.3647 24.9209 10.2707 24.9139C10.087 24.9003 9.88787 24.9423 9.73202 25.0128C9.65403 25.048 9.58368 25.0918 9.53083 25.1422C9.47874 25.192 9.43735 25.2545 9.43195 25.3262C9.42875 25.3693 9.44599 25.4133 9.46628 25.4502C9.48776 25.4892 9.51856 25.5306 9.5552 25.5717C9.62822 25.6536 9.73022 25.7405 9.84566 25.8124C10.0269 25.9339 10.1549 26.0066 10.372 26.0496C10.5831 26.0915 10.8794 26.1053 11.3968 26.1186C11.71 26.1267 12.0239 26.13 12.2802 26.1275C12.5335 26.1251 12.7373 26.1171 12.826 26.1018H12.8267C12.8849 26.0912 12.9275 26.0854 12.9586 26.0843C12.9863 26.0834 12.9981 26.0866 13.0018 26.0881C13.0023 26.0891 13.0035 26.0917 13.0046 26.0966C13.0078 26.1116 13.0087 26.1365 13.0056 26.178C13.0007 26.244 12.987 26.2912 12.9637 26.327C12.941 26.3619 12.905 26.3923 12.8446 26.4177C12.7183 26.4705 12.5026 26.4947 12.1373 26.498H12.1353C11.862 26.5079 11.4339 26.5236 11.0607 26.5433L10.7136 26.5643C10.2966 26.5839 9.67078 26.6179 9.32896 26.6226H9.32793C9.18124 26.6269 9.06582 26.6318 8.97568 26.6401C8.8866 26.6484 8.81603 26.6603 8.76213 26.6817C8.70506 26.7043 8.66362 26.7386 8.63819 26.7891C8.61508 26.8351 8.60849 26.8888 8.60454 26.9419C8.57702 27.3119 8.8978 27.6351 9.36981 27.8043C9.61703 27.8938 9.77863 27.9437 9.9974 27.9533C10.2124 27.9628 10.4813 27.9332 10.9439 27.872L10.9436 27.8716C11.369 27.823 11.9588 27.8081 12.2499 27.8493H12.2506C12.3785 27.8664 12.4737 27.8804 12.5479 27.8974C12.6217 27.9142 12.6704 27.9329 12.7073 27.9575C12.7805 28.0063 12.8498 27.9722 12.9332 28.1693C13.0546 28.4528 13.2562 28.6898 13.4814 28.8422C13.7055 28.9937 13.9622 29.067 14.1901 29.0039L14.1897 29.0036C14.2581 28.9863 14.3192 28.9691 14.3689 28.9414C14.4227 28.9115 14.4621 28.8704 14.4901 28.8106C14.5166 28.7542 14.5324 28.6827 14.5444 28.5929C14.5565 28.5024 14.5657 28.3864 14.5766 28.2386C14.5938 28.0083 14.5899 27.9646 14.6202 27.8582C14.6511 27.7501 14.686 27.7135 14.7143 27.7007L14.716 27.7C14.716 27.7 14.717 27.6996 14.7181 27.6993C14.7197 27.6987 14.7223 27.6979 14.7253 27.6972C14.7315 27.6957 14.7398 27.6941 14.7504 27.6928C14.7718 27.6901 14.8001 27.6887 14.8345 27.6883C14.9032 27.6875 15.6959 27.6914 15.8002 27.6996C16.009 27.7161 16.2731 27.7487 16.5398 27.7899C16.8063 27.8311 17.0748 27.8807 17.2927 27.9303C17.4015 27.9552 17.4971 27.98 17.5732 28.0035C17.6509 28.0275 17.7024 28.0486 17.7277 28.0646C17.7896 28.1045 17.886 28.1412 17.9869 28.1693C18.0894 28.1978 18.2039 28.2198 18.3048 28.2273C18.4419 28.2375 18.5491 28.2333 18.6371 28.1926C18.728 28.1506 18.7869 28.0753 18.8421 27.9736C18.895 27.8783 18.9357 27.7968 18.9598 27.7243C18.9842 27.6511 18.9933 27.5824 18.9784 27.5146C18.9634 27.4469 18.9261 27.3882 18.8737 27.3319C18.8219 27.2763 18.752 27.2191 18.6656 27.1544C18.2262 26.8189 17.9223 26.6105 17.669 26.4939C17.4112 26.3753 17.2049 26.3513 16.9631 26.3813C16.733 26.4037 16.3249 26.4133 16.0759 26.405C15.8784 26.3903 15.0687 26.3713 15.0082 26.3421C14.9808 26.3289 14.9652 26.3148 14.955 26.2992C14.9441 26.2826 14.9358 26.2592 14.9296 26.2233L14.9292 26.2223L14.9272 26.1859C14.9297 26.15 14.9469 26.1155 14.9811 26.0819C15.0286 26.0351 15.107 25.9926 15.2125 25.961C15.4229 25.8982 15.7203 25.8855 16.0244 25.9473C16.2529 25.9939 16.3935 26.0241 16.5504 25.9682C16.6272 25.9409 16.705 25.8943 16.7983 25.8268C16.8917 25.7593 17.0049 25.6676 17.1523 25.5477L17.2879 25.4337C17.4169 25.3218 17.5251 25.2163 17.6075 25.1216C17.6623 25.0586 17.707 24.9992 17.739 24.9448C17.7703 24.8916 17.7929 24.8374 17.7967 24.7865C17.798 24.7694 17.8065 24.7394 17.8269 24.6966C17.8467 24.655 17.8751 24.6061 17.9107 24.5534C17.9818 24.448 18.079 24.3302 18.185 24.2252L18.1857 24.2245C18.3683 24.0386 18.4638 23.9527 18.5695 23.9114C18.6744 23.8705 18.7968 23.8706 19.0457 23.8891C19.3458 23.9114 19.5611 23.8987 19.7045 23.8098C19.8563 23.7156 19.9091 23.5498 19.9256 23.3284C19.9309 23.2569 19.9323 23.1903 19.9157 23.1259C19.8984 23.0594 19.8637 23.0005 19.8065 22.9401C19.6969 22.8248 19.4927 22.6916 19.1346 22.4701C18.9237 22.3339 18.7109 22.1874 18.5386 22.0605C18.3636 21.9317 18.2368 21.8278 18.1918 21.7756C18.1427 21.7186 18.0852 21.6632 18.0312 21.6211C18.0042 21.6001 17.9767 21.5813 17.9508 21.5672C17.9264 21.554 17.8967 21.5409 17.8667 21.5387C17.8519 21.5376 17.8455 21.5341 17.8437 21.5329C17.8427 21.5322 17.8416 21.5314 17.8406 21.5284C17.8373 21.5181 17.8363 21.4903 17.8564 21.4408C17.8955 21.3447 17.9958 21.2096 18.153 21.0742C18.2501 20.9905 18.3378 20.8881 18.4026 20.7875C18.4662 20.689 18.5135 20.5839 18.52 20.496C18.5353 20.2898 18.3919 20.0886 18.2045 19.9495C18.0144 19.8083 17.759 19.7148 17.5148 19.7352C17.3242 19.7501 17.1511 19.7295 17.03 19.6892C16.9693 19.669 16.9256 19.645 16.8992 19.6219C16.8743 19.6 16.8705 19.5846 16.8707 19.5763C16.8703 19.5797 16.8697 19.5788 16.8728 19.5721C16.8758 19.5657 16.8809 19.5566 16.8886 19.545C16.9039 19.5219 16.9267 19.4929 16.9559 19.4599C17.0138 19.3942 17.0929 19.3171 17.177 19.2446C17.3206 19.1302 17.4082 19.0761 17.5007 19.0541C17.5942 19.0318 17.7017 19.04 17.8911 19.0743C18.0219 19.0993 18.1332 19.1137 18.2269 19.1114C18.321 19.1091 18.403 19.0903 18.4699 19.0448C18.6044 18.9533 18.6478 18.776 18.6656 18.5367C18.6766 18.3885 18.6643 18.2645 18.6093 18.1353C18.5553 18.0086 18.462 17.8813 18.3209 17.723L18.3206 17.7223L18.1716 17.5654C18.1228 17.5165 18.0757 17.4717 18.0332 17.4336C17.9909 17.3957 17.952 17.3633 17.9196 17.3399C17.9035 17.3283 17.8877 17.3179 17.8732 17.31C17.8609 17.3033 17.8409 17.2935 17.819 17.2918C17.804 17.2906 17.7731 17.2779 17.7301 17.242C17.6895 17.2082 17.6461 17.1608 17.6068 17.1074C17.5676 17.0542 17.5337 16.9966 17.5107 16.944C17.4869 16.8896 17.4779 16.8474 17.4798 16.8218V16.8194C17.4858 16.6568 17.3929 16.4817 17.2628 16.3422C17.1312 16.2011 16.95 16.0836 16.7595 16.0418C16.6804 16.0233 16.6145 16.0096 16.56 16.0033C16.5058 15.9971 16.4557 15.9973 16.4114 16.0115C16.3147 16.0426 16.2762 16.1291 16.2445 16.2244L16.2249 16.2817C16.1791 16.429 16.1384 16.6623 16.1257 16.8324C16.1155 16.9693 16.1009 17.0716 16.0773 17.1479C16.0541 17.2233 16.0236 17.2682 15.9853 17.2966C15.9463 17.3255 15.89 17.344 15.8026 17.3495C15.7149 17.3549 15.6018 17.3466 15.4552 17.3282C15.0742 17.2797 14.8538 17.3013 14.6899 17.4312C14.6407 17.4691 14.5966 17.5031 14.5653 17.538C14.5313 17.5758 14.5086 17.6183 14.5045 17.6729C14.5008 17.723 14.5135 17.7774 14.5337 17.8384C14.5542 17.9002 14.5858 17.9777 14.6261 18.0759L14.6268 18.0773C14.7015 18.2475 14.7717 18.3673 14.8777 18.4615C14.9827 18.5546 15.1176 18.618 15.31 18.6881C15.5037 18.7638 15.6077 18.8138 15.666 18.8676C15.716 18.9139 15.7357 18.9665 15.7371 19.0726V19.0743C15.74 19.1552 15.7254 19.225 15.6935 19.2868C15.6614 19.3489 15.6096 19.4071 15.5318 19.4613L15.5307 19.4619C15.3567 19.5879 15.2774 19.6208 15.1943 19.5996C15.149 19.588 15.095 19.5586 15.0216 19.5007C14.9484 19.4431 14.861 19.3616 14.748 19.2522L14.7476 19.2518C14.4667 18.981 14.2138 18.8267 13.9738 18.8131C13.7273 18.7992 13.517 18.934 13.3256 19.1818L13.3245 19.1828C13.014 19.6028 12.5053 19.8265 11.9653 19.7864L11.6035 19.7596L11.6268 19.4479C11.6445 19.2104 11.7037 19.0698 11.8201 18.9792C11.9415 18.8849 12.1387 18.8332 12.4618 18.812L12.4614 18.8117C12.7538 18.7982 12.9541 18.7694 13.0935 18.6881C13.2402 18.6024 13.3085 18.4661 13.3592 18.2764L13.3589 18.2761C13.3953 18.1562 13.3984 18.0546 13.3424 17.9376C13.2899 17.8279 13.1866 17.7072 13.0286 17.54C12.8684 17.3706 12.7434 17.2588 12.6118 17.1874C12.4783 17.1151 12.343 17.0865 12.1672 17.0734C11.9552 17.0576 11.7899 16.9993 11.6824 16.9155C11.5772 16.8334 11.5259 16.7266 11.5351 16.6021C11.5462 16.4533 11.4657 16.3031 11.3511 16.1877C11.2352 16.0709 11.0741 15.9788 10.9034 15.9494C10.85 15.9381 10.7987 15.9295 10.7537 15.934ZM32.2425 16.5234C32.1383 16.5114 32.0552 16.5453 31.9675 16.6045L31.8772 16.6711L31.8734 16.6742C31.8347 16.709 31.8006 16.7458 31.7752 16.7916C31.7495 16.8379 31.7349 16.8897 31.7292 16.9519C31.7183 17.0718 31.74 17.2417 31.7859 17.5095C31.8205 17.7116 31.8406 17.8652 31.8415 17.9832C31.8423 18.1015 31.8233 18.1743 31.7886 18.2232C31.7548 18.2709 31.6979 18.3072 31.5967 18.3338C31.4946 18.3605 31.3566 18.375 31.171 18.386C30.8647 18.4041 30.6451 18.4438 30.5053 18.5339C30.4327 18.5807 30.3812 18.6413 30.3504 18.7173C30.3203 18.7918 30.3116 18.8769 30.3171 18.971C30.3269 19.1362 30.4311 19.2774 30.5938 19.3878C30.7567 19.4982 30.9862 19.5837 31.2671 19.6391C31.7876 19.7469 32.0954 20.0254 32.1134 20.3285C32.1184 20.4136 32.1089 20.4693 32.0846 20.5101C32.0609 20.5497 32.0164 20.5866 31.9263 20.6189C31.8353 20.6516 31.705 20.6768 31.5205 20.6976C31.4286 20.7079 31.3241 20.717 31.2056 20.7254L30.8064 20.7491C30.518 20.761 30.2645 20.7836 30.0727 20.8115C29.977 20.8255 29.8952 20.841 29.8317 20.8575C29.8 20.8658 29.7717 20.8748 29.7479 20.8843C29.7252 20.8934 29.7015 20.9047 29.6834 20.92L29.6806 20.9228C29.5634 21.0328 29.5219 21.1682 29.546 21.3073C29.5695 21.4423 29.6533 21.5746 29.7719 21.6901C30.0097 21.9216 30.4077 22.107 30.8482 22.1385H30.85C31.1451 22.1515 31.5553 22.1381 31.7635 22.0942L31.7653 22.0938C31.9158 22.0583 32.0361 22.0542 32.1247 22.0715C32.2128 22.0888 32.2651 22.1259 32.2919 22.1701C32.3188 22.2144 32.3279 22.2791 32.3029 22.3671C32.2778 22.4554 32.2195 22.5622 32.1199 22.682C31.413 23.5258 30.8801 24.1388 30.5005 24.5421C30.3105 24.7439 30.16 24.8918 30.0462 24.9894C29.9893 25.0383 29.943 25.0734 29.9065 25.0962C29.8871 25.1083 29.8723 25.1156 29.8619 25.1199L29.8427 25.1257C29.797 25.1284 29.7205 25.1198 29.6336 25.1003C29.5476 25.0811 29.4572 25.0528 29.385 25.0196L29.3847 25.0193L29.3359 25.0001C29.2169 24.9585 29.056 24.9405 28.8154 24.9403C28.5386 24.9402 28.1462 24.9638 27.574 25.0076H27.5733C27.1658 25.0418 26.786 25.0818 26.5032 25.1175C26.3619 25.1353 26.244 25.1521 26.1588 25.1666C26.1164 25.1738 26.0806 25.1806 26.0541 25.1868C26.0411 25.1899 26.0289 25.1931 26.0187 25.1965C26.012 25.1987 25.9946 25.2046 25.9806 25.2164L25.9672 25.2315C25.9589 25.2443 25.9547 25.2582 25.9528 25.2658C25.9504 25.2751 25.9488 25.2855 25.9473 25.296C25.9443 25.3172 25.9417 25.3441 25.9398 25.375C25.936 25.4371 25.9341 25.5209 25.9336 25.6198C25.9326 25.818 25.9378 26.081 25.9494 26.3634V26.3641L26.0002 27.3906C26.001 27.4076 26.008 27.4237 26.0198 27.436L26.5464 27.9805C26.8536 28.2964 27.0688 28.4823 27.3821 28.584C27.6904 28.6841 28.0892 28.701 28.7578 28.7018L29.1406 28.6997C29.253 28.6974 29.351 28.6927 29.4355 28.6839C29.6032 28.6665 29.7331 28.6314 29.8234 28.5521C29.9163 28.4705 29.9548 28.3537 29.969 28.2057C29.983 28.0586 29.9742 27.8666 29.9597 27.6217C29.9445 27.3633 29.9438 27.2172 29.9663 27.1187C29.9866 27.0294 30.0262 26.9786 30.1094 26.9141L30.1118 26.912C30.1594 26.8718 30.2453 26.8292 30.3484 26.795C30.45 26.7613 30.561 26.7384 30.6543 26.7328C30.9335 26.7163 31.1556 26.6151 31.3674 26.4108C31.4452 26.3387 31.5254 26.2794 31.5895 26.2419C31.6219 26.2229 31.648 26.2106 31.666 26.2048C31.6698 26.2113 31.6746 26.2201 31.6798 26.2312C31.6944 26.2631 31.7111 26.3084 31.7285 26.3644C31.7633 26.4765 31.7995 26.6257 31.8288 26.7833C31.8592 26.9508 31.9028 27.123 31.95 27.266C31.9735 27.3375 31.9985 27.403 32.0234 27.4572C32.0477 27.5099 32.0743 27.5574 32.1031 27.5894C32.1396 27.6299 32.1783 27.6934 32.2085 27.7628C32.2388 27.8324 32.2577 27.901 32.2607 27.9499C32.2652 28.0267 32.3045 28.1224 32.3551 28.2115C32.4067 28.3023 32.4756 28.3965 32.5494 28.4724L32.7973 28.7402C32.8118 28.7559 32.8329 28.7641 32.8543 28.7626L34.4514 28.6379L34.4518 28.6383C34.8901 28.6073 35.308 28.5647 35.6287 28.5229C35.7888 28.502 35.9254 28.4811 36.0286 28.4618C36.0801 28.4522 36.1243 28.443 36.1591 28.434C36.1914 28.4256 36.2232 28.4157 36.2446 28.4034L36.2473 28.4017C36.3998 28.3041 36.4711 28.091 36.4887 27.8061C36.5044 27.5517 36.4785 27.2208 36.4118 26.8163L36.3809 26.6384L36.3081 26.224C36.2309 25.7636 36.1443 25.194 36.0898 24.7817C36.0325 24.32 35.9968 24.0602 35.9332 23.8843C35.8663 23.6995 35.7686 23.606 35.6077 23.4726C35.4456 23.3332 35.3454 23.2475 35.1769 23.2237C35.0958 23.2123 35.0012 23.2154 34.8795 23.2278C34.7576 23.2403 34.6032 23.2629 34.4013 23.2924C34.1393 23.3305 33.9439 23.3492 33.8108 23.347C33.7439 23.3458 33.6972 23.3392 33.6673 23.3298C33.6371 23.3203 33.6364 23.3121 33.6381 23.3161C33.6397 23.3201 33.6342 23.313 33.6501 23.2831C33.6653 23.2546 33.6944 23.2165 33.7411 23.1681C33.8342 23.0715 33.9853 22.9458 34.195 22.7874L34.1953 22.787C34.636 22.4506 34.8678 22.3456 35.148 22.329C35.3683 22.316 35.7737 22.2196 36.0547 22.1107L36.0558 22.1103C36.1709 22.0634 36.262 22.0255 36.3318 21.9898C36.4013 21.9543 36.4567 21.9176 36.4959 21.87C36.5368 21.8204 36.5553 21.7648 36.5625 21.7007C36.5694 21.6394 36.5663 21.5659 36.5611 21.479V21.4776L36.5505 21.3869C36.4826 20.9424 36.1875 20.6156 35.7334 20.5503H35.7327C35.6174 20.5352 35.5392 20.5096 35.4896 20.4751C35.4441 20.4433 35.4188 20.4016 35.4127 20.3391C35.4062 20.2722 35.4216 20.18 35.4666 20.0538C35.5113 19.9285 35.583 19.7752 35.6822 19.589C35.893 19.1892 35.9994 18.8574 35.9919 18.57C35.9842 18.2781 35.8594 18.0406 35.6294 17.8312L35.6287 17.8305L35.5428 17.7587C35.4578 17.6928 35.3742 17.6437 35.2871 17.6104C35.1702 17.5658 35.0503 17.5513 34.9166 17.5592C34.8406 17.5637 34.7762 17.5699 34.723 17.5819C34.6692 17.5941 34.6217 17.613 34.5829 17.6461C34.5063 17.7116 34.4841 17.8154 34.4672 17.9427C34.4488 18.0468 34.4255 18.1105 34.3972 18.1484C34.3725 18.1813 34.341 18.1988 34.2887 18.2019C34.2413 18.2047 34.1933 18.1988 34.1551 18.1875C34.1362 18.1819 34.1209 18.1754 34.1098 18.169C34.1044 18.1658 34.1005 18.1627 34.0978 18.1604C34.0965 18.1593 34.0953 18.1583 34.0947 18.1577L34.094 18.1566C34.0771 18.1319 34.0505 18.1127 34.0267 18.0983C34.0011 18.0827 33.9699 18.0678 33.9368 18.0543C33.8704 18.0272 33.7891 18.0028 33.7088 17.9863L33.7071 17.986L33.6254 17.9692C33.4436 17.9271 33.3204 17.862 33.245 17.779C33.1613 17.6868 33.127 17.5624 33.1495 17.3941V17.3931C33.1665 17.2498 33.1678 17.141 33.1015 17.0405C33.0697 16.9924 33.0249 16.9498 32.9683 16.9066C32.9117 16.8634 32.8396 16.8166 32.7506 16.7614L32.7499 16.7607L32.5892 16.6659C32.5408 16.6383 32.497 16.6147 32.4571 16.5952C32.3775 16.5563 32.308 16.531 32.2425 16.5234ZM28.1686 22.9131C27.9845 22.8937 27.8031 22.9329 27.5537 23.0137C27.4398 23.0493 27.2069 23.0929 26.98 23.1236L26.7593 23.1493C26.449 23.1729 26.2012 23.2411 26.0517 23.3453C25.9761 23.398 25.9195 23.4643 25.8993 23.5445C25.8786 23.6265 25.8993 23.7097 25.9518 23.7875L25.9525 23.7886C26.0667 23.9524 26.2659 24.0995 26.4925 24.2091C26.7197 24.319 26.9819 24.3949 27.2296 24.4121C27.4906 24.4366 27.8177 24.5066 27.9726 24.582L27.975 24.583C28.3001 24.7276 28.6648 24.6695 28.9332 24.5003C29.1844 24.342 29.3631 24.0777 29.3359 23.7766L29.3277 23.7158C29.2889 23.4708 29.121 23.3236 28.776 23.1414C28.5304 23.0093 28.3519 22.9325 28.1686 22.9131ZM28.1896 21.0434C27.9785 21.039 27.716 21.0493 27.3865 21.0688C26.944 21.0949 26.6365 21.1232 26.4187 21.1618C26.2021 21.2002 26.0647 21.2504 25.9689 21.3266C25.8257 21.4384 25.733 21.5547 25.7502 21.7053C25.7584 21.7764 25.7909 21.8473 25.8399 21.9202C25.889 21.9933 25.9582 22.0732 26.0452 22.1626C26.1646 22.288 26.2614 22.3708 26.3799 22.416C26.4981 22.461 26.6302 22.4655 26.8125 22.4548C27.0146 22.4428 27.1726 22.4485 27.3488 22.484C27.5262 22.5197 27.7249 22.5867 28.0079 22.7006L28.01 22.7013C28.0829 22.728 28.1715 22.7323 28.2582 22.7243C28.3459 22.7162 28.4378 22.6949 28.5212 22.6652C28.6041 22.6356 28.6826 22.5965 28.7409 22.5506C28.7937 22.509 28.8458 22.4486 28.8453 22.3734C28.8482 22.3698 28.8546 22.3635 28.8659 22.3566C28.8895 22.3421 28.9254 22.3301 28.9648 22.3277C29.0402 22.3233 29.1081 22.3093 29.1629 22.2793C29.22 22.248 29.2602 22.2007 29.2803 22.1379C29.2995 22.0778 29.2986 22.0082 29.2851 21.9322C29.2715 21.8557 29.2439 21.7672 29.2044 21.6665V21.6658L29.1612 21.5635C29.117 21.4659 29.069 21.382 29.0098 21.3122C28.9291 21.2172 28.8296 21.1511 28.696 21.1086C28.5644 21.0668 28.4 21.0477 28.1896 21.0434ZM28.1878 18.9758L28.1017 18.9844C27.8852 19.0122 27.5703 19.0953 27.3508 19.1801C27.1113 19.2726 26.59 19.3933 26.1839 19.4273H26.1818C25.8913 19.4595 25.6903 19.4919 25.5494 19.5361C25.4067 19.5809 25.317 19.6407 25.259 19.7325L25.2243 19.7912C25.1498 19.9291 25.125 20.0746 25.1536 20.2179C25.182 20.3605 25.2621 20.4947 25.3874 20.6131L25.4437 20.6629L25.7084 20.8888C25.7233 20.9015 25.7432 20.9072 25.7626 20.9049L27.5863 20.6862L27.586 20.6859C28.1214 20.624 28.5253 20.5777 28.825 20.528C29.1223 20.4786 29.3287 20.4245 29.4623 20.3426C29.5309 20.3004 29.5826 20.2497 29.6171 20.187C29.6513 20.1248 29.6658 20.0556 29.6686 19.9804C29.6739 19.8342 29.6338 19.6483 29.5855 19.4183C29.5806 19.3936 29.568 19.3732 29.5553 19.3579C29.5422 19.3422 29.526 19.3278 29.5089 19.315C29.4748 19.2894 29.4301 19.2643 29.3799 19.2405C29.2788 19.1927 29.145 19.145 29.0025 19.1035C28.721 19.0216 28.3875 18.9592 28.1878 18.9758ZM27.1253 16.8287H27.1235C27.0444 16.8433 26.8078 16.8776 26.6055 16.91H26.6048C26.5157 16.9253 26.4423 16.9388 26.3851 16.9567C26.3274 16.9748 26.2766 17.0003 26.2405 17.0449C26.2043 17.0898 26.1905 17.1448 26.1856 17.2049C26.1807 17.2645 26.1837 17.3387 26.189 17.4284C26.1953 17.5352 26.2181 17.6505 26.2491 17.7505C26.2793 17.8479 26.3204 17.9408 26.3682 17.9956L26.3693 17.9966C26.5809 18.2301 26.9228 18.4077 27.2794 18.5054C27.6361 18.6031 28.0202 18.6244 28.3197 18.5319L28.3207 18.5315C28.3766 18.5134 28.4282 18.4951 28.4683 18.4694C28.5126 18.441 28.5443 18.4027 28.5593 18.3482C28.5729 18.2986 28.5715 18.2398 28.5634 18.1721C28.5552 18.1032 28.539 18.0163 28.5174 17.907L28.5171 17.9053L28.4941 17.8095C28.4694 17.7135 28.4401 17.6183 28.41 17.5356C28.3899 17.4804 28.3688 17.4299 28.3485 17.3876C28.3288 17.3465 28.3075 17.3087 28.2853 17.2825L28.2847 17.2815L28.2428 17.2413C28.1947 17.2008 28.1291 17.1599 28.0581 17.1215C27.9609 17.069 27.8447 17.0165 27.7278 16.9708C27.6109 16.9251 27.4916 16.8854 27.3879 16.8592C27.288 16.834 27.191 16.8181 27.1253 16.8287ZM10.853 9.14062C10.4647 9.14069 10.1498 9.45547 10.1498 9.84375V10.1953C10.1498 10.5836 10.4647 10.8984 10.853 10.8984H19.642C20.0303 10.8984 20.3451 10.5836 20.3451 10.1953V9.84375C20.3451 9.45547 20.0303 9.1407 19.642 9.14062H10.853ZM25.267 9.14062C24.8787 9.14069 24.5639 9.45547 24.5639 9.84375V10.1953C24.5639 10.5836 24.8787 10.8984 25.267 10.8984H33.8106C34.1989 10.8984 34.7592 10.5836 34.7592 10.1953V9.84375C34.7592 9.45547 34.4443 9.1407 34.0561 9.14062H25.267Z" fill="currentColor"/>
</svg>
