<svg class="icon" width="45" height="45" viewBox="0 0 45 45" fill="none" xmlns="http://www.w3.org/2000/svg">
<path d="M12.0807 24.4528C12.2002 24.4305 12.386 24.4388 12.7412 24.4652L13.4344 24.5163L13.4152 24.7783C13.4025 24.9477 13.3131 25.2353 13.2305 25.4169C13.1612 25.5498 13.109 25.6194 13.0554 25.6565C13.0052 25.6912 12.9448 25.7033 12.8415 25.6956C12.7584 25.6895 12.6303 25.6987 12.4951 25.718C12.3595 25.7373 12.211 25.7675 12.0838 25.8045C11.963 25.835 11.8381 25.8577 11.7363 25.8683C11.6855 25.8737 11.6416 25.8758 11.6076 25.8749C11.5907 25.8744 11.5771 25.8731 11.5671 25.8714C11.5583 25.8699 11.5541 25.8683 11.5533 25.868L11.5509 25.867C11.5549 25.8688 11.547 25.8673 11.5379 25.8395C11.5294 25.8135 11.5238 25.775 11.5221 25.7252C11.5187 25.626 11.532 25.4944 11.5592 25.353C11.5863 25.2121 11.6268 25.0642 11.6756 24.9331C11.7248 24.8009 11.7811 24.6902 11.8379 24.6204C11.8816 24.5666 11.9152 24.5306 11.9509 24.505C11.9851 24.4805 12.0242 24.4634 12.0807 24.4528Z" fill="currentColor"/>
<path d="M15.3996 22.3414C15.4748 22.3363 15.5758 22.3742 15.7113 22.4729L15.713 22.4739C15.7791 22.5193 15.8995 22.571 16.0334 22.6188C16.1696 22.6674 16.3276 22.7148 16.4735 22.7513L16.4759 22.752C16.6029 22.7792 16.6965 22.8002 16.7663 22.8214C16.8368 22.8427 16.8759 22.8622 16.8992 22.8818C16.9194 22.8988 16.932 22.9195 16.9401 22.9556C16.9489 22.9954 16.9513 23.0489 16.9531 23.1286C16.9591 23.3854 16.9177 23.501 16.8199 23.5612C16.7667 23.5939 16.6886 23.6156 16.5734 23.6247C16.4587 23.6338 16.3128 23.6299 16.1281 23.6161L15.4751 23.5677C15.4543 23.5662 15.434 23.574 15.4195 23.589C15.405 23.6041 15.3976 23.6249 15.3999 23.6457L15.4363 23.9715L15.4367 23.9729C15.4657 24.1995 15.5147 24.3684 15.6172 24.4827C15.7225 24.5999 15.8727 24.6475 16.0708 24.6622C16.1924 24.6713 16.2604 24.6917 16.3077 24.7261C16.3546 24.7604 16.3914 24.8163 16.4323 24.9218L16.4326 24.9228C16.4595 24.9882 16.4723 25.0546 16.4738 25.1065C16.4746 25.1325 16.4724 25.153 16.469 25.1669C16.4682 25.1705 16.467 25.1731 16.4663 25.1752C16.4648 25.1757 16.4631 25.1767 16.4611 25.1772C16.4481 25.1809 16.429 25.1849 16.4041 25.1892C16.3545 25.1978 16.2859 25.2064 16.2036 25.214C16.0394 25.2291 15.8233 25.2402 15.5977 25.2435L14.8352 25.2421L14.923 24.0618C14.9534 23.6534 14.99 23.3235 15.036 23.0648C15.0823 22.8047 15.1373 22.6219 15.2018 22.5041C15.2655 22.3879 15.3316 22.3461 15.3996 22.3414Z" fill="currentColor"/>
<path d="M34.5127 27.6543C34.6415 27.6417 34.7094 27.6492 34.7547 27.6728C34.7979 27.6954 34.8337 27.7399 34.8787 27.8397L34.879 27.8404C34.9708 28.04 35.0018 28.1727 34.9879 28.2668C34.9752 28.3523 34.9229 28.4191 34.8025 28.4814L34.8014 28.4817C34.6258 28.5753 34.4849 28.6163 34.3634 28.6125C34.2442 28.6087 34.1347 28.5618 34.0217 28.4615C33.9115 28.3634 33.8495 28.2671 33.8247 28.181C33.8004 28.0964 33.8107 28.0177 33.8508 27.9478C33.9332 27.8043 34.1537 27.6807 34.511 27.6546L34.5127 27.6543Z" fill="currentColor"/>
<path d="M28.4486 27.5153C28.4833 27.5281 28.5321 27.5726 28.5694 27.6897C28.6045 27.8187 28.6173 28.0365 28.5976 28.1686C28.5683 28.3239 28.4739 28.3742 28.3964 28.3674C28.3147 28.3601 28.2157 28.2867 28.1884 28.1216L28.188 28.1202L28.1805 28.0718C28.1504 27.8327 28.2316 27.638 28.3253 27.5541C28.3744 27.5102 28.417 27.5036 28.4486 27.5153Z" fill="currentColor"/>
<path d="M34.1138 25.7804C34.2484 25.7775 34.3235 25.7905 34.3671 25.8148C34.4034 25.835 34.4266 25.8684 34.4396 25.9411L34.4399 25.9432C34.4608 26.0431 34.4189 26.1337 34.3132 26.2034C34.2051 26.2748 34.0341 26.3197 33.8212 26.3129C33.6611 26.308 33.5745 26.2656 33.5349 26.2213C33.4989 26.1809 33.4913 26.1266 33.5188 26.063C33.5764 25.9298 33.7873 25.7758 34.1114 25.7804H34.1138Z" fill="currentColor"/>
<path d="M34.2322 20.8273C34.2489 20.8617 34.2635 20.9147 34.2672 20.9774C34.2707 21.0368 34.265 21.0819 34.2555 21.1133C34.2458 21.1456 34.2338 21.1573 34.2291 21.1604C34.2277 21.1613 34.225 21.1637 34.2144 21.159C34.2008 21.1529 34.1785 21.1362 34.1526 21.0989L34.1515 21.0975L34.1409 21.0797C34.1187 21.0352 34.116 20.9697 34.1357 20.9066C34.1466 20.872 34.1626 20.8431 34.1804 20.8239C34.193 20.8102 34.2052 20.8041 34.2154 20.8009C34.2197 20.8062 34.226 20.8147 34.2322 20.8273Z" fill="currentColor"/>
<path fill-rule="evenodd" clip-rule="evenodd" d="M40.7358 5.97656C41.3182 5.97664 41.7905 6.44881 41.7905 7.03125V8.78906C41.7905 9.3715 41.3182 9.84367 40.7358 9.84375H39.6811C39.2928 9.84382 38.978 10.1586 38.978 10.5469V11.6016C38.978 25.5396 41.2403 33.5761 42.3803 36.741C42.6459 37.4786 42.0982 38.3203 41.3143 38.3203H27.3376C26.4581 38.3203 25.5892 38.0129 24.9879 37.371C23.5485 35.8341 22.4545 30.9375 22.4545 27.4219C22.4545 30.9375 21.3602 35.8342 19.9208 37.371C19.3196 38.0129 18.4509 38.3203 17.5714 38.3203H3.59442C2.81054 38.3201 2.26313 37.4786 2.52875 36.741C3.66877 33.5761 5.93108 25.5396 5.93108 11.6016V10.5469C5.93108 10.1586 5.61621 9.84383 5.22795 9.84375H4.17327C3.59083 9.84368 3.11858 9.37151 3.11858 8.78906V7.03125C3.11858 6.4488 3.59083 5.97663 4.17327 5.97656H40.7358ZM10.876 17.0384C10.8246 17.0435 10.7808 17.0655 10.7476 17.1095C10.7181 17.1486 10.6999 17.2014 10.6854 17.2623C10.6706 17.3246 10.6575 17.4048 10.6425 17.5043C10.5932 17.8308 10.5164 18.0304 10.3967 18.1501C10.2942 18.2525 10.1508 18.3056 9.9356 18.317L9.83878 18.3194C9.73279 18.3191 9.64699 18.3204 9.5782 18.3266C9.50999 18.3327 9.4519 18.344 9.40448 18.3671C9.29943 18.4183 9.26952 18.515 9.24586 18.6294L9.24552 18.6311C9.21419 18.8027 9.30738 19.0016 9.46662 19.1948C9.60871 19.3672 9.81324 19.5471 10.0654 19.7177L10.1763 19.7905C10.2883 19.8624 10.35 19.921 10.384 19.981C10.4169 20.0395 10.4284 20.108 10.4207 20.2111C10.4084 20.3772 10.4188 20.6552 10.4365 20.8308L10.4368 20.8339C10.4567 20.9705 10.4505 21.0281 10.4135 21.079C10.3929 21.1073 10.3597 21.1378 10.3043 21.1755C10.249 21.2131 10.1756 21.2551 10.0784 21.3083L10.077 21.3094C9.82215 21.4565 9.65284 21.6317 9.59777 21.824C9.54109 22.022 9.61084 22.2183 9.78797 22.3895C9.84413 22.4462 9.92762 22.4912 10.0249 22.5275C10.1234 22.5642 10.2425 22.5943 10.3747 22.6181C10.6392 22.6658 10.9643 22.6898 11.3034 22.6909C11.9794 22.693 12.7271 22.6038 13.1776 22.419L13.1783 22.4186C13.3622 22.3407 13.4684 22.3065 13.5336 22.3019C13.5636 22.2998 13.5788 22.3047 13.5872 22.3095C13.5956 22.3143 13.6057 22.3237 13.6174 22.3455L13.6181 22.3469C13.6327 22.3727 13.6465 22.4262 13.6541 22.5065C13.6615 22.5841 13.6625 22.6783 13.6576 22.7784C13.6476 22.9787 13.6139 23.1956 13.5649 23.3453C13.5452 23.3988 13.5324 23.4315 13.5202 23.452C13.5165 23.4583 13.5133 23.4612 13.5116 23.463C13.5096 23.4628 13.5063 23.4629 13.5017 23.4616C13.4919 23.459 13.4781 23.4538 13.4595 23.4448C13.4216 23.4265 13.3713 23.3965 13.3008 23.3532L13.3005 23.3528L13.1975 23.2951C12.9507 23.1668 12.6589 23.0843 12.3708 23.0538C12.0832 23.0234 11.7936 23.044 11.5516 23.1262L11.451 23.1654C11.2208 23.2644 10.8637 23.3256 10.6346 23.3085C10.5106 23.2993 10.388 23.3008 10.2889 23.3092C10.2395 23.3134 10.1946 23.3193 10.1577 23.3271C10.1239 23.3342 10.087 23.3448 10.0613 23.3624L10.0602 23.3631C10.0533 23.368 10.0291 23.3799 9.9816 23.3968C9.93697 23.4126 9.87829 23.4305 9.8096 23.4496C9.67226 23.488 9.49614 23.5302 9.31315 23.5667C8.9214 23.6478 8.67787 23.7082 8.53106 23.7888C8.4549 23.8307 8.39999 23.8805 8.36386 23.9447C8.32845 24.0077 8.31469 24.0786 8.30893 24.1558C8.29226 24.3801 8.43565 24.5597 8.65226 24.6743C8.86921 24.789 9.17193 24.8468 9.51022 24.8305L10.0317 24.803L10.4166 25.2802L10.4169 25.2809C10.532 25.4199 10.6349 25.5528 10.7081 25.6551C10.7446 25.7063 10.7733 25.7492 10.7922 25.7808C10.8011 25.7958 10.8074 25.8072 10.8111 25.8151C10.8079 25.8292 10.7992 25.8483 10.7795 25.8707C10.7562 25.8973 10.7218 25.9241 10.6796 25.948C10.5943 25.9961 10.4869 26.0253 10.3929 26.0184C10.2092 26.0047 10.0101 26.0468 9.85423 26.1172C9.77624 26.1525 9.70589 26.1962 9.65304 26.2467C9.60096 26.2964 9.55957 26.3589 9.55416 26.4307C9.55096 26.4738 9.5682 26.5178 9.5885 26.5546C9.60998 26.5936 9.64077 26.6351 9.67742 26.6762C9.75043 26.758 9.85243 26.8449 9.96787 26.9168C10.1491 27.0383 10.2771 27.111 10.4942 27.1541C10.7054 27.1959 11.0016 27.2098 11.519 27.2231C11.8322 27.2312 12.1461 27.2345 12.4024 27.232C12.6557 27.2296 12.8595 27.2215 12.9483 27.2063H12.9489C13.0071 27.1956 13.0497 27.1898 13.0808 27.1888C13.1085 27.1878 13.1203 27.191 13.124 27.1925C13.1245 27.1935 13.1257 27.1962 13.1268 27.2011C13.13 27.2161 13.1309 27.241 13.1278 27.2825C13.1229 27.3485 13.1092 27.3957 13.0859 27.4315C13.0632 27.4664 13.0272 27.4968 12.9668 27.5221C12.8405 27.575 12.6248 27.5992 12.2595 27.6025H12.2575C11.9843 27.6124 11.5561 27.6281 11.1829 27.6478L10.8358 27.6687C10.4188 27.6884 9.79299 27.7224 9.45117 27.7271H9.45014C9.30345 27.7313 9.18803 27.7362 9.09789 27.7446C9.00881 27.7529 8.93824 27.7648 8.88434 27.7861C8.82727 27.8088 8.78583 27.8431 8.7604 27.8936C8.7373 27.9395 8.73071 27.9933 8.72676 28.0464C8.69924 28.4164 9.02001 28.7395 9.49202 28.9088C9.73924 28.9983 9.90084 29.0482 10.1196 29.0578C10.3347 29.0673 10.6035 29.0377 11.0662 28.9764L11.0658 28.9761C11.4912 28.9275 12.081 28.9126 12.3722 28.9538H12.3728C12.5008 28.9709 12.5959 28.9849 12.6702 29.0018C12.7439 29.0187 12.7926 29.0374 12.8295 29.0619C12.9027 29.1107 12.9462 29.192 13.0296 29.3891C13.151 29.6726 13.3527 29.9097 13.5779 30.062C13.8019 30.2135 14.0586 30.2868 14.2865 30.2237L14.2862 30.2234C14.3546 30.2061 14.4156 30.1889 14.4654 30.1612C14.5192 30.1313 14.5585 30.0902 14.5866 30.0304C14.6131 29.974 14.6288 29.9025 14.6408 29.8128C14.6529 29.7222 14.6621 29.6062 14.6731 29.4585C14.6902 29.2281 14.7121 29.0691 14.7425 28.9627C14.7733 28.8545 14.8082 28.818 14.8365 28.8051L14.8382 28.8044C14.8382 28.8044 14.8392 28.8041 14.8403 28.8037C14.8419 28.8032 14.8445 28.8024 14.8475 28.8017C14.8537 28.8002 14.862 28.7985 14.8726 28.7972C14.894 28.7946 14.9223 28.7932 14.9567 28.7928C15.0254 28.7919 15.1149 28.7959 15.2193 28.8041C15.4281 28.8206 15.6922 28.8532 15.9589 28.8944C16.2254 28.9356 16.4939 28.9851 16.7118 29.0348C16.8206 29.0596 16.9162 29.0844 16.9923 29.1079C17.07 29.132 17.1215 29.1531 17.1467 29.169C17.2087 29.209 17.3051 29.2456 17.406 29.2738C17.5085 29.3023 17.623 29.3243 17.7239 29.3318C17.861 29.342 17.9682 29.3378 18.0562 29.2971C18.1471 29.2551 18.2059 29.1797 18.2612 29.0781C18.314 28.9828 18.3548 28.9012 18.3789 28.8288C18.4033 28.7556 18.4124 28.6868 18.3975 28.619C18.3825 28.5514 18.3452 28.4927 18.2928 28.4364C18.241 28.3808 18.171 28.3236 18.0847 28.2589C17.6452 27.9233 17.3414 27.7149 17.088 27.5983C16.8303 27.4797 16.6239 27.4558 16.3822 27.4857C16.1521 27.5082 15.744 27.5178 15.495 27.5094C15.2975 27.4947 15.1909 27.4758 15.1304 27.4466C15.103 27.4333 15.0874 27.4192 15.0772 27.4037C15.0663 27.387 15.058 27.3637 15.0518 27.3278L15.0514 27.3268L15.0494 27.2904C15.0519 27.2545 15.0691 27.22 15.1033 27.1864C15.1508 27.1396 15.2292 27.097 15.3347 27.0655C15.5452 27.0027 15.8425 26.99 16.1466 27.0518C16.3751 27.0984 16.5157 27.1286 16.6726 27.0727C16.7494 27.0454 16.8272 26.9988 16.9205 26.9313C17.0139 26.8637 17.1271 26.7721 17.2745 26.6521L17.4101 26.5382C17.5391 26.4262 17.6473 26.3208 17.7297 26.2261C17.7846 26.1631 17.8292 26.1036 17.8612 26.0493C17.8925 25.9961 17.9151 25.9419 17.9189 25.891C17.9202 25.8739 17.9287 25.8438 17.9491 25.801C17.9689 25.7595 17.9973 25.7106 18.0329 25.6579C18.104 25.5524 18.2013 25.4346 18.3072 25.3297L18.3079 25.329C18.4905 25.1431 18.5861 25.0571 18.6917 25.0159C18.7966 24.9749 18.919 24.975 19.1679 24.9936C19.468 25.0159 19.6833 25.0032 19.8267 24.9142C19.9785 24.82 20.0314 24.6542 20.0478 24.4329C20.0531 24.3614 20.0545 24.2948 20.0379 24.2303C20.0206 24.1639 19.9859 24.1049 19.9287 24.0446C19.8191 23.9292 19.6149 23.796 19.2568 23.5746C19.0459 23.4383 18.8331 23.2919 18.6608 23.165C18.4858 23.0362 18.3591 22.9323 18.314 22.8801C18.2649 22.823 18.2074 22.7677 18.1534 22.7256C18.1264 22.7046 18.0989 22.6857 18.073 22.6717C18.0486 22.6584 18.0189 22.6454 17.9889 22.6432C17.9741 22.642 17.9677 22.6386 17.9659 22.6373C17.9649 22.6367 17.9638 22.6359 17.9628 22.6329C17.9595 22.6225 17.9585 22.5948 17.9786 22.5453C18.0177 22.4491 18.1181 22.3141 18.2752 22.1786C18.3723 22.095 18.46 21.9926 18.5248 21.892C18.5884 21.7934 18.6357 21.6884 18.6423 21.6005C18.6576 21.3943 18.5141 21.1931 18.3267 21.0539C18.1366 20.9128 17.8812 20.8192 17.637 20.8397C17.4464 20.8546 17.2733 20.834 17.1522 20.7937C17.0915 20.7734 17.0478 20.7495 17.0214 20.7264C16.9965 20.7045 16.9927 20.689 16.9929 20.6807C16.9926 20.6842 16.9919 20.6833 16.995 20.6766C16.998 20.6701 17.0031 20.661 17.0108 20.6495C17.0261 20.6264 17.0489 20.5974 17.0781 20.5643C17.136 20.4987 17.2151 20.4216 17.2992 20.3491C17.4428 20.2347 17.5304 20.1806 17.6229 20.1585C17.7164 20.1363 17.8239 20.1445 18.0133 20.1788C18.1441 20.2038 18.2554 20.2181 18.3491 20.2159C18.4432 20.2136 18.5252 20.1948 18.5921 20.1493C18.7266 20.0578 18.77 19.8804 18.7878 19.6412C18.7988 19.4929 18.7865 19.369 18.7315 19.2398C18.6775 19.113 18.5843 18.9858 18.4431 18.8275L18.4428 18.8268L18.2938 18.6699C18.2451 18.621 18.1979 18.5762 18.1554 18.5381C18.1132 18.5001 18.0742 18.4678 18.0418 18.4443C18.0258 18.4327 18.0099 18.4223 17.9954 18.4145C17.9832 18.4078 17.9631 18.3979 17.9412 18.3963C17.9262 18.3951 17.8953 18.3823 17.8523 18.3465C17.8117 18.3126 17.7683 18.2652 17.729 18.2119C17.6898 18.1586 17.6559 18.1011 17.6329 18.0485C17.6091 17.994 17.6001 17.9518 17.602 17.9263V17.9239C17.608 17.7613 17.5151 17.5862 17.385 17.4466C17.2534 17.3056 17.0722 17.1881 16.8817 17.1462C16.8027 17.1278 16.7368 17.114 16.6822 17.1078C16.628 17.1016 16.5779 17.1018 16.5336 17.116C16.4369 17.147 16.3984 17.2336 16.3667 17.3289L16.3471 17.3862C16.3013 17.5335 16.2606 17.7668 16.2479 17.9369C16.2377 18.0737 16.2231 18.176 16.1995 18.2524C16.1763 18.3277 16.1458 18.3727 16.1075 18.4011C16.0685 18.4299 16.0122 18.4485 15.9249 18.4539C15.8371 18.4594 15.724 18.4511 15.5774 18.4327C15.1965 18.3841 14.9761 18.4058 14.8122 18.5357C14.7629 18.5735 14.7188 18.6076 14.6875 18.6424C14.6536 18.6803 14.6308 18.7228 14.6268 18.7774C14.623 18.8275 14.6357 18.8819 14.6559 18.9428C14.6765 19.0047 14.708 19.0822 14.7483 19.1804L14.749 19.1818C14.8238 19.3519 14.8939 19.4718 14.9999 19.566C15.1049 19.6591 15.2398 19.7224 15.4322 19.7926C15.6259 19.8683 15.73 19.9183 15.7882 19.9721C15.8382 20.0184 15.8579 20.071 15.8593 20.1771V20.1788C15.8622 20.2597 15.8477 20.3294 15.8157 20.3913C15.7836 20.4534 15.7318 20.5116 15.654 20.5657L15.6529 20.5664C15.479 20.6924 15.3997 20.7253 15.3165 20.7041C15.2712 20.6925 15.2172 20.663 15.1438 20.6052C15.0707 20.5476 14.9832 20.466 14.8702 20.3566L14.8698 20.3563C14.589 20.0855 14.336 19.9311 14.096 19.9175C13.8495 19.9036 13.6392 20.0384 13.4478 20.2863L13.4468 20.2873C13.1362 20.7073 12.6275 20.931 12.0875 20.8908L11.7257 20.8641L11.749 20.5523C11.7667 20.3149 11.8259 20.1743 11.9423 20.0837C12.0637 19.9893 12.2609 19.9377 12.584 19.9165L12.5836 19.9162C12.876 19.9027 13.0763 19.8739 13.2157 19.7926C13.3624 19.7069 13.4307 19.5706 13.4814 19.3809L13.4811 19.3806C13.5175 19.2607 13.5206 19.1591 13.4646 19.0421C13.4121 18.9324 13.3088 18.8116 13.1508 18.6445C12.9906 18.475 12.8656 18.3633 12.734 18.2919C12.6005 18.2195 12.4652 18.191 12.2894 18.1779C12.0774 18.1621 11.9121 18.1038 11.8046 18.02C11.6995 17.9379 11.6481 17.8311 11.6574 17.7065C11.6684 17.5578 11.5879 17.4075 11.4733 17.2921C11.3574 17.1754 11.1963 17.0833 11.0256 17.0539C10.9722 17.0426 10.9209 17.034 10.876 17.0384ZM32.6014 17.5407C32.4972 17.5287 32.4142 17.5626 32.3264 17.6217L32.2361 17.6883L32.2323 17.6914C32.1937 17.7263 32.1596 17.7631 32.1342 17.8088C32.1084 17.8552 32.0938 17.907 32.0882 17.9692C32.0772 18.0891 32.0989 18.259 32.1448 18.5267C32.1794 18.7288 32.1996 18.8824 32.2004 19.0005C32.2012 19.1188 32.1822 19.1916 32.1475 19.2405C32.1137 19.2882 32.0568 19.3245 31.9556 19.351C31.8536 19.3778 31.7155 19.3923 31.5299 19.4032C31.2236 19.4213 31.0041 19.4611 30.8642 19.5512C30.7917 19.598 30.7401 19.6586 30.7094 19.7345C30.6792 19.8091 30.6705 19.8942 30.6761 19.9883C30.6858 20.1535 30.79 20.2946 30.9528 20.405C31.1157 20.5155 31.3451 20.6009 31.626 20.6564C32.1466 20.7642 32.4544 21.0426 32.4723 21.3457C32.4774 21.4309 32.4678 21.4866 32.4435 21.5274C32.4199 21.5669 32.3753 21.6038 32.2852 21.6362C32.1943 21.6688 32.064 21.6941 31.8794 21.7148C31.7875 21.7251 31.683 21.7342 31.5646 21.7426L31.1653 21.7663C30.877 21.7783 30.6234 21.8008 30.4316 21.8288C30.3359 21.8428 30.2541 21.8582 30.1906 21.8748C30.159 21.8831 30.1306 21.8921 30.1068 21.9016C30.0842 21.9106 30.0605 21.9219 30.0423 21.9373L30.0395 21.94C29.9224 22.0501 29.8809 22.1855 29.905 22.3246C29.9284 22.4596 30.0123 22.5918 30.1309 22.7074C30.3687 22.9388 30.7666 23.1242 31.2072 23.1557H31.2089C31.504 23.1688 31.9143 23.1553 32.1225 23.1115L32.1242 23.1111C32.2747 23.0756 32.395 23.0715 32.4837 23.0888C32.5717 23.106 32.6241 23.1432 32.6509 23.1873C32.6777 23.2317 32.6868 23.2964 32.6618 23.3844C32.6368 23.4727 32.5784 23.5794 32.4789 23.6992C31.772 24.5431 31.239 25.1561 30.8594 25.5593C30.6694 25.7611 30.519 25.909 30.4052 26.0067C30.3483 26.0556 30.302 26.0907 30.2655 26.1135C30.246 26.1256 30.2312 26.1328 30.2208 26.1372L30.2016 26.143C30.1559 26.1456 30.0795 26.137 29.9925 26.1176C29.9066 26.0984 29.8161 26.0701 29.7439 26.0369L29.7436 26.0366L29.6949 26.0173C29.5758 25.9758 29.415 25.9578 29.1744 25.9576C28.8976 25.9574 28.5051 25.981 27.9329 26.0249H27.9322C27.5247 26.0591 27.145 26.0991 26.8621 26.1348C26.7208 26.1526 26.603 26.1694 26.5177 26.1839C26.4753 26.1911 26.4396 26.1979 26.413 26.2041C26.4 26.2072 26.3879 26.2103 26.3777 26.2137C26.3709 26.216 26.3535 26.2219 26.3396 26.2336L26.3262 26.2487C26.3178 26.2615 26.3137 26.2755 26.3117 26.2831C26.3094 26.2924 26.3078 26.3028 26.3063 26.3133C26.3032 26.3344 26.3006 26.3614 26.2987 26.3923C26.2949 26.4543 26.293 26.5382 26.2925 26.637C26.2915 26.8352 26.2967 27.0983 26.3083 27.3807V27.3814L26.3591 28.4079C26.36 28.4248 26.367 28.441 26.3787 28.4532L26.9054 28.9977C27.2125 29.3137 27.4277 29.4995 27.741 29.6013C28.0493 29.7013 28.4481 29.7183 29.1167 29.719L29.4995 29.717C29.612 29.7147 29.7099 29.71 29.7944 29.7012C29.9621 29.6837 30.092 29.6487 30.1824 29.5694C30.2752 29.4878 30.3138 29.3709 30.3279 29.2229C30.342 29.0758 30.3331 28.8838 30.3187 28.639C30.3034 28.3806 30.3027 28.2345 30.3252 28.136C30.3456 28.0467 30.3851 27.9958 30.4684 27.9314L30.4708 27.9293C30.5184 27.8891 30.6043 27.8464 30.7073 27.8122C30.8089 27.7785 30.92 27.7556 31.0132 27.7501C31.2925 27.7336 31.5145 27.6324 31.7263 27.4281C31.8041 27.356 31.8844 27.2967 31.9484 27.2591C31.9808 27.2402 32.007 27.2278 32.025 27.2221C32.0288 27.2286 32.0336 27.2373 32.0387 27.2485C32.0534 27.2803 32.07 27.3256 32.0875 27.3817C32.1223 27.4937 32.1585 27.6429 32.1877 27.8006C32.2181 27.9681 32.2618 28.1402 32.3089 28.2833C32.3325 28.3548 32.3575 28.4203 32.3824 28.4745C32.4066 28.5271 32.4332 28.5747 32.462 28.6067C32.4985 28.6472 32.5372 28.7107 32.5674 28.7801C32.5978 28.8497 32.6167 28.9182 32.6196 28.9672C32.6242 29.044 32.6634 29.1396 32.714 29.2288C32.7656 29.3196 32.8345 29.4137 32.9084 29.4897L33.1562 29.7575C33.1708 29.7732 33.1919 29.7814 33.2132 29.7798L34.8104 29.6552L34.8107 29.6555C35.249 29.6246 35.6669 29.582 35.9876 29.5402C36.1477 29.5193 36.2844 29.4983 36.3876 29.4791C36.439 29.4695 36.4833 29.4602 36.518 29.4513C36.5504 29.4429 36.5821 29.433 36.6035 29.4207L36.6063 29.419C36.7587 29.3214 36.83 29.1083 36.8476 28.8233C36.8633 28.569 36.8374 28.2381 36.7707 27.8335L36.7398 27.6557L36.667 27.2413C36.5898 26.7808 36.5033 26.2113 36.4487 25.799C36.3914 25.3372 36.3557 25.0775 36.2921 24.9015C36.2253 24.7167 36.1276 24.6233 35.9667 24.4899C35.8045 24.3505 35.7043 24.2648 35.5358 24.241C35.4547 24.2296 35.3601 24.2327 35.2385 24.2451C35.1166 24.2576 34.9621 24.2801 34.7602 24.3097C34.4983 24.3478 34.3029 24.3665 34.1697 24.3642C34.1028 24.3631 34.0561 24.3565 34.0262 24.3471C33.996 24.3375 33.9953 24.3294 33.997 24.3333C33.9986 24.3374 33.9931 24.3303 34.009 24.3004C34.0243 24.2718 34.0533 24.2338 34.1 24.1854C34.1932 24.0888 34.3442 23.963 34.5539 23.8046L34.5542 23.8043C34.9949 23.4679 35.2267 23.3629 35.507 23.3463C35.7273 23.3333 36.1326 23.2369 36.4137 23.1279L36.4147 23.1276C36.5298 23.0807 36.621 23.0427 36.6907 23.0071C36.7603 22.9715 36.8157 22.9348 36.8548 22.8873C36.8957 22.8376 36.9143 22.782 36.9215 22.718C36.9283 22.6566 36.9252 22.5832 36.9201 22.4962V22.4949L36.9094 22.4042C36.8416 21.9596 36.5464 21.6329 36.0923 21.5675H36.0916C35.9763 21.5524 35.8982 21.5268 35.8486 21.4923C35.803 21.4606 35.7778 21.4189 35.7717 21.3564C35.7652 21.2895 35.7805 21.1973 35.8256 21.0711C35.8703 20.9458 35.9419 20.7925 36.0412 20.6062C36.252 20.2065 36.3584 19.8747 36.3508 19.5872C36.3431 19.2954 36.2184 19.0579 35.9883 18.8484L35.9876 18.8477L35.9018 18.776C35.8167 18.7101 35.7331 18.6609 35.646 18.6277C35.5292 18.5831 35.4092 18.5686 35.2756 18.5765C35.1996 18.581 35.1352 18.5871 35.0819 18.5992C35.0282 18.6113 34.9806 18.6303 34.9419 18.6634C34.8652 18.7289 34.8431 18.8326 34.8262 18.96C34.8078 19.0641 34.7845 19.1278 34.7561 19.1656C34.7314 19.1986 34.7 19.2161 34.6476 19.2192C34.6003 19.222 34.5523 19.2161 34.5141 19.2048C34.4952 19.1992 34.4798 19.1927 34.4688 19.1862C34.4634 19.1831 34.4594 19.18 34.4567 19.1777C34.4555 19.1766 34.4542 19.1756 34.4536 19.1749L34.453 19.1739C34.436 19.1492 34.4095 19.13 34.3857 19.1155C34.36 19.1 34.3288 19.0851 34.2957 19.0716C34.2293 19.0445 34.1481 19.02 34.0678 19.0036L34.066 19.0033L33.9843 18.9864C33.8025 18.9443 33.6794 18.8792 33.6039 18.7962C33.5202 18.7041 33.486 18.5796 33.5085 18.4114V18.4103C33.5254 18.267 33.5267 18.1583 33.4604 18.0577C33.4286 18.0096 33.3838 17.9671 33.3272 17.9239C33.2706 17.8807 33.1985 17.8339 33.1095 17.7786L33.1089 17.7779L32.9482 17.6832C32.8998 17.6556 32.8559 17.632 32.816 17.6125C32.7364 17.5735 32.6669 17.5483 32.6014 17.5407ZM28.5001 23.8599C28.316 23.8405 28.1346 23.8797 27.8852 23.9605C27.7713 23.9961 27.5384 24.0397 27.3115 24.0704L27.0907 24.0961C26.7805 24.1197 26.5327 24.1879 26.3832 24.2921C26.3076 24.3448 26.2509 24.4111 26.2307 24.4913C26.2101 24.5733 26.2308 24.6565 26.2833 24.7343L26.2839 24.7354C26.3981 24.8992 26.5974 25.0463 26.824 25.1559C27.0511 25.2658 27.3134 25.3417 27.5611 25.3588C27.8221 25.3834 28.1491 25.4534 28.304 25.5288L28.3065 25.5298C28.6316 25.6744 28.9962 25.6163 29.2647 25.4471C29.5158 25.2888 29.6946 25.0245 29.6674 24.7234L29.6591 24.6626C29.6204 24.4176 29.4524 24.2704 29.1074 24.0882C28.8619 23.956 28.6833 23.8793 28.5001 23.8599ZM28.5485 22.1244C28.3375 22.1201 28.075 22.1304 27.7455 22.1498C27.3029 22.1759 26.9954 22.2042 26.7776 22.2429C26.5611 22.2813 26.4237 22.3314 26.3279 22.4076C26.1846 22.5195 26.0919 22.6358 26.1092 22.7863C26.1174 22.8575 26.1498 22.9283 26.1988 23.0013C26.248 23.0744 26.3171 23.1542 26.4041 23.2436C26.5236 23.369 26.6203 23.4518 26.7388 23.497C26.857 23.542 26.9891 23.5466 27.1714 23.5358C27.3735 23.5239 27.5316 23.5295 27.7077 23.565C27.8851 23.6008 28.0838 23.6677 28.3669 23.7816L28.3689 23.7823C28.4419 23.809 28.5305 23.8133 28.6172 23.8053C28.7048 23.7972 28.7968 23.776 28.8801 23.7463C28.9631 23.7167 29.0415 23.6775 29.0999 23.6316C29.1526 23.5901 29.2048 23.5296 29.2042 23.4544C29.2071 23.4508 29.2135 23.4446 29.2248 23.4376C29.2484 23.4232 29.2843 23.4111 29.3237 23.4088C29.3992 23.4043 29.467 23.3903 29.5218 23.3604C29.579 23.3291 29.6192 23.2817 29.6392 23.2189C29.6584 23.1588 29.6576 23.0892 29.644 23.0133C29.6304 22.9368 29.6028 22.8483 29.5634 22.7475V22.7468L29.5201 22.6445C29.4759 22.5469 29.4279 22.463 29.3687 22.3932C29.288 22.2983 29.1885 22.2322 29.0549 22.1896C28.9233 22.1478 28.759 22.1287 28.5485 22.1244ZM28.5468 19.9931L28.4606 20.0016C28.2441 20.0294 27.9292 20.1126 27.7098 20.1973C27.4702 20.2899 26.949 20.4106 26.5428 20.4445H26.5407C26.2502 20.4768 26.0492 20.5091 25.9083 20.5534C25.7656 20.5982 25.6759 20.658 25.6179 20.7497L25.5832 20.8084C25.5088 20.9464 25.4839 21.0919 25.5125 21.2352C25.541 21.3777 25.621 21.5119 25.7463 21.6304L25.8026 21.6801L26.0673 21.9061C26.0822 21.9188 26.1021 21.9245 26.1215 21.9222L27.9453 21.7035L27.9449 21.7031C28.4803 21.6413 28.8842 21.595 29.184 21.5452C29.4813 21.4958 29.6877 21.4418 29.8212 21.3598C29.8898 21.3177 29.9416 21.267 29.976 21.2043C30.0102 21.1421 30.0248 21.0728 30.0275 20.9976C30.0328 20.8514 29.9927 20.6655 29.9444 20.4356C29.9395 20.4108 29.9269 20.3905 29.9142 20.3752C29.9012 20.3595 29.8849 20.345 29.8679 20.3323C29.8338 20.3067 29.789 20.2815 29.7388 20.2578C29.6378 20.2099 29.504 20.1622 29.3615 20.1208C29.08 20.0389 28.7465 19.9764 28.5468 19.9931ZM27.4842 17.8459H27.4825C27.4033 17.8606 27.1668 17.8949 26.9644 17.9273H26.9637C26.8747 17.9425 26.8013 17.956 26.744 17.974C26.6863 17.9921 26.6356 18.0175 26.5995 18.0622C26.5632 18.1071 26.5494 18.162 26.5445 18.2222C26.5397 18.2818 26.5427 18.356 26.548 18.4457C26.5543 18.5524 26.5771 18.6677 26.608 18.7677C26.6382 18.8652 26.6794 18.9581 26.7272 19.0129L26.7282 19.0139C26.9398 19.2474 27.2817 19.425 27.6383 19.5227C27.995 19.6204 28.3791 19.6417 28.6786 19.5491L28.6796 19.5488C28.7355 19.5306 28.7872 19.5123 28.8273 19.4867C28.8716 19.4583 28.9033 19.42 28.9183 19.3655C28.9319 19.3159 28.9304 19.2571 28.9224 19.1893C28.9142 19.1205 28.8979 19.0336 28.8764 18.9243L28.876 18.9226L28.853 18.8268C28.8283 18.7307 28.7991 18.6356 28.7689 18.5528C28.7488 18.4977 28.7278 18.4472 28.7075 18.4048C28.6877 18.3637 28.6664 18.326 28.6443 18.2998L28.6436 18.2988L28.6017 18.2586C28.5537 18.2181 28.488 18.1772 28.417 18.1388C28.3198 18.0863 28.2036 18.0338 28.0867 17.9881C27.9698 17.9423 27.8505 17.9027 27.7468 17.8765C27.6469 17.8512 27.55 17.8354 27.4842 17.8459ZM10.853 9.84375C10.4647 9.84382 10.1498 10.1586 10.1498 10.5469V10.8984C10.1498 11.2867 10.4647 11.6015 10.853 11.6016H19.642C20.0303 11.6015 20.3451 11.2867 20.3451 10.8984V10.5469C20.3451 10.1586 20.0303 9.84383 19.642 9.84375H10.853ZM25.267 9.84375C24.8787 9.84382 24.5639 10.1586 24.5639 10.5469V10.8984C24.5639 11.2867 24.8787 11.6015 25.267 11.6016H34.0561C34.4443 11.6015 34.7592 11.2867 34.7592 10.8984V10.5469C34.7592 10.1586 34.4443 9.84383 34.0561 9.84375H25.267Z" fill="currentColor"/>
</svg>
