<svg class="icon" width="45" height="45" viewBox="0 0 45 45" fill="none" xmlns="http://www.w3.org/2000/svg">
<path d="M12.0806 24.8044C12.2002 24.7821 12.386 24.7903 12.7412 24.8167L13.4344 24.8679L13.4151 25.1299C13.4025 25.2993 13.3131 25.5868 13.2304 25.7684C13.1611 25.9013 13.1089 25.971 13.0553 26.0081C13.0052 26.0427 12.9448 26.0549 12.8414 26.0472C12.7583 26.0411 12.6302 26.0503 12.495 26.0695C12.3594 26.0888 12.2109 26.119 12.0837 26.156C11.963 26.1866 11.8381 26.2092 11.7363 26.2199C11.6854 26.2252 11.6415 26.2274 11.6075 26.2264C11.5907 26.2259 11.5771 26.2247 11.567 26.223C11.5583 26.2215 11.5541 26.2199 11.5533 26.2196L11.5509 26.2185C11.5548 26.2204 11.5469 26.2189 11.5379 26.1911C11.5294 26.1651 11.5238 26.1266 11.5221 26.0767C11.5187 25.9776 11.5319 25.846 11.5591 25.7046C11.5863 25.5636 11.6267 25.4158 11.6755 25.2847C11.7247 25.1525 11.7811 25.0418 11.8379 24.9719C11.8815 24.9182 11.9152 24.8822 11.9509 24.8566C11.9851 24.832 12.0242 24.8149 12.0806 24.8044Z" fill="currentColor"/>
<path d="M15.3995 22.6929C15.4748 22.6878 15.5758 22.7257 15.7113 22.8244L15.713 22.8255C15.779 22.8709 15.8995 22.9226 16.0333 22.9704C16.1696 23.019 16.3276 23.0664 16.4735 23.1029L16.4759 23.1036C16.6029 23.1307 16.6964 23.1518 16.7663 23.1729C16.8367 23.1943 16.8759 23.2137 16.8992 23.2333C16.9194 23.2504 16.932 23.271 16.94 23.3072C16.9489 23.347 16.9513 23.4005 16.9531 23.4802C16.9591 23.737 16.9177 23.8525 16.8199 23.9128C16.7666 23.9455 16.6886 23.9672 16.5734 23.9763C16.4586 23.9854 16.3127 23.9814 16.1281 23.9677L15.4751 23.9193C15.4543 23.9178 15.4339 23.9256 15.4195 23.9406C15.405 23.9556 15.3976 23.9765 15.3999 23.9972L15.4363 24.323L15.4366 24.3244C15.4657 24.5511 15.5147 24.7199 15.6172 24.8343C15.7225 24.9515 15.8727 24.9991 16.0707 25.0138C16.1923 25.0229 16.2604 25.0432 16.3076 25.0777C16.3545 25.1119 16.3913 25.1679 16.4323 25.2734L16.4326 25.2744C16.4594 25.3398 16.4723 25.4061 16.4738 25.4581C16.4746 25.4841 16.4724 25.5045 16.469 25.5185C16.4681 25.522 16.467 25.5247 16.4663 25.5267C16.4647 25.5272 16.4631 25.5282 16.4611 25.5288C16.448 25.5325 16.429 25.5365 16.4041 25.5408C16.3544 25.5494 16.2859 25.5579 16.2036 25.5655C16.0393 25.5807 15.8233 25.5918 15.5976 25.5951L14.8351 25.5937L14.923 24.4133C14.9534 24.005 14.9899 23.6751 15.036 23.4163C15.0822 23.1563 15.1373 22.9735 15.2018 22.8557C15.2655 22.7394 15.3316 22.6976 15.3995 22.6929Z" fill="currentColor"/>
<path d="M34.5127 28.0059C34.6415 27.9933 34.7094 28.0008 34.7547 28.0244C34.7978 28.0469 34.8337 28.0914 34.8787 28.1913L34.879 28.1919C34.9708 28.3915 35.0017 28.5243 34.9878 28.6184C34.9752 28.7038 34.9229 28.7706 34.8024 28.8329L34.8014 28.8333C34.6258 28.9268 34.4849 28.9679 34.3633 28.9641C34.2442 28.9603 34.1346 28.9133 34.0217 28.813C33.9114 28.715 33.8495 28.6187 33.8246 28.5325C33.8003 28.4479 33.8107 28.3692 33.8507 28.2994C33.9331 28.1559 34.1536 28.0323 34.511 28.0062L34.5127 28.0059Z" fill="currentColor"/>
<path d="M28.4486 27.8668C28.4833 27.8797 28.532 27.9241 28.5694 28.0412C28.6045 28.1703 28.6173 28.388 28.5976 28.5202C28.5682 28.6754 28.4739 28.7258 28.3964 28.7189C28.3147 28.7116 28.2157 28.6383 28.1883 28.4731L28.188 28.4718L28.1804 28.4233C28.1503 28.1843 28.2316 27.9896 28.3253 27.9056C28.3743 27.8617 28.417 27.8552 28.4486 27.8668Z" fill="currentColor"/>
<path d="M34.1137 26.132C34.2483 26.1291 34.3235 26.1421 34.3671 26.1663C34.4034 26.1866 34.4266 26.2199 34.4395 26.2927L34.4399 26.2947C34.4608 26.3947 34.4189 26.4852 34.3132 26.555C34.2051 26.6263 34.0341 26.6712 33.8212 26.6645C33.6611 26.6596 33.5745 26.6171 33.5349 26.5728C33.4989 26.5325 33.4913 26.4782 33.5187 26.4146C33.5764 26.2813 33.7873 26.1274 34.1113 26.132H34.1137Z" fill="currentColor"/>
<path d="M34.2322 21.1789C34.2489 21.2133 34.2635 21.2662 34.2672 21.3289C34.2707 21.3883 34.265 21.4335 34.2555 21.4649C34.2457 21.4972 34.2338 21.5089 34.2291 21.5119C34.2277 21.5128 34.2249 21.5152 34.2143 21.5105C34.2008 21.5045 34.1785 21.4878 34.1525 21.4505L34.1515 21.4491L34.1408 21.4312C34.1187 21.3867 34.116 21.3213 34.1357 21.2582C34.1466 21.2235 34.1626 21.1946 34.1803 21.1755C34.193 21.1618 34.2052 21.1557 34.2154 21.1525C34.2197 21.1578 34.226 21.1662 34.2322 21.1789Z" fill="currentColor"/>
<path fill-rule="evenodd" clip-rule="evenodd" d="M40.7357 6.32812C41.3182 6.3282 41.7904 6.80037 41.7904 7.38281V9.14062C41.7904 9.72306 41.3182 10.1952 40.7357 10.1953H39.681C39.2928 10.1954 38.9779 10.5102 38.9779 10.8984V11.9531C38.9779 25.8911 41.2402 33.9277 42.3803 37.0926C42.6459 37.8302 42.0982 38.6718 41.3142 38.6719H27.3376C26.458 38.6718 25.5891 38.3645 24.9879 37.7226C23.5485 36.1857 22.4545 31.289 22.4545 27.7734C22.4545 31.289 21.3602 36.1858 19.9208 37.7226C19.3195 38.3645 18.4509 38.6718 17.5714 38.6719H3.59439C2.81051 38.6717 2.2631 37.8301 2.52872 37.0926C3.66874 33.9277 5.93105 25.8912 5.93105 11.9531V10.8984C5.93105 10.5102 5.61618 10.1954 5.22792 10.1953H4.17324C3.5908 10.1952 3.11855 9.72307 3.11855 9.14062V7.38281C3.11855 6.80036 3.5908 6.32819 4.17324 6.32812H40.7357ZM10.8759 17.39C10.8246 17.3951 10.7808 17.417 10.7475 17.4611C10.718 17.5001 10.6998 17.5529 10.6854 17.6138C10.6706 17.6762 10.6574 17.7563 10.6425 17.8559C10.5932 18.1823 10.5164 18.382 10.3966 18.5017C10.2942 18.604 10.1507 18.6572 9.93557 18.6685L9.83875 18.6709C9.73275 18.6706 9.64696 18.6719 9.57817 18.6781C9.50996 18.6843 9.45187 18.6956 9.40445 18.7186C9.2994 18.7698 9.26949 18.8666 9.24583 18.9809L9.24549 18.9827C9.21416 19.1543 9.30735 19.3532 9.46659 19.5464C9.60868 19.7188 9.81321 19.8986 10.0653 20.0693L10.1762 20.1421C10.2882 20.214 10.35 20.2725 10.3839 20.3326C10.4169 20.391 10.4283 20.4596 10.4207 20.5626C10.4083 20.7288 10.4188 21.0068 10.4365 21.1823L10.4368 21.1854C10.4567 21.3221 10.4505 21.3796 10.4135 21.4305C10.3929 21.4588 10.3597 21.4894 10.3043 21.527C10.249 21.5646 10.1756 21.6066 10.0784 21.6599L10.077 21.6609C9.82212 21.8081 9.65281 21.9833 9.59774 22.1756C9.54106 22.3736 9.61081 22.5699 9.78794 22.741C9.8441 22.7978 9.92759 22.8427 10.0248 22.879C10.1234 22.9158 10.2425 22.9458 10.3747 22.9697C10.6392 23.0173 10.9642 23.0414 11.3034 23.0424C11.9794 23.0445 12.7271 22.9554 13.1776 22.7705L13.1782 22.7702C13.3622 22.6923 13.4684 22.6581 13.5336 22.6535C13.5636 22.6514 13.5788 22.6563 13.5871 22.661C13.5956 22.6659 13.6056 22.6753 13.6174 22.6971L13.618 22.6984C13.6326 22.7243 13.6464 22.7778 13.6541 22.8581C13.6615 22.9356 13.6625 23.0298 13.6575 23.13C13.6476 23.3302 13.6139 23.5471 13.5648 23.6968C13.5451 23.7504 13.5323 23.783 13.5202 23.8036C13.5165 23.8099 13.5133 23.8128 13.5116 23.8146C13.5096 23.8144 13.5062 23.8144 13.5017 23.8132C13.4919 23.8105 13.478 23.8054 13.4594 23.7964C13.4216 23.778 13.3713 23.7481 13.3008 23.7047L13.3005 23.7044L13.1975 23.6467C12.9506 23.5183 12.6589 23.4358 12.3708 23.4053C12.0832 23.3749 11.7936 23.3955 11.5516 23.4778L11.451 23.5169C11.2207 23.616 10.8637 23.6771 10.6346 23.6601C10.5105 23.6509 10.3879 23.6524 10.2888 23.6608C10.2394 23.665 10.1945 23.6709 10.1577 23.6786C10.1239 23.6858 10.0869 23.6964 10.0612 23.714L10.0602 23.7147C10.0533 23.7196 10.029 23.7315 9.98157 23.7483C9.93694 23.7642 9.87825 23.782 9.80957 23.8012C9.67223 23.8395 9.49611 23.8818 9.31312 23.9183C8.92137 23.9993 8.67784 24.0597 8.53103 24.1404C8.45487 24.1823 8.39996 24.232 8.36383 24.2963C8.32842 24.3593 8.31466 24.4302 8.3089 24.5074C8.29222 24.7316 8.43562 24.9113 8.65223 25.0258C8.86918 25.1405 9.1719 25.1983 9.51019 25.182L10.0317 25.1546L10.4166 25.6318L10.4169 25.6325C10.5319 25.7714 10.6349 25.9043 10.708 26.0067C10.7446 26.0579 10.7732 26.1007 10.7922 26.1324C10.8011 26.1473 10.8073 26.1588 10.811 26.1667C10.8078 26.1808 10.7992 26.1999 10.7795 26.2223C10.7562 26.2488 10.7218 26.2757 10.6795 26.2996C10.5943 26.3476 10.4869 26.3769 10.3929 26.3699C10.2092 26.3563 10.0101 26.3984 9.8542 26.4688C9.77621 26.5041 9.70586 26.5478 9.65301 26.5982C9.60093 26.648 9.55954 26.7105 9.55413 26.7823C9.55093 26.8254 9.56817 26.8693 9.58847 26.9062C9.60995 26.9452 9.64074 26.9866 9.67739 27.0277C9.7504 27.1096 9.8524 27.1965 9.96784 27.2684C10.1491 27.3899 10.277 27.4626 10.4942 27.5056C10.7053 27.5475 11.0015 27.5613 11.519 27.5747C11.8322 27.5828 12.1461 27.5861 12.4023 27.5836C12.6556 27.5811 12.8595 27.5731 12.9482 27.5578H12.9489C13.0071 27.5472 13.0497 27.5414 13.0807 27.5403C13.1085 27.5394 13.1203 27.5426 13.124 27.5441C13.1245 27.5451 13.1257 27.5478 13.1268 27.5527C13.13 27.5677 13.1309 27.5925 13.1278 27.634C13.1229 27.7 13.1092 27.7473 13.0859 27.7831C13.0631 27.818 13.0271 27.8484 12.9668 27.8737C12.8405 27.9266 12.6248 27.9508 12.2595 27.954H12.2575C11.9842 27.964 11.5561 27.9796 11.1829 27.9993L10.8358 28.0203C10.4187 28.04 9.79296 28.0739 9.45114 28.0787H9.45011C9.30342 28.0829 9.188 28.0878 9.09786 28.0962C9.00878 28.1044 8.93821 28.1163 8.88431 28.1377C8.82724 28.1604 8.7858 28.1946 8.76037 28.2452C8.73727 28.2911 8.73068 28.3449 8.72673 28.3979C8.6992 28.768 9.01998 29.0911 9.49199 29.2604C9.73921 29.3498 9.90081 29.3997 10.1196 29.4094C10.3346 29.4188 10.6035 29.3892 11.0661 29.328L11.0658 29.3277C11.4912 29.279 12.081 29.2641 12.3721 29.3053H12.3728C12.5007 29.3225 12.5959 29.3365 12.6701 29.3534C12.7439 29.3703 12.7926 29.389 12.8294 29.4135C12.9027 29.4623 12.9462 29.5436 13.0296 29.7407C13.151 30.0242 13.3527 30.2612 13.5779 30.4136C13.8019 30.5651 14.0586 30.6384 14.2865 30.5753L14.2862 30.575C14.3545 30.5576 14.4156 30.5405 14.4654 30.5128C14.5191 30.4829 14.5585 30.4418 14.5866 30.382C14.613 30.3256 14.6288 30.2541 14.6408 30.1643C14.6529 30.0738 14.6621 29.9577 14.6731 29.81C14.6902 29.5797 14.7121 29.4207 14.7424 29.3143C14.7733 29.2061 14.8082 29.1695 14.8365 29.1567L14.8382 29.156C14.8382 29.156 14.8392 29.1557 14.8403 29.1553C14.8419 29.1548 14.8445 29.154 14.8475 29.1533C14.8537 29.1518 14.862 29.1501 14.8725 29.1488C14.894 29.1461 14.9223 29.1447 14.9567 29.1443C15.0253 29.1435 15.1149 29.1474 15.2193 29.1557C15.4281 29.1721 15.6922 29.2047 15.9588 29.2459C16.2254 29.2871 16.4939 29.3367 16.7117 29.3864C16.8206 29.4112 16.9162 29.436 16.9922 29.4595C17.0699 29.4835 17.1214 29.5047 17.1467 29.5206C17.2087 29.5606 17.305 29.5972 17.4059 29.6253C17.5084 29.6539 17.623 29.6758 17.7238 29.6833C17.8609 29.6935 17.9681 29.6893 18.0562 29.6487C18.1471 29.6067 18.2059 29.5313 18.2611 29.4296C18.314 29.3344 18.3548 29.2528 18.3789 29.1804C18.4033 29.1071 18.4124 29.0384 18.3974 28.9706C18.3825 28.9029 18.3451 28.8443 18.2927 28.788C18.2409 28.7324 18.171 28.6751 18.0847 28.6105C17.6452 28.2749 17.3413 28.0665 17.088 27.9499C16.8302 27.8313 16.6239 27.8074 16.3821 27.8373C16.152 27.8597 15.744 27.8694 15.495 27.861C15.2975 27.8463 15.1909 27.8273 15.1304 27.7982C15.1029 27.7849 15.0874 27.7708 15.0772 27.7552C15.0663 27.7386 15.058 27.7153 15.0518 27.6794L15.0514 27.6783L15.0494 27.6419C15.0519 27.6061 15.0691 27.5716 15.1033 27.5379C15.1508 27.4912 15.2292 27.4486 15.3347 27.4171C15.5451 27.3542 15.8425 27.3415 16.1466 27.4033C16.3751 27.4499 16.5157 27.4801 16.6726 27.4243C16.7494 27.3969 16.8272 27.3503 16.9205 27.2828C17.0138 27.2153 17.1271 27.1236 17.2744 27.0037L17.41 26.8897C17.5391 26.7778 17.6473 26.6723 17.7297 26.5776C17.7845 26.5146 17.8292 26.4552 17.8612 26.4008C17.8925 26.3476 17.9151 26.2934 17.9188 26.2426C17.9202 26.2255 17.9287 26.1954 17.9491 26.1526C17.9689 26.111 17.9973 26.0622 18.0328 26.0094C18.104 25.904 18.2012 25.7862 18.3071 25.6812L18.3078 25.6805C18.4904 25.4947 18.586 25.4087 18.6917 25.3674C18.7966 25.3265 18.919 25.3266 19.1679 25.3451C19.468 25.3674 19.6833 25.3547 19.8267 25.2658C19.9785 25.1716 20.0313 25.0058 20.0478 24.7845C20.0531 24.7129 20.0545 24.6463 20.0378 24.5819C20.0206 24.5154 19.9859 24.4565 19.9287 24.3962C19.8191 24.2808 19.6149 24.1476 19.2568 23.9262C19.0458 23.7899 18.833 23.6434 18.6608 23.5166C18.4858 23.3877 18.359 23.2839 18.314 23.2316C18.2649 23.1746 18.2074 23.1193 18.1533 23.0771C18.1264 23.0561 18.0989 23.0373 18.073 23.0232C18.0486 23.01 18.0188 22.997 17.9889 22.9947C17.9741 22.9936 17.9677 22.9901 17.9659 22.9889C17.9649 22.9882 17.9638 22.9874 17.9628 22.9844C17.9595 22.9741 17.9585 22.9463 17.9786 22.8969C18.0177 22.8007 18.118 22.6657 18.2752 22.5302C18.3723 22.4466 18.4599 22.3442 18.5248 22.2435C18.5884 22.145 18.6357 22.0399 18.6422 21.9521C18.6575 21.7458 18.5141 21.5446 18.3267 21.4055C18.1366 21.2643 17.8812 21.1708 17.637 21.1913C17.4464 21.2062 17.2733 21.1856 17.1522 21.1452C17.0914 21.125 17.0478 21.1011 17.0214 21.078C16.9965 21.0561 16.9926 21.0406 16.9929 21.0323C16.9925 21.0357 16.9919 21.0348 16.995 21.0282C16.998 21.0217 17.0031 21.0126 17.0108 21.0011C17.0261 20.978 17.0489 20.949 17.0781 20.9159C17.136 20.8503 17.2151 20.7731 17.2992 20.7006C17.4428 20.5863 17.5303 20.5321 17.6229 20.5101C17.7164 20.4879 17.8239 20.4961 18.0133 20.5304C18.1441 20.5554 18.2554 20.5697 18.349 20.5674C18.4432 20.5651 18.5251 20.5463 18.5921 20.5008C18.7265 20.4094 18.77 20.232 18.7878 19.9927C18.7988 19.8445 18.7865 19.7205 18.7315 19.5914C18.6775 19.4646 18.5842 19.3374 18.4431 19.179L18.4428 19.1784L18.2938 19.0215C18.245 18.9725 18.1979 18.9277 18.1554 18.8896C18.1131 18.8517 18.0742 18.8193 18.0418 18.7959C18.0257 18.7843 18.0099 18.7739 17.9954 18.766C17.9831 18.7594 17.9631 18.7495 17.9412 18.7478C17.9262 18.7466 17.8952 18.7339 17.8522 18.698C17.8117 18.6642 17.7683 18.6168 17.729 18.5635C17.6897 18.5102 17.6559 18.4527 17.6329 18.4C17.6091 18.3456 17.6001 18.3034 17.602 18.2778V18.2754C17.608 18.1129 17.5151 17.9377 17.385 17.7982C17.2534 17.6572 17.0722 17.5396 16.8817 17.4978C16.8026 17.4794 16.7367 17.4656 16.6822 17.4593C16.6279 17.4531 16.5779 17.4534 16.5335 17.4676C16.4368 17.4986 16.3984 17.5851 16.3667 17.6804L16.3471 17.7378C16.3013 17.885 16.2606 18.1184 16.2479 18.2885C16.2377 18.4253 16.223 18.5276 16.1995 18.604C16.1762 18.6793 16.1458 18.7242 16.1075 18.7526C16.0685 18.7815 16.0122 18.8001 15.9248 18.8055C15.837 18.8109 15.724 18.8026 15.5774 18.7842C15.1964 18.7357 14.976 18.7574 14.8121 18.8872C14.7629 18.9251 14.7188 18.9591 14.6875 18.994C14.6535 19.0319 14.6308 19.0744 14.6267 19.1289C14.623 19.1791 14.6357 19.2334 14.6559 19.2944C14.6764 19.3562 14.708 19.4338 14.7483 19.532L14.749 19.5333C14.8237 19.7035 14.8938 19.8234 14.9999 19.9175C15.1049 20.0106 15.2398 20.074 15.4322 20.1441C15.6259 20.2199 15.7299 20.2698 15.7882 20.3237C15.8382 20.37 15.8579 20.4226 15.8593 20.5286V20.5304C15.8622 20.6113 15.8476 20.681 15.8157 20.7429C15.7836 20.805 15.7317 20.8631 15.6539 20.9173L15.6529 20.918C15.4789 21.0439 15.3996 21.0768 15.3165 21.0556C15.2711 21.0441 15.2172 21.0146 15.1438 20.9568C15.0706 20.8991 14.9832 20.8176 14.8701 20.7082L14.8698 20.7079C14.5889 20.437 14.3359 20.2827 14.096 20.2691C13.8494 20.2552 13.6392 20.39 13.4478 20.6378L13.4467 20.6388C13.1361 21.0588 12.6275 21.2826 12.0875 21.2424L11.7257 21.2156L11.749 20.9039C11.7667 20.6664 11.8258 20.5258 11.9423 20.4353C12.0637 20.3409 12.2609 20.2893 12.584 20.2681L12.5836 20.2677C12.8759 20.2543 13.0763 20.2254 13.2157 20.1441C13.3624 20.0585 13.4307 19.9222 13.4814 19.7325L13.4811 19.7321C13.5174 19.6122 13.5206 19.5106 13.4646 19.3936C13.412 19.284 13.3088 19.1632 13.1508 18.996C12.9906 18.8266 12.8656 18.7149 12.734 18.6435C12.6005 18.5711 12.4652 18.5425 12.2894 18.5295C12.0774 18.5137 11.9121 18.4553 11.8046 18.3715C11.6994 18.2894 11.6481 18.1827 11.6573 18.0581C11.6684 17.9094 11.5878 17.7591 11.4733 17.6437C11.3574 17.527 11.1962 17.4349 11.0256 17.4054C10.9722 17.3941 10.9209 17.3856 10.8759 17.39ZM32.6014 17.8923C32.4972 17.8802 32.4141 17.9141 32.3264 17.9733L32.2361 18.0399L32.2323 18.043C32.1937 18.0778 32.1595 18.1146 32.1341 18.1604C32.1084 18.2068 32.0938 18.2585 32.0881 18.3207C32.0772 18.4407 32.0989 18.6105 32.1448 18.8783C32.1794 19.0804 32.1996 19.234 32.2004 19.3521C32.2012 19.4703 32.1822 19.5432 32.1475 19.5921C32.1137 19.6397 32.0568 19.6761 31.9556 19.7026C31.8535 19.7293 31.7155 19.7438 31.5299 19.7548C31.2236 19.7729 31.004 19.8126 30.8642 19.9028C30.7916 19.9495 30.7401 20.0102 30.7093 20.0861C30.6792 20.1606 30.6705 20.2458 30.676 20.3398C30.6858 20.5051 30.79 20.6462 30.9528 20.7566C31.1156 20.867 31.3451 20.9525 31.626 21.0079C32.1465 21.1157 32.4543 21.3942 32.4723 21.6973C32.4773 21.7825 32.4678 21.8381 32.4435 21.8789C32.4198 21.9185 32.3753 21.9554 32.2852 21.9878C32.1942 22.0204 32.0639 22.0456 31.8794 22.0664C31.7875 22.0767 31.683 22.0858 31.5646 22.0942L31.1653 22.1179C30.8769 22.1299 30.6234 22.1524 30.4316 22.1804C30.3359 22.1943 30.2541 22.2098 30.1906 22.2264C30.1589 22.2346 30.1306 22.2437 30.1068 22.2532C30.0841 22.2622 30.0605 22.2735 30.0423 22.2889L30.0395 22.2916C29.9223 22.4017 29.8809 22.537 29.9049 22.6761C29.9284 22.8112 30.0122 22.9434 30.1308 23.0589C30.3686 23.2904 30.7666 23.4758 31.2072 23.5073H31.2089C31.504 23.5203 31.9142 23.5069 32.1225 23.463L32.1242 23.4627C32.2747 23.4272 32.395 23.4231 32.4836 23.4404C32.5717 23.4576 32.624 23.4948 32.6508 23.5389C32.6777 23.5833 32.6868 23.648 32.6618 23.736C32.6367 23.8242 32.5784 23.931 32.4788 24.0508C31.7719 24.8946 31.239 25.5077 30.8594 25.9109C30.6694 26.1127 30.519 26.2606 30.4052 26.3583C30.3482 26.4071 30.3019 26.4423 30.2654 26.465C30.246 26.4771 30.2312 26.4844 30.2208 26.4887L30.2016 26.4946C30.1559 26.4972 30.0794 26.4886 29.9925 26.4692C29.9066 26.4499 29.8161 26.4217 29.7439 26.3885L29.7436 26.3881L29.6948 26.3689C29.5758 26.3273 29.4149 26.3093 29.1743 26.3092C28.8975 26.309 28.5051 26.3326 27.9329 26.3765H27.9322C27.5247 26.4106 27.1449 26.4507 26.8621 26.4863C26.7208 26.5041 26.603 26.5209 26.5177 26.5354C26.4753 26.5426 26.4395 26.5494 26.413 26.5557C26.4 26.5587 26.3878 26.5619 26.3776 26.5653C26.3709 26.5675 26.3535 26.5734 26.3395 26.5852L26.3261 26.6003C26.3178 26.6131 26.3136 26.6271 26.3117 26.6346C26.3094 26.6439 26.3077 26.6544 26.3062 26.6648C26.3032 26.686 26.3006 26.7129 26.2987 26.7438C26.2949 26.8059 26.293 26.8897 26.2925 26.9886C26.2915 27.1868 26.2967 27.4499 26.3083 27.7322V27.7329L26.3591 28.7595C26.3599 28.7764 26.3669 28.7926 26.3787 28.8048L26.9053 29.3493C27.2125 29.6652 27.4277 29.8511 27.741 29.9529C28.0493 30.0529 28.4481 30.0699 29.1167 30.0706L29.4995 30.0686C29.6119 30.0662 29.7099 30.0615 29.7944 30.0528C29.9621 30.0353 30.092 30.0002 30.1823 29.9209C30.2752 29.8394 30.3137 29.7225 30.3279 29.5745C30.342 29.4274 30.3331 29.2354 30.3186 28.9905C30.3034 28.7322 30.3027 28.586 30.3252 28.4875C30.3455 28.3982 30.3851 28.3474 30.4683 28.2829L30.4707 28.2809C30.5183 28.2406 30.6042 28.198 30.7073 28.1638C30.8089 28.1301 30.9199 28.1072 31.0132 28.1017C31.2924 28.0851 31.5145 27.984 31.7263 27.7796C31.8041 27.7076 31.8843 27.6482 31.9484 27.6107C31.9808 27.5917 32.0069 27.5794 32.025 27.5736C32.0288 27.5801 32.0335 27.5889 32.0387 27.6001C32.0533 27.6319 32.07 27.6772 32.0874 27.7333C32.1222 27.8453 32.1585 27.9945 32.1877 28.1521C32.2181 28.3197 32.2617 28.4918 32.3089 28.6348C32.3324 28.7063 32.3574 28.7719 32.3824 28.8261C32.4066 28.8787 32.4332 28.9262 32.462 28.9582C32.4985 28.9987 32.5372 29.0623 32.5674 29.1316C32.5977 29.2013 32.6166 29.2698 32.6196 29.3187C32.6241 29.3956 32.6634 29.4912 32.714 29.5803C32.7656 29.6712 32.8345 29.7653 32.9083 29.8413L33.1562 30.1091C33.1707 30.1248 33.1919 30.133 33.2132 30.1314L34.8103 30.0068L34.8107 30.0071C35.249 29.9761 35.6669 29.9335 35.9876 29.8917C36.1477 29.8709 36.2843 29.8499 36.3876 29.8306C36.439 29.821 36.4832 29.8118 36.518 29.8028C36.5503 29.7945 36.5821 29.7846 36.6035 29.7723L36.6063 29.7705C36.7587 29.6729 36.83 29.4599 36.8476 29.1749C36.8633 28.9205 36.8374 28.5897 36.7707 28.1851L36.7398 28.0072L36.667 27.5928C36.5898 27.1324 36.5032 26.5629 36.4487 26.1506C36.3914 25.6888 36.3557 25.429 36.2921 25.2531C36.2252 25.0683 36.1276 24.9748 35.9666 24.8415C35.8045 24.7021 35.7043 24.6163 35.5358 24.5926C35.4547 24.5811 35.3601 24.5842 35.2385 24.5967C35.1165 24.6092 34.9621 24.6317 34.7602 24.6612C34.4982 24.6993 34.3028 24.718 34.1697 24.7158C34.1028 24.7147 34.0561 24.708 34.0262 24.6986C33.996 24.6891 33.9953 24.6809 33.997 24.6849C33.9986 24.6889 33.9931 24.6818 34.009 24.6519C34.0242 24.6234 34.0533 24.5854 34.1 24.5369C34.1931 24.4403 34.3442 24.3146 34.5539 24.1562L34.5542 24.1558C34.9949 23.8195 35.2267 23.7144 35.5069 23.6979C35.7272 23.6848 36.1326 23.5885 36.4136 23.4795L36.4147 23.4792C36.5298 23.4322 36.621 23.3943 36.6907 23.3587C36.7602 23.3231 36.8156 23.2864 36.8548 23.2388C36.8957 23.1892 36.9142 23.1336 36.9214 23.0696C36.9283 23.0082 36.9252 22.9347 36.92 22.8478V22.8464L36.9094 22.7558C36.8416 22.3112 36.5464 21.9844 36.0923 21.9191H36.0916C35.9763 21.904 35.8981 21.8784 35.8485 21.8439C35.803 21.8122 35.7777 21.7704 35.7716 21.708C35.7651 21.641 35.7805 21.5489 35.8255 21.4227C35.8703 21.2974 35.9419 21.1441 36.0411 20.9578C36.252 20.558 36.3583 20.2262 36.3508 19.9388C36.3431 19.647 36.2183 19.4095 35.9883 19.2L35.9876 19.1993L35.9018 19.1275C35.8167 19.0617 35.7331 19.0125 35.646 18.9792C35.5292 18.9346 35.4092 18.9202 35.2755 18.9281C35.1995 18.9326 35.1352 18.9387 35.0819 18.9507C35.0281 18.9629 34.9806 18.9818 34.9418 19.0149C34.8652 19.0804 34.843 19.1842 34.8261 19.3116C34.8077 19.4157 34.7844 19.4794 34.7561 19.5172C34.7314 19.5501 34.6999 19.5677 34.6476 19.5708C34.6002 19.5735 34.5522 19.5676 34.514 19.5564C34.4951 19.5507 34.4798 19.5442 34.4687 19.5378C34.4634 19.5347 34.4594 19.5315 34.4567 19.5292C34.4554 19.5281 34.4542 19.5271 34.4536 19.5265L34.4529 19.5255C34.436 19.5007 34.4094 19.4815 34.3856 19.4671C34.36 19.4516 34.3288 19.4367 34.2957 19.4231C34.2293 19.396 34.148 19.3716 34.0677 19.3552L34.066 19.3548L33.9843 19.338C33.8025 19.2959 33.6793 19.2308 33.6039 19.1478C33.5202 19.0556 33.4859 18.9312 33.5084 18.7629V18.7619C33.5254 18.6186 33.5267 18.5099 33.4604 18.4093C33.4286 18.3612 33.3838 18.3186 33.3272 18.2754C33.2706 18.2322 33.1985 18.1854 33.1095 18.1302L33.1088 18.1295L32.9481 18.0347C32.8997 18.0072 32.8559 17.9835 32.816 17.964C32.7364 17.9251 32.6669 17.8999 32.6014 17.8923ZM28.5001 24.2115C28.316 24.1921 28.1346 24.2313 27.8852 24.3121C27.7712 24.3477 27.5384 24.3912 27.3115 24.4219L27.0907 24.4477C26.7805 24.4713 26.5327 24.5395 26.3831 24.6437C26.3076 24.6964 26.2509 24.7627 26.2307 24.8428C26.21 24.9248 26.2308 25.0081 26.2832 25.0859L26.2839 25.0869C26.3981 25.2507 26.5973 25.3979 26.824 25.5075C27.0511 25.6174 27.3134 25.6932 27.5611 25.7104C27.8221 25.7349 28.1491 25.805 28.304 25.8804L28.3064 25.8814C28.6316 26.0259 28.9962 25.9678 29.2646 25.7986C29.5158 25.6403 29.6946 25.376 29.6674 25.0749L29.6591 25.0142C29.6204 24.7691 29.4524 24.622 29.1074 24.4398C28.8618 24.3076 28.6833 24.2308 28.5001 24.2115ZM28.5485 22.476C28.3374 22.4716 28.0749 22.4819 27.7454 22.5014C27.3029 22.5275 26.9954 22.5558 26.7776 22.5944C26.5611 22.6328 26.4237 22.683 26.3279 22.7592C26.1846 22.871 26.0919 22.9873 26.1092 23.1379C26.1173 23.209 26.1498 23.2799 26.1988 23.3528C26.2479 23.4259 26.3171 23.5058 26.4041 23.5952C26.5235 23.7206 26.6203 23.8034 26.7388 23.8486C26.857 23.8936 26.9891 23.8981 27.1714 23.8874C27.3735 23.8754 27.5315 23.8811 27.7077 23.9165C27.8851 23.9523 28.0838 24.0193 28.3668 24.1332L28.3689 24.1339C28.4418 24.1606 28.5305 24.1649 28.6171 24.1569C28.7048 24.1488 28.7967 24.1275 28.8801 24.0978C28.9631 24.0682 29.0415 24.0291 29.0998 23.9832C29.1526 23.9416 29.2048 23.8812 29.2042 23.806C29.2071 23.8024 29.2135 23.7961 29.2248 23.7892C29.2484 23.7747 29.2843 23.7627 29.3237 23.7603C29.3992 23.7559 29.467 23.7419 29.5218 23.7119C29.5789 23.6806 29.6192 23.6333 29.6392 23.5705C29.6584 23.5104 29.6575 23.4408 29.644 23.3648C29.6304 23.2883 29.6028 23.1998 29.5633 23.0991V23.0984L29.5201 22.9961C29.4759 22.8985 29.4279 22.8146 29.3687 22.7448C29.288 22.6498 29.1885 22.5837 29.0549 22.5412C28.9233 22.4994 28.759 22.4803 28.5485 22.476ZM28.5467 20.3446L28.4606 20.3532C28.2441 20.381 27.9292 20.4641 27.7097 20.5489C27.4702 20.6414 26.9489 20.7622 26.5428 20.7961H26.5407C26.2502 20.8284 26.0492 20.8607 25.9083 20.9049C25.7656 20.9498 25.6759 21.0096 25.6179 21.1013L25.5832 21.16C25.5088 21.2979 25.4839 21.4435 25.5125 21.5868C25.5409 21.7293 25.621 21.8635 25.7463 21.9819L25.8026 22.0317L26.0673 22.2576C26.0822 22.2703 26.1021 22.276 26.1215 22.2738L27.9452 22.0551L27.9449 22.0547C28.4803 21.9929 28.8842 21.9466 29.184 21.8968C29.4812 21.8474 29.6876 21.7933 29.8212 21.7114C29.8898 21.6693 29.9415 21.6186 29.976 21.5559C30.0102 21.4936 30.0247 21.4244 30.0275 21.3492C30.0328 21.203 29.9927 21.0171 29.9444 20.7872C29.9395 20.7624 29.9269 20.742 29.9142 20.7267C29.9011 20.711 29.8849 20.6966 29.8679 20.6838C29.8337 20.6582 29.789 20.6331 29.7388 20.6093C29.6377 20.5615 29.5039 20.5138 29.3615 20.4723C29.0799 20.3905 28.7464 20.328 28.5467 20.3446ZM27.4842 18.1975H27.4824C27.4033 18.2121 27.1667 18.2465 26.9644 18.2788H26.9637C26.8747 18.2941 26.8012 18.3076 26.744 18.3255C26.6863 18.3436 26.6355 18.3691 26.5994 18.4138C26.5632 18.4587 26.5494 18.5136 26.5445 18.5738C26.5396 18.6333 26.5426 18.7076 26.5479 18.7973C26.5542 18.904 26.577 19.0193 26.608 19.1193C26.6382 19.2168 26.6793 19.3097 26.7271 19.3644L26.7282 19.3655C26.9398 19.5989 27.2817 19.7766 27.6383 19.8743C27.995 19.9719 28.3791 19.9932 28.6786 19.9007L28.6796 19.9004C28.7355 19.8822 28.7871 19.8639 28.8272 19.8382C28.8715 19.8098 28.9032 19.7716 28.9182 19.717C28.9318 19.6674 28.9304 19.6086 28.9223 19.5409C28.9141 19.4721 28.8979 19.3851 28.8763 19.2759L28.876 19.2741L28.853 19.1784C28.8283 19.0823 28.7991 18.9872 28.7689 18.9044C28.7488 18.8493 28.7277 18.7987 28.7074 18.7564C28.6877 18.7153 28.6664 18.6775 28.6443 18.6514L28.6436 18.6503L28.6017 18.6102C28.5536 18.5697 28.488 18.5287 28.417 18.4903C28.3198 18.4378 28.2036 18.3853 28.0867 18.3396C27.9698 18.2939 27.8505 18.2542 27.7468 18.228C27.6469 18.2028 27.5499 18.187 27.4842 18.1975ZM10.8529 10.1953C10.4647 10.1954 10.1498 10.5102 10.1498 10.8984V11.25C10.1498 11.6383 10.4647 11.9531 10.8529 11.9531H19.642C20.0302 11.953 20.3451 11.6383 20.3451 11.25V10.8984C20.3451 10.5102 20.0302 10.1954 19.642 10.1953H10.8529ZM25.267 10.1953C24.8787 10.1954 24.5639 10.5102 24.5639 10.8984V11.25C24.5639 11.6383 24.8787 11.9531 25.267 11.9531H34.056C34.4443 11.953 34.7592 11.6383 34.7592 11.25V10.8984C34.7592 10.5102 34.4443 10.1954 34.056 10.1953H25.267Z" fill="currentColor"/>
</svg>
